<svg width="746" height="624" viewBox="0 0 746 624" fill="none" xmlns="http://www.w3.org/2000/svg">
<g clip-path="url(#clip0_114_467)">
<rect width="746" height="624" fill="white"/>
<mask id="path-1-outside-1_114_467" maskUnits="userSpaceOnUse" x="538.646" y="79.2878" width="200" height="258" fill="black">
<rect fill="white" x="538.646" y="79.2878" width="200" height="258"/>
<path d="M654.729 333.288V284.413H543.167V252.538L661.813 83.6003H698.646V249.704H734.417V284.413H698.646V333.288H654.729ZM654.729 249.704V137.434H663.229L577.167 260.329V249.704H654.729Z"/>
</mask>
<path d="M654.729 333.288H650.729V337.288H654.729V333.288ZM654.729 284.413H658.729V280.413H654.729V284.413ZM543.167 284.413H539.167V288.413H543.167V284.413ZM543.167 252.538L539.893 250.239L539.167 251.274V252.538H543.167ZM661.813 83.6003V79.6003H659.734L658.539 81.3014L661.813 83.6003ZM698.646 83.6003H702.646V79.6003H698.646V83.6003ZM698.646 249.704H694.646V253.704H698.646V249.704ZM734.417 249.704H738.417V245.704H734.417V249.704ZM734.417 284.413V288.413H738.417V284.413H734.417ZM698.646 284.413V280.413H694.646V284.413H698.646ZM698.646 333.288V337.288H702.646V333.288H698.646ZM654.729 249.704V253.704H658.729V249.704H654.729ZM654.729 137.434V133.434H650.729V137.434H654.729ZM663.229 137.434L666.506 139.728L670.914 133.434H663.229V137.434ZM577.167 260.329H573.167V273.015L580.443 262.624L577.167 260.329ZM577.167 249.704V245.704H573.167V249.704H577.167ZM658.729 333.288V284.413H650.729V333.288H658.729ZM654.729 280.413H543.167V288.413H654.729V280.413ZM547.167 284.413V252.538H539.167V284.413H547.167ZM546.44 254.837L665.086 85.8992L658.539 81.3014L539.893 250.239L546.44 254.837ZM661.813 87.6003H698.646V79.6003H661.813V87.6003ZM694.646 83.6003V249.704H702.646V83.6003H694.646ZM698.646 253.704H734.417V245.704H698.646V253.704ZM730.417 249.704V284.413H738.417V249.704H730.417ZM734.417 280.413H698.646V288.413H734.417V280.413ZM694.646 284.413V333.288H702.646V284.413H694.646ZM698.646 329.288H654.729V337.288H698.646V329.288ZM658.729 249.704V137.434H650.729V249.704H658.729ZM654.729 141.434H663.229V133.434H654.729V141.434ZM659.953 135.139L573.89 258.035L580.443 262.624L666.506 139.728L659.953 135.139ZM581.167 260.329V249.704H573.167V260.329H581.167ZM577.167 253.704H654.729V245.704H577.167V253.704Z" fill="#9604CF" mask="url(#path-1-outside-1_114_467)"/>
<mask id="path-3-outside-2_114_467" maskUnits="userSpaceOnUse" x="315.521" y="136.64" width="192" height="266" fill="black">
<rect fill="white" x="315.521" y="136.64" width="192" height="266"/>
<path d="M411.771 398.182C382.493 398.182 359.944 387.084 344.125 364.89C328.306 342.459 320.396 310.584 320.396 269.265C320.396 227.473 328.306 195.716 344.125 173.994C359.944 152.272 382.493 141.411 411.771 141.411C441.285 141.411 463.833 152.272 479.417 173.994C495.236 195.716 503.146 227.355 503.146 268.911C503.146 310.466 495.236 342.459 479.417 364.89C463.833 387.084 441.285 398.182 411.771 398.182ZM411.771 360.64C427.826 360.64 439.75 353.32 447.542 338.682C455.333 323.807 459.229 300.55 459.229 268.911C459.229 237.272 455.333 214.369 447.542 200.202C439.75 185.8 427.826 178.598 411.771 178.598C395.951 178.598 384.028 185.8 376 200.202C368.208 214.369 364.313 237.272 364.313 268.911C364.313 300.55 368.208 323.807 376 338.682C384.028 353.32 395.951 360.64 411.771 360.64Z"/>
</mask>
<path d="M344.125 364.89L340.856 367.195L340.862 367.203L340.868 367.212L344.125 364.89ZM344.125 173.994L340.892 171.639L340.892 171.639L344.125 173.994ZM479.417 173.994L476.167 176.326L476.175 176.337L476.183 176.349L479.417 173.994ZM479.417 364.89L476.148 362.585L476.143 362.591L479.417 364.89ZM447.542 338.682L451.073 340.561L451.079 340.549L451.085 340.538L447.542 338.682ZM447.542 200.202L444.024 202.106L444.03 202.118L444.037 202.13L447.542 200.202ZM376 200.202L372.506 198.255L372.501 198.265L372.495 198.275L376 200.202ZM376 338.682L372.457 340.538L372.474 340.571L372.493 340.605L376 338.682ZM411.771 394.182C383.674 394.182 362.388 383.621 347.382 362.568L340.868 367.212C357.501 390.548 381.312 402.182 411.771 402.182V394.182ZM347.394 362.585C332.235 341.091 324.396 310.152 324.396 269.265H316.396C316.396 311.017 324.376 343.828 340.856 367.195L347.394 362.585ZM324.396 269.265C324.396 227.881 332.245 197.102 347.358 176.349L340.892 171.639C324.366 194.331 316.396 227.066 316.396 269.265H324.396ZM347.358 176.349C362.35 155.764 383.639 145.411 411.771 145.411V137.411C381.347 137.411 357.539 148.78 340.892 171.639L347.358 176.349ZM411.771 145.411C440.152 145.411 461.421 155.771 476.167 176.326L482.667 171.662C466.246 148.772 442.418 137.411 411.771 137.411V145.411ZM476.183 176.349C491.299 197.105 499.146 227.769 499.146 268.911H507.146C507.146 226.942 499.173 194.328 482.65 171.639L476.183 176.349ZM499.146 268.911C499.146 310.04 491.304 341.094 476.148 362.585L482.686 367.195C499.168 343.824 507.146 310.893 507.146 268.911H499.146ZM476.143 362.591C461.383 383.613 440.116 394.182 411.771 394.182V402.182C442.453 402.182 466.284 390.555 482.69 367.188L476.143 362.591ZM411.771 364.64C420.426 364.64 428.168 362.66 434.848 358.559C441.521 354.463 446.905 348.392 451.073 340.561L444.011 336.802C440.387 343.61 435.913 348.518 430.663 351.741C425.419 354.96 419.171 356.64 411.771 356.64V364.64ZM451.085 340.538C459.339 324.78 463.229 300.72 463.229 268.911H455.229C455.229 300.379 451.328 322.833 443.998 336.826L451.085 340.538ZM463.229 268.911C463.229 237.128 459.347 213.367 451.047 198.275L444.037 202.13C451.319 215.371 455.229 237.416 455.229 268.911H463.229ZM451.06 198.299C446.885 190.582 441.495 184.605 434.823 180.575C428.147 176.543 420.414 174.598 411.771 174.598V182.598C419.183 182.598 425.44 184.254 430.687 187.423C435.939 190.595 440.407 195.42 444.024 202.106L451.06 198.299ZM411.771 174.598C403.233 174.598 395.563 176.549 388.896 180.575C382.237 184.597 376.796 190.558 372.506 198.255L379.494 202.15C383.232 195.444 387.766 190.603 393.032 187.423C398.288 184.248 404.489 182.598 411.771 182.598V174.598ZM372.495 198.275C364.194 213.367 360.313 237.128 360.313 268.911H368.313C368.313 237.416 372.222 215.371 379.505 202.13L372.495 198.275ZM360.313 268.911C360.313 300.72 364.203 324.78 372.457 340.538L379.543 336.826C372.214 322.833 368.313 300.379 368.313 268.911H360.313ZM372.493 340.605C376.776 348.416 382.211 354.471 388.871 358.559C395.542 362.654 403.221 364.64 411.771 364.64V356.64C404.501 356.64 398.309 354.966 393.056 351.741C387.792 348.51 383.252 343.586 379.507 336.758L372.493 340.605Z" fill="#9604CF" mask="url(#path-3-outside-2_114_467)"/>
<mask id="path-5-outside-3_114_467" maskUnits="userSpaceOnUse" x="83.5417" y="-0.1875" width="200" height="258" fill="black">
<rect fill="white" x="83.5417" y="-0.1875" width="200" height="258"/>
<path d="M199.625 253.812V204.937H88.0626V173.062L206.708 4.12497H243.542V170.229H279.313V204.937H243.542V253.812H199.625ZM199.625 170.229V57.9583H208.125L122.063 180.854V170.229H199.625Z"/>
</mask>
<path d="M199.625 253.812H195.625V257.812H199.625V253.812ZM199.625 204.937H203.625V200.937H199.625V204.937ZM88.0626 204.937H84.0626V208.937H88.0626V204.937ZM88.0626 173.062L84.7892 170.764L84.0626 171.798V173.062H88.0626ZM206.708 4.12497V0.12497H204.63L203.435 1.82606L206.708 4.12497ZM243.542 4.12497H247.542V0.12497H243.542V4.12497ZM243.542 170.229H239.542V174.229H243.542V170.229ZM279.313 170.229H283.313V166.229H279.313V170.229ZM279.313 204.937V208.937H283.313V204.937H279.313ZM243.542 204.937V200.937H239.542V204.937H243.542ZM243.542 253.812V257.812H247.542V253.812H243.542ZM199.625 170.229V174.229H203.625V170.229H199.625ZM199.625 57.9583V53.9583H195.625V57.9583H199.625ZM208.125 57.9583L211.402 60.2528L215.81 53.9583H208.125V57.9583ZM122.063 180.854H118.063V193.539L125.339 183.149L122.063 180.854ZM122.063 170.229V166.229H118.063V170.229H122.063ZM203.625 253.812V204.937H195.625V253.812H203.625ZM199.625 200.937H88.0626V208.937H199.625V200.937ZM92.0626 204.937V173.062H84.0626V204.937H92.0626ZM91.336 175.361L209.982 6.42388L203.435 1.82606L84.7892 170.764L91.336 175.361ZM206.708 8.12497H243.542V0.12497H206.708V8.12497ZM239.542 4.12497V170.229H247.542V4.12497H239.542ZM243.542 174.229H279.313V166.229H243.542V174.229ZM275.313 170.229V204.937H283.313V170.229H275.313ZM279.313 200.937H243.542V208.937H279.313V200.937ZM239.542 204.937V253.812H247.542V204.937H239.542ZM243.542 249.812H199.625V257.812H243.542V249.812ZM203.625 170.229V57.9583H195.625V170.229H203.625ZM199.625 61.9583H208.125V53.9583H199.625V61.9583ZM204.849 55.6638L118.786 178.56L125.339 183.149L211.402 60.2528L204.849 55.6638ZM126.063 180.854V170.229H118.063V180.854H126.063ZM122.063 174.229H199.625V166.229H122.063V174.229Z" fill="#9604CF" mask="url(#path-5-outside-3_114_467)"/>
<g clip-path="url(#clip1_114_467)">
<g opacity="0.3">
<path d="M373 623.977C579.002 623.977 746 617.821 746 610.226C746 602.632 579.002 596.475 373 596.475C166.998 596.475 0 602.632 0 610.226C0 617.821 166.998 623.977 373 623.977Z" fill="#282828"/>
</g>
<path d="M523.51 605.687H705.009V378.381C705.009 375.117 702.363 372.478 699.089 372.478H523.51V605.687Z" fill="#C5C7C6"/>
<g opacity="0.3">
<path d="M632.109 424.553C632.109 424.553 656.304 605.687 523.532 605.687H633.521L632.109 424.553Z" fill="#282828"/>
</g>
<g opacity="0.3">
<path d="M631.974 452.995C631.974 452.995 631.683 584.267 671.597 584.267C715.504 584.267 704.987 378.359 704.987 378.359V605.665H633.477L631.974 452.995Z" fill="#282828"/>
</g>
<g opacity="0.7">
<path d="M699.089 372.478H523.51V380.036H699.089C702.363 380.036 705.009 382.674 705.009 385.939V378.381C705.009 375.117 702.363 372.478 699.089 372.478Z" fill="white"/>
</g>
<path d="M655.856 438.193C664.55 438.193 671.597 428.683 671.597 416.951C671.597 405.22 664.55 395.71 655.856 395.71C647.162 395.71 640.114 405.22 640.114 416.951C640.114 428.683 647.162 438.193 655.856 438.193Z" fill="#282828"/>
<path d="M686.173 515.691C683.684 515.691 681.643 513.678 681.643 511.174V424.196C681.643 421.714 683.661 419.679 686.173 419.679C688.662 419.679 690.703 421.692 690.703 424.196V511.174C690.703 513.678 688.684 515.691 686.173 515.691Z" fill="#282828"/>
<path d="M692.317 588.56H645.451C643.276 588.56 641.505 586.794 641.505 584.625V560.342C641.505 558.174 643.276 556.407 645.451 556.407H692.317C694.492 556.407 696.264 558.174 696.264 560.342V584.625C696.264 586.794 694.492 588.56 692.317 588.56Z" fill="#282828"/>
<path d="M631.705 608.907C629.911 608.907 628.476 607.454 628.476 605.687V372.478C628.476 370.69 629.934 369.259 631.705 369.259C633.477 369.259 634.934 370.712 634.934 372.478V605.687C634.934 607.454 633.477 608.907 631.705 608.907Z" fill="#282828"/>
<path d="M705.009 608.907H523.51C521.716 608.907 520.281 607.454 520.281 605.687V372.478C520.281 370.69 521.738 369.259 523.51 369.259H699.089C704.135 369.259 708.261 373.35 708.261 378.404V605.71C708.238 607.454 706.803 608.907 705.009 608.907ZM526.761 602.445H701.78V378.381C701.78 376.905 700.569 375.698 699.089 375.698H526.761V602.445Z" fill="#282828"/>
<path d="M272.115 605.688V602.155C272.115 598.219 276.173 594.888 281.533 594.441L409.887 584.29H567.393C570.847 584.29 573.65 586.324 573.65 588.851V605.688H272.115Z" fill="#C5C7C6"/>
<g opacity="0.3">
<path d="M272.115 605.687L278.102 600.59L409.82 594.977H573.672V605.687H272.115Z" fill="#282828"/>
</g>
<path d="M573.672 608.907H272.115C270.321 608.907 268.886 607.454 268.886 605.688V602.155C268.886 596.52 274.2 591.825 281.264 591.221L409.641 581.07C409.73 581.07 409.82 581.07 409.887 581.07H567.393C572.708 581.07 576.879 584.491 576.879 588.851V605.688C576.901 607.454 575.443 608.907 573.672 608.907ZM275.366 602.445H570.42V588.829C570.42 588.493 569.344 587.487 567.393 587.487H410.022L281.802 597.638C278.259 597.929 275.366 599.964 275.366 602.132V602.445Z" fill="#282828"/>
<path d="M114.609 606.313H78.327C78.327 606.313 65.2314 603.25 52.943 590.639C43.7716 581.248 35.0263 566.514 32.5148 543.774C29.667 517.837 35.4075 502.588 44.4668 494.717C53.6606 486.735 66.6217 491.475 70.4786 501.067C71.6446 503.996 71.981 507.373 71.084 510.973C67.4962 525.663 65.3211 545.607 73.5282 561.371C79.6275 573.132 91.4898 582.568 112.815 585.787L114.609 606.313Z" fill="white"/>
<path d="M73.5282 561.393C70.6355 563.003 67.541 563.719 64.3792 563.361C52.943 562.064 45.274 547.083 47.2249 529.911C49.1309 513.253 59.4011 500.665 70.4561 501.09C71.6221 504.019 71.9585 507.395 71.0615 510.995C67.4961 525.685 65.321 545.607 73.5282 561.393Z" fill="#F5CB36"/>
<path d="M102.545 606.314H78.3269C78.3269 606.314 65.2313 603.25 52.943 590.64C65.164 584.2 83.1929 587.733 96.9388 600.299C99.0018 602.199 100.885 604.212 102.545 606.314Z" fill="#C5C7C6"/>
<path d="M114.609 609.533H78.3269C78.0802 609.533 77.8336 609.511 77.5869 609.444C77.1384 609.332 66.7113 606.828 55.5442 597.459C45.3188 588.873 32.4475 572.663 29.3081 544.132C25.9445 513.566 34.5329 499.055 42.3365 492.28C48.8618 486.601 57.8762 485.863 65.321 490.38C72.8106 494.919 76.3087 503.303 74.2457 511.755C70.5458 526.915 68.281 548.224 78.596 563.585C85.4353 573.758 97.0957 580.153 113.308 582.635C114.788 582.858 115.909 584.066 116.044 585.542L117.838 606.023C117.928 606.917 117.614 607.812 117.008 608.482C116.38 609.153 115.506 609.533 114.609 609.533ZM78.7305 603.071H111.066L109.788 588.582C92.9922 585.542 80.7038 578.342 73.1918 567.162C61.5762 549.856 63.9083 526.647 67.9446 510.213C69.6264 503.348 65.9489 498.295 61.9574 495.88C58.0108 493.488 51.8891 492.549 46.597 497.155C37.0893 505.428 33.322 521.415 35.7438 543.416C41.0134 591.266 75.053 602.043 78.7305 603.071Z" fill="#282828"/>
<path d="M359.052 474.862C358.492 484.7 356.451 493.622 353.491 501.671C346.472 520.677 334.251 534.741 324.026 543.908C323.51 544.378 323.017 544.825 322.501 545.25C313.823 552.785 301.4 554.194 291.197 548.917L256.62 531.007C256.552 530.984 256.53 530.962 256.53 530.962C257.965 549.252 256.911 563.942 254.96 575.301C251.417 596.073 244.825 605.665 244.825 605.665H108.353C108.353 605.665 100.818 590.818 97.2751 568.459C93.8891 546.994 94.2254 518.62 108.465 489.776C109.586 487.518 110.774 485.237 112.075 483.001L224.307 468.959C242.067 466.746 260.095 469.809 276.084 477.814L283.013 481.257L298.62 489.06C299.651 487.495 300.66 485.863 301.669 484.119C305.84 476.986 309.742 468.758 312.612 462.274C312.724 462.028 312.837 461.782 312.926 461.558C314.675 457.981 317.411 455.052 320.685 453.062C324.295 450.848 328.601 449.753 333.04 450.155C347.078 451.43 353.671 458.495 356.698 464.063C358.492 467.372 359.254 471.128 359.052 474.862Z" fill="white"/>
<path d="M144.253 605.687H108.375C108.375 605.687 100.841 590.841 97.2976 568.481C111.29 564.68 128.601 573.49 138.401 590.416C141.249 595.38 143.199 600.567 144.253 605.687Z" fill="#C5C7C6"/>
<path d="M353.491 501.649C346.472 520.654 334.251 534.718 324.026 543.886C317.12 538.363 318.263 524.947 326.672 513.678C334.543 503.125 346.069 498.138 353.491 501.649Z" fill="#C5C7C6"/>
<g opacity="0.3">
<path d="M320.685 453.084C318.308 456.103 315.729 458.942 312.926 461.581C314.698 458.003 317.411 455.097 320.685 453.084Z" fill="#282828"/>
</g>
<path d="M253.301 531.32L251.036 516.361L249.825 508.782C249.466 506.233 249.04 503.684 248.794 501.045V501.023C248.771 500.665 249.018 500.352 249.377 500.33C249.623 500.307 249.848 500.419 249.982 500.62C251.395 502.879 252.583 505.249 253.637 507.664C254.691 510.078 255.588 512.56 256.373 515.087C257.18 517.591 257.853 520.14 258.458 522.712C259.042 525.305 259.512 527.854 259.759 530.604C259.916 532.371 258.615 533.958 256.822 534.115C255.117 534.271 253.57 533.064 253.323 531.387L253.301 531.32Z" fill="#282828"/>
<path d="M244.847 608.907H108.353C107.142 608.907 106.02 608.214 105.46 607.141C105.124 606.492 97.3648 591.042 93.8891 567.788C90.6825 546.278 90.7273 513.857 109.25 481.414C109.765 480.519 110.64 479.938 111.671 479.804L223.903 465.762C242.358 463.459 260.903 466.612 277.541 474.929L297.476 484.879C302.163 477.277 306.603 467.864 309.652 460.999C313.756 451.698 323.286 446.063 333.332 446.98C348.737 448.389 356.092 456.215 359.546 462.565C361.586 466.321 362.528 470.636 362.281 475.041C360.331 509.765 340.71 533.712 324.609 547.665C314.877 556.094 301.176 557.704 289.695 551.756L260.14 536.463C262.674 584.714 248.166 606.559 247.516 607.499C246.91 608.371 245.924 608.907 244.847 608.907ZM110.416 602.445H242.986C246.08 596.788 256.62 574.026 253.301 531.208C253.211 530.045 253.772 528.905 254.736 528.257C255.723 527.608 256.979 527.541 258.01 528.078L292.677 546.01C301.782 550.728 312.657 549.453 320.371 542.768C335.53 529.621 353.985 507.127 355.823 474.661C356.003 471.441 355.33 468.311 353.85 465.628C351.159 460.686 345.306 454.538 332.749 453.397C325.484 452.726 318.577 456.841 315.595 463.593C312.119 471.441 306.827 482.532 301.356 490.827C300.459 492.191 298.665 492.683 297.207 491.945L274.671 480.698C259.176 472.962 241.91 470.01 224.733 472.179L114.116 486.02C84.8523 538.833 105.841 592.16 110.416 602.445Z" fill="#282828"/>
<path d="M253.054 579.371C270.433 573.58 312.298 563.697 305.84 605.665H244.847C244.847 605.665 238.411 602.065 240.407 593.01C241.82 586.57 246.776 581.472 253.054 579.371Z" fill="#C5C7C6"/>
<path d="M305.84 608.907H244.847C244.287 608.907 243.748 608.773 243.255 608.505C242.896 608.304 234.756 603.608 237.223 592.339C238.837 584.96 244.511 578.811 252.023 576.33C265.074 571.992 288.865 566.268 301.557 576.933C308.598 582.836 311.11 592.674 309.024 606.179C308.8 607.745 307.432 608.907 305.84 608.907ZM245.879 602.445H302.992C304.024 592.786 302.14 585.855 297.386 581.875C286.735 572.931 263.549 579.303 254.086 582.456C248.726 584.245 244.713 588.56 243.569 593.725C242.448 598.823 244.713 601.462 245.879 602.445Z" fill="#282828"/>
<path d="M563.917 604.301H430.988C430.988 589.879 442.716 578.208 457.157 578.208H537.726C552.19 578.208 563.917 589.902 563.917 604.301Z" fill="#C5C7C6"/>
<g opacity="0.3">
<path d="M446.147 603.809C446.147 591.132 455.206 580.578 467.203 578.208H457.157C442.694 578.208 430.988 589.902 430.988 604.301H563.917C563.917 604.122 563.917 603.966 563.895 603.809H446.147Z" fill="#282828"/>
</g>
<path d="M563.918 607.543H430.988C429.194 607.543 427.759 606.09 427.759 604.324C427.759 588.158 440.945 574.988 457.18 574.988H537.749C553.961 574.988 567.169 588.135 567.169 604.324C567.147 606.09 565.711 607.543 563.918 607.543ZM434.464 601.082H560.464C558.895 589.991 549.297 581.45 537.749 581.45H457.18C445.609 581.45 436.034 589.991 434.464 601.082Z" fill="#282828"/>
<path d="M489.963 514.774H472.562V578.208H489.963V514.774Z" fill="#C5C7C6"/>
<g opacity="0.3">
<path d="M480.142 514.774H472.562V578.208H480.142V514.774Z" fill="#282828"/>
</g>
<path d="M489.963 581.45H472.562C470.768 581.45 469.333 579.997 469.333 578.23V514.796C469.333 513.008 470.791 511.577 472.562 511.577H489.963C491.757 511.577 493.192 513.03 493.192 514.796V578.23C493.192 579.997 491.735 581.45 489.963 581.45ZM475.791 574.988H486.712V518.016H475.791V574.988Z" fill="#282828"/>
<path d="M524.631 514.774H507.23V578.208H524.631V514.774Z" fill="#C5C7C6"/>
<g opacity="0.3">
<path d="M514.809 514.774H507.23V578.208H514.809V514.774Z" fill="#282828"/>
</g>
<path d="M524.631 581.45H507.23C505.436 581.45 504.001 579.997 504.001 578.23V514.796C504.001 513.008 505.458 511.577 507.23 511.577H524.631C526.425 511.577 527.86 513.03 527.86 514.796V578.23C527.882 579.997 526.425 581.45 524.631 581.45ZM510.481 574.988H521.402V518.016H510.481V574.988Z" fill="#282828"/>
<path d="M600.558 521.482H386.768C380.579 521.482 375.579 516.496 375.579 510.325V382.183C375.579 376.011 380.579 371.025 386.768 371.025H600.558C606.747 371.025 611.748 376.011 611.748 382.183V510.325C611.748 516.473 606.747 521.482 600.558 521.482Z" fill="#F6F6F6"/>
<g opacity="0.3">
<path d="M610.313 511.755H396.523C390.334 511.755 385.333 506.769 385.333 500.598V372.456C385.333 372.009 385.378 371.539 385.423 371.115C379.884 371.785 375.579 376.481 375.579 382.182V510.324C375.579 516.496 380.579 521.482 386.768 521.482H600.558C606.276 521.482 610.985 517.189 611.658 511.666C611.21 511.733 610.761 511.755 610.313 511.755Z" fill="#282828"/>
</g>
<path d="M524.99 508.983H477.518C474.782 508.983 472.562 506.769 472.562 504.042V503.505C472.562 500.777 474.782 498.563 477.518 498.563H524.99C527.725 498.563 529.945 500.777 529.945 503.505V504.042C529.923 506.769 527.725 508.983 524.99 508.983Z" fill="#282828"/>
<path d="M600.558 524.702H386.768C378.808 524.702 372.35 518.24 372.35 510.324V382.16C372.35 374.222 378.83 367.783 386.768 367.783H600.558C608.519 367.783 614.977 374.245 614.977 382.16V510.324C614.977 518.262 608.519 524.702 600.558 524.702ZM386.768 374.245C382.396 374.245 378.83 377.8 378.83 382.16V510.324C378.83 514.685 382.396 518.24 386.768 518.24H600.558C604.931 518.24 608.496 514.685 608.496 510.324V382.16C608.496 377.8 604.931 374.245 600.558 374.245H386.768Z" fill="#282828"/>
<path fill-rule="evenodd" clip-rule="evenodd" d="M402.19 432.993L416.348 420.058C416.456 419.959 416.566 419.894 416.705 419.846L419.166 419.003C419.362 418.936 419.546 418.928 419.746 418.979L437.131 423.377C437.348 423.432 437.519 423.539 437.662 423.711L439.384 425.774C439.463 425.869 439.517 425.962 439.559 426.078L445.005 441.033C445.135 441.39 445.066 441.762 444.816 442.049L428.791 460.479C428.69 460.595 428.582 460.676 428.441 460.739L425.135 462.225C424.88 462.34 424.62 462.348 424.359 462.249L399.342 452.798C398.892 452.628 398.627 452.181 398.694 451.704L400.848 436.4C400.858 436.325 400.874 436.263 400.9 436.193L401.92 433.395C401.979 433.234 402.063 433.108 402.19 432.993Z" fill="#282828"/>
<path fill-rule="evenodd" clip-rule="evenodd" d="M402.876 433.749L417.034 420.814L419.496 419.97L436.881 424.368L438.603 426.431L444.048 441.386L428.023 459.816L424.718 461.302L399.701 451.851L401.855 436.546L402.876 433.749Z" fill="#9604CF"/>
<path fill-rule="evenodd" clip-rule="evenodd" d="M420.049 424.287L426.091 426.167C426.212 426.205 426.297 426.295 426.329 426.418C426.36 426.541 426.329 426.661 426.241 426.752L424.272 428.803C424.176 428.904 424.04 428.938 423.907 428.895L422.694 428.503C422.563 428.46 422.428 428.493 422.332 428.591L421.384 429.553C421.295 429.643 421.262 429.762 421.291 429.885C421.321 430.007 421.405 430.099 421.524 430.139L422.619 430.504C422.739 430.544 422.822 430.635 422.852 430.758C422.881 430.88 422.849 430.999 422.76 431.089L420.799 433.086C420.702 433.185 420.566 433.218 420.435 433.175L413.454 430.882C413.33 430.842 413.244 430.745 413.217 430.618C413.191 430.49 413.231 430.367 413.329 430.28C415.544 428.307 417.619 426.466 419.691 424.376C419.786 424.279 419.919 424.246 420.049 424.287Z" fill="#282828"/>
<path fill-rule="evenodd" clip-rule="evenodd" d="M415.996 428.904L421.572 430.763C421.687 430.801 421.767 430.888 421.795 431.005C421.823 431.122 421.791 431.236 421.707 431.322L420.63 432.42C420.537 432.514 420.408 432.545 420.282 432.504L414.571 430.629C414.453 430.59 414.37 430.497 414.345 430.376C414.319 430.254 414.358 430.136 414.451 430.053L415.663 428.973C415.757 428.89 415.878 428.865 415.996 428.904ZM417.786 427.025L416.72 428.107C416.636 428.192 416.604 428.306 416.632 428.424C416.66 428.541 416.741 428.628 416.855 428.666L420.1 429.747C420.225 429.79 420.355 429.758 420.448 429.664L421.514 428.583C421.599 428.497 421.631 428.383 421.602 428.266C421.574 428.149 421.494 428.061 421.38 428.023L418.135 426.941C418.009 426.9 417.879 426.931 417.786 427.025ZM420.205 424.939L425.041 426.445C425.157 426.481 425.238 426.567 425.269 426.684C425.299 426.801 425.269 426.917 425.185 427.004L424.098 428.136C424.006 428.232 423.876 428.265 423.749 428.224L418.934 426.667C418.819 426.629 418.738 426.542 418.71 426.425C418.681 426.307 418.712 426.192 418.797 426.106L419.862 425.025C419.954 424.932 420.081 424.901 420.205 424.939Z" fill="#45CC2E"/>
<path fill-rule="evenodd" clip-rule="evenodd" d="M436.453 425.596L421.625 441.347L403.355 434.649L402.808 436.343L420.529 443.207L425.655 458.37L425.656 458.373L423.707 442.381L437.553 427.002L436.453 425.596Z" fill="white"/>
<path fill-rule="evenodd" clip-rule="evenodd" d="M462.47 445.322C462.261 445.32 462.084 445.454 462.028 445.656L460.042 452.907C460.003 453.048 460.029 453.184 460.118 453.301C460.207 453.418 460.33 453.481 460.477 453.482L485.519 453.76C485.728 453.762 485.905 453.629 485.961 453.427L487.947 446.176C487.985 446.035 487.959 445.899 487.871 445.782C487.782 445.664 487.659 445.602 487.512 445.6L462.47 445.322ZM575.418 436.419C575.329 436.334 575.227 436.291 575.104 436.29L564.599 436.211C564.407 436.209 564.245 436.318 564.174 436.496C564.103 436.675 564.146 436.866 564.287 436.997L572.156 444.34C572.246 444.424 572.351 444.464 572.474 444.463L582.446 444.317C582.635 444.314 582.792 444.205 582.861 444.03C582.93 443.854 582.889 443.667 582.754 443.536L575.418 436.419ZM559.118 445.081C558.907 445.08 558.73 445.216 558.678 445.421L556.732 452.947C556.695 453.089 556.723 453.224 556.813 453.34C556.904 453.456 557.028 453.516 557.175 453.516L581.652 453.432C581.859 453.431 582.032 453.299 582.087 453.1L584.126 445.718C584.165 445.576 584.139 445.439 584.05 445.322C583.96 445.204 583.836 445.142 583.688 445.141L559.118 445.081ZM564.501 427.439C564.292 427.439 564.117 427.572 564.062 427.773L562.075 435.024C562.036 435.166 562.063 435.302 562.152 435.419C562.241 435.537 562.365 435.599 562.514 435.599L586.201 435.676C586.409 435.677 586.584 435.544 586.639 435.343L588.626 428.092C588.665 427.95 588.638 427.814 588.549 427.697C588.459 427.579 588.335 427.517 588.187 427.516L564.501 427.439ZM550.471 438.21L547.13 428.188C547.066 427.996 546.895 427.874 546.693 427.876L546.387 427.878L538.638 427.824C538.427 427.823 538.249 427.961 538.196 428.166L531.803 453.198C531.767 453.339 531.795 453.473 531.884 453.588C531.973 453.704 532.096 453.764 532.242 453.766L539.844 453.824C540.054 453.826 540.232 453.691 540.285 453.487L543.253 442.223L546.838 452.848L546.817 452.933C546.781 453.075 546.809 453.208 546.899 453.322C546.988 453.437 547.11 453.498 547.255 453.499L554.752 453.557C554.962 453.559 555.139 453.424 555.193 453.22L555.236 453.101C555.305 453.007 555.336 452.896 555.319 452.778L555.316 452.756L561.79 428.183C561.827 428.041 561.799 427.907 561.71 427.79C561.621 427.674 561.499 427.612 561.352 427.611L553.546 427.557C553.335 427.555 553.157 427.693 553.104 427.898L550.471 438.21ZM508.688 436.572C508.478 436.57 508.301 436.703 508.246 436.905L506.259 444.156C506.221 444.298 506.247 444.433 506.335 444.55C506.424 444.668 506.547 444.73 506.694 444.732L525.188 444.936C525.398 444.939 525.575 444.805 525.63 444.603L527.617 437.353C527.656 437.211 527.629 437.075 527.541 436.958C527.452 436.841 527.329 436.779 527.182 436.777L508.688 436.572ZM510.974 427.752C510.765 427.751 510.591 427.884 510.536 428.085L508.549 435.336C508.51 435.478 508.536 435.613 508.625 435.73C508.713 435.848 508.837 435.91 508.984 435.912L534.026 436.19C534.239 436.192 534.418 436.054 534.47 435.848L536.361 428.367C536.396 428.226 536.368 428.091 536.278 427.977C536.189 427.861 536.066 427.801 535.92 427.8L510.974 427.752ZM506.305 445.341C506.096 445.339 505.918 445.472 505.863 445.674L503.876 452.925C503.837 453.067 503.863 453.203 503.952 453.32C504.041 453.438 504.164 453.499 504.311 453.501L529.353 453.779C529.562 453.781 529.739 453.648 529.795 453.445L531.781 446.195C531.82 446.053 531.794 445.918 531.705 445.801C531.617 445.683 531.494 445.621 531.346 445.619L506.305 445.341ZM498.375 453.665L501.94 453.691C502.151 453.693 502.328 453.558 502.382 453.354L508.978 428.317C509.015 428.176 508.988 428.041 508.899 427.925C508.81 427.808 508.687 427.747 508.54 427.746L500.735 427.692C500.524 427.69 500.345 427.827 500.293 428.033L496.289 443.71L492.314 428.125C492.262 427.921 492.085 427.782 491.874 427.781L467.139 427.733C466.931 427.733 466.756 427.866 466.701 428.067L464.714 435.317C464.676 435.459 464.702 435.594 464.79 435.711C464.879 435.828 465.002 435.891 465.149 435.893L485.671 436.127L490.206 453.361C490.259 453.565 490.436 453.701 490.648 453.701L498.25 453.678C498.285 453.678 498.321 453.675 498.375 453.665ZM464.854 436.553C464.644 436.55 464.467 436.684 464.412 436.886L462.425 444.137C462.386 444.279 462.412 444.414 462.501 444.531C462.589 444.649 462.713 444.711 462.86 444.713L481.354 444.918C481.564 444.92 481.741 444.786 481.796 444.584L483.783 437.334C483.822 437.192 483.795 437.057 483.707 436.939C483.618 436.822 483.495 436.76 483.348 436.758L464.854 436.553Z" fill="#282828"/>
<path fill-rule="evenodd" clip-rule="evenodd" d="M462.467 445.781L487.508 446.059L485.522 453.309L460.48 453.031L462.467 445.781ZM575.102 436.748L582.438 443.865L572.466 444.012L564.596 436.669L575.102 436.748ZM559.118 445.539L583.688 445.599L581.649 452.981L557.172 453.065L559.118 445.539ZM564.5 427.898L588.187 427.975L586.2 435.225L562.513 435.148L564.5 427.898ZM539.846 453.373L543.199 440.645L547.311 452.834L547.257 453.048L554.754 453.106L554.825 452.838L554.867 452.839L554.843 452.767L561.35 428.069L553.545 428.015L550.529 439.824L546.698 428.334L546.389 428.337L538.637 428.283L532.244 453.315L539.846 453.373ZM508.684 437.03L527.178 437.235L525.192 444.485L506.698 444.28L508.684 437.03ZM510.974 428.21L535.92 428.259L534.029 435.739L508.987 435.461L510.974 428.21ZM506.301 445.8L531.343 446.077L529.356 453.328L504.314 453.05L506.301 445.8ZM501.942 453.241L508.538 428.204L500.733 428.15L496.289 445.552L491.874 428.24L491.216 428.238V428.238L467.14 428.191L465.153 435.442L486.022 435.68L490.645 453.25L498.247 453.227L498.243 453.212L501.942 453.241ZM464.85 437.011L483.344 437.216L481.358 444.467L462.863 444.262L464.85 437.011Z" fill="#9604CF"/>
<path fill-rule="evenodd" clip-rule="evenodd" d="M501.942 453.232L508.538 428.196L500.733 428.142L494.333 453.231L501.942 453.232Z" fill="#45CC2E"/>
<path fill-rule="evenodd" clip-rule="evenodd" d="M554.754 453.106L561.35 428.069L553.545 428.015L547.257 453.048L554.754 453.106Z" fill="#45CC2E"/>
<path d="M719.943 609.533H28.456C26.6621 609.533 25.2269 608.08 25.2269 606.314C25.2269 604.525 26.6845 603.094 28.456 603.094H719.966C721.76 603.094 723.195 604.547 723.195 606.314C723.195 608.08 721.737 609.533 719.943 609.533Z" fill="#282828"/>
<path d="M278.932 589.857C275.433 603.563 257.92 611.009 237.044 612.641C219.172 614.05 198.833 611.166 182.71 604.301C174.884 600.97 167.26 597.102 160.107 592.674C135.351 577.403 116.156 555.379 112.792 524.724L123.107 523.472L169.032 517.882C169.032 517.882 188.473 548.447 223.612 551.309C238.568 552.539 251.978 555.088 261.957 559.582C275.433 565.664 282.676 575.256 278.932 589.857Z" fill="white"/>
<path d="M237.268 611.948C237.201 612.194 237.133 612.418 237.066 612.641C219.194 614.05 198.856 611.166 182.733 604.301C174.907 600.97 167.283 597.102 160.129 592.674C160.264 591.937 160.421 591.176 160.623 590.461C165.108 574.586 185.895 566.536 207.063 572.462C228.209 578.409 241.73 596.095 237.268 611.948Z" fill="#F5CB36"/>
<path d="M169.884 517.368C172.44 520.029 175.109 522.645 177.822 525.104C179.167 526.356 180.58 527.541 181.948 528.726C183.405 529.844 184.751 531.074 186.231 532.125C191.994 536.53 198.093 540.465 204.753 543.148C205.583 543.484 206.39 543.886 207.242 544.154L209.798 544.982C210.651 545.25 211.48 545.563 212.355 545.787L214.956 546.368L217.557 546.949C218.432 547.128 219.329 547.173 220.203 547.307C221.997 547.508 223.656 547.777 225.63 547.911C233.254 548.537 240.9 549.498 248.502 551.242C256.059 553.009 263.706 555.379 270.724 559.895C272.451 561.058 274.155 562.31 275.702 563.808C276.51 564.524 277.205 565.351 277.945 566.156C278.618 567.028 279.335 567.855 279.918 568.817C282.407 572.506 283.798 577.045 283.954 581.428L283.999 583.082C283.999 583.619 283.954 584.155 283.91 584.714C283.887 585.81 283.685 586.839 283.551 587.912C283.371 588.963 283.147 589.969 282.901 591.02C282.542 592.093 282.273 593.211 281.802 594.24C280.053 598.443 277.138 601.976 273.864 604.704C270.567 607.454 266.912 609.489 263.167 611.099C259.423 612.708 255.588 613.871 251.709 614.766C247.852 615.682 243.95 616.264 240.048 616.666C236.147 617.069 232.245 617.27 228.343 617.27C224.441 617.27 220.54 617.113 216.683 616.756C212.803 616.42 208.946 615.928 205.112 615.213C201.277 614.542 197.465 613.692 193.698 612.619C189.931 611.568 186.208 610.294 182.576 608.796C175.423 605.755 168.561 602.378 161.856 598.51C155.196 594.575 148.805 590.17 142.818 585.184C136.809 580.243 131.359 574.563 126.628 568.325L124.857 565.977C124.274 565.195 123.803 564.323 123.264 563.518L121.695 561.036L120.932 559.784C120.686 559.359 120.484 558.912 120.26 558.487C119.363 556.743 118.488 554.976 117.636 553.232C116.918 551.421 116.246 549.565 115.551 547.754C113.039 540.353 111.761 532.595 111.895 524.925C111.895 524.389 112.344 523.964 112.882 523.964C113.331 523.964 113.712 524.277 113.824 524.679V524.702C115.775 531.969 118.107 538.9 121.201 545.451C122.031 547.061 122.883 548.671 123.668 550.281L126.449 554.909C126.673 555.289 126.897 555.692 127.144 556.072L127.929 557.168L129.453 559.381C129.969 560.119 130.44 560.879 131.001 561.572L132.683 563.697C141.518 575.122 153.29 584.155 165.937 591.489C172.306 595.089 179.01 598.287 185.738 601.082C189.056 602.423 192.51 603.541 195.985 604.503C199.461 605.486 203.026 606.291 206.592 606.917C210.18 607.566 213.79 608.035 217.423 608.348C221.055 608.684 224.688 608.818 228.321 608.818C231.953 608.818 235.586 608.639 239.174 608.259C242.762 607.901 246.327 607.342 249.803 606.537C253.279 605.732 256.665 604.681 259.849 603.362C263.033 602.021 266.038 600.366 268.549 598.331C271.061 596.274 273.056 593.837 274.222 591.109C274.559 590.438 274.693 589.701 274.962 589.007C275.142 588.225 275.344 587.398 275.501 586.593C275.613 585.788 275.77 584.983 275.792 584.2C275.815 583.798 275.859 583.395 275.859 583.015L275.837 581.852C275.77 580.31 275.568 578.767 275.097 577.336C274.671 575.882 274.043 574.519 273.191 573.222C272.81 572.551 272.294 571.97 271.823 571.343C271.285 570.762 270.792 570.136 270.186 569.599C269.043 568.459 267.72 567.475 266.329 566.514C260.678 562.78 253.772 560.365 246.731 558.621C239.667 556.877 232.335 555.826 224.957 555.111C223.163 554.976 221.1 554.641 219.172 554.373C218.185 554.216 217.198 554.127 216.234 553.925L213.341 553.232L210.449 552.517C209.507 552.226 208.565 551.891 207.623 551.578L204.82 550.616C203.879 550.303 203.004 549.834 202.085 549.454C187.621 543.171 175.064 532.505 168.18 518.53C167.933 518.039 168.135 517.435 168.651 517.167C169.054 516.965 169.525 517.055 169.839 517.368H169.884Z" fill="#282828"/>
<path d="M332.771 372.277C362.506 496.238 184.325 492.482 184.325 492.482C184.325 492.482 184.302 492.482 184.28 492.482C180.984 492.526 6.41326 495.075 35.8783 372.277C35.8783 372.277 9.70958 312.108 36.282 234.968C44.2649 211.826 70.7476 200.78 93.0146 211.088C113.151 220.434 137.347 235.437 156.833 258.781C156.833 258.781 171.88 256.299 184.325 256.299C196.77 256.299 211.817 258.781 211.817 258.781C231.303 235.437 255.521 220.412 275.635 211.088C297.902 200.758 324.385 211.803 332.368 234.968C358.94 312.108 332.771 372.277 332.771 372.277Z" fill="white"/>
<path d="M332.771 372.277C222.782 352.713 184.325 256.321 184.325 256.321C196.77 256.321 211.817 258.803 211.817 258.803C231.303 235.46 255.521 220.434 275.635 211.11C297.902 200.78 324.385 211.826 332.368 234.99C358.94 312.108 332.771 372.277 332.771 372.277Z" fill="#F5CB36"/>
<path d="M35.8784 372.277C145.845 352.713 184.325 256.321 184.325 256.321C171.88 256.321 156.833 258.803 156.833 258.803C137.347 235.437 113.129 220.434 92.9922 211.088C70.7252 200.758 44.2425 211.803 36.2596 234.968C9.68719 312.108 35.8784 372.277 35.8784 372.277Z" fill="#C5C7C6"/>
<g opacity="0.3">
<path d="M225.518 408.678C225.024 407.001 222.67 406.934 222.042 408.589C220.158 413.553 216.077 420.238 207.758 420.238C194.483 420.238 193.788 406.107 193.788 406.107L184.28 405.369L174.772 406.107C174.772 406.107 174.077 420.238 160.802 420.238C152.46 420.238 148.402 413.575 146.518 408.589C145.89 406.934 143.536 407.001 143.042 408.678C140.374 417.689 138.311 435.152 160.802 438.864C160.802 438.864 174.75 441.39 184.28 433.52C193.81 441.368 207.758 438.864 207.758 438.864C230.272 435.152 228.209 417.689 225.518 408.678Z" fill="#282828"/>
</g>
<path d="M184.325 412.457C193.115 412.457 199.147 407.001 203.049 401.322C206.749 395.911 202.78 388.577 196.21 388.577H184.325H172.418C165.848 388.577 161.878 395.911 165.578 401.322C169.503 407.024 175.535 412.457 184.325 412.457Z" fill="#282828"/>
<path d="M187.554 406.532C187.644 407.471 187.666 408.142 187.688 408.947C187.688 409.707 187.688 410.467 187.644 411.25C187.554 412.77 187.374 414.313 187.038 415.833C186.388 418.874 185.244 421.915 183.361 424.665C182.419 426.029 181.298 427.304 180.042 428.422C178.764 429.54 177.329 430.434 175.826 431.194C172.799 432.648 169.57 433.363 166.453 433.497C165.691 433.497 164.906 433.542 164.143 433.52C163.381 433.475 162.641 433.453 161.878 433.408C160.354 433.274 158.806 433.072 157.282 432.67C154.232 431.932 151.137 430.568 148.603 428.355C146.047 426.186 144.321 423.078 143.715 419.992C143.401 418.449 143.334 416.884 143.468 415.364C143.625 413.843 143.939 412.39 144.59 410.981C144.747 410.668 145.105 410.534 145.442 410.668C145.621 410.758 145.756 410.914 145.801 411.093L145.823 411.16C146.428 413.843 147.191 416.37 148.267 418.516C149.343 420.663 150.711 422.407 152.438 423.726C155.891 426.365 161.094 426.924 166.004 426.566C168.404 426.342 170.646 425.761 172.62 424.799C174.548 423.793 176.163 422.362 177.441 420.573C178.696 418.762 179.616 416.593 180.221 414.246C180.513 413.083 180.759 411.876 180.894 410.646C180.961 410.042 181.029 409.416 181.073 408.812C181.118 408.231 181.141 407.538 181.141 407.091V406.867C181.141 405.078 182.576 403.647 184.37 403.625C186.007 403.625 187.375 404.899 187.554 406.532Z" fill="#282828"/>
<path d="M187.554 407.068C187.554 407.516 187.576 408.209 187.621 408.79C187.666 409.394 187.733 410.02 187.801 410.624C187.935 411.853 188.182 413.061 188.473 414.224C189.079 416.549 189.998 418.718 191.254 420.551C192.532 422.34 194.146 423.771 196.075 424.777C198.026 425.739 200.291 426.32 202.69 426.544C207.601 426.879 212.803 426.342 216.257 423.704C217.983 422.385 219.351 420.641 220.427 418.494C221.526 416.348 222.266 413.821 222.872 411.138L222.894 411.071C222.961 410.735 223.32 410.512 223.656 410.601C223.858 410.646 224.015 410.78 224.082 410.959C224.733 412.368 225.047 413.821 225.204 415.341C225.338 416.862 225.293 418.405 224.957 419.97C224.352 423.078 222.625 426.163 220.069 428.332C217.535 430.546 214.44 431.91 211.391 432.648C209.866 433.05 208.318 433.251 206.794 433.386C206.031 433.453 205.269 433.475 204.529 433.497C203.766 433.497 202.982 433.475 202.219 433.475C199.102 433.341 195.873 432.648 192.846 431.172C191.343 430.412 189.908 429.495 188.63 428.399C187.352 427.281 186.253 426.007 185.311 424.643C183.428 421.893 182.284 418.852 181.634 415.811C181.298 414.291 181.118 412.77 181.028 411.227C180.961 410.467 180.961 409.707 180.984 408.924C181.006 408.142 181.028 407.449 181.118 406.51C181.298 404.743 182.89 403.446 184.661 403.625C186.321 403.782 187.576 405.19 187.576 406.823L187.554 407.068Z" fill="#282828"/>
<path d="M184.19 410.579C187.375 439.691 216.66 427.058 216.66 427.058C216.66 427.058 220.428 465.449 184.28 465.449C148.133 465.449 151.9 427.058 151.9 427.058C151.9 427.058 181.163 439.691 184.37 410.579" fill="#282828"/>
<path d="M184.37 441.882C163.448 441.882 161.497 457.288 161.497 457.288C172.216 467.26 184.37 465.449 184.37 465.449C184.37 465.449 196.524 467.26 207.242 457.288C207.242 457.288 205.269 441.882 184.37 441.882Z" fill="#F490B2"/>
<path d="M184.28 468.4C173.18 468.4 164.435 464.979 158.291 458.227C147.191 446.041 148.873 427.527 148.94 426.745C149.03 425.806 149.568 424.956 150.397 424.486C151.205 424.017 152.214 423.95 153.088 424.33C153.2 424.375 165.601 429.584 173.83 424.799C177.867 422.452 180.356 417.935 181.275 411.339C181.253 411.182 181.23 411.048 181.23 410.892C181.051 409.26 182.239 407.806 183.854 407.627C183.989 407.605 184.123 407.605 184.28 407.605C184.415 407.605 184.549 407.605 184.706 407.627C186.343 407.806 187.509 409.26 187.33 410.892C187.307 411.048 187.307 411.182 187.285 411.339C188.204 417.935 190.716 422.452 194.73 424.799C202.982 429.607 215.36 424.397 215.494 424.33C216.369 423.95 217.355 424.017 218.185 424.509C218.992 424.978 219.53 425.828 219.62 426.767C219.687 427.55 221.369 446.041 210.269 458.249C204.125 464.979 195.38 468.4 184.28 468.4ZM154.77 431.172C154.905 436.717 156.116 447.069 162.708 454.292C167.664 459.725 174.929 462.497 184.28 462.497C193.631 462.497 200.874 459.747 205.852 454.292C212.422 447.092 213.633 436.717 213.79 431.172C208.565 432.67 199.259 434.28 191.77 429.92C188.585 428.064 186.074 425.381 184.302 421.87C182.509 425.381 180.019 428.064 176.835 429.92C169.301 434.28 160.017 432.67 154.77 431.172Z" fill="#282828"/>
<path d="M35.8783 375.05C35.6316 375.05 35.385 375.027 35.1383 374.96C33.6583 374.558 32.7838 373.037 33.1874 371.562C39.3764 349.113 46.8436 336.144 47.1575 335.608C47.9199 334.288 49.6242 333.841 50.9472 334.601C52.2702 335.362 52.7187 337.061 51.9563 338.38C51.889 338.514 44.5115 351.349 38.5467 373.015C38.2104 374.245 37.0892 375.05 35.8783 375.05Z" fill="#282828"/>
<path d="M67.8772 234.521C66.8906 234.051 65.9936 233.38 65.1191 232.665C64.2445 231.927 63.3924 231.122 62.6749 229.982L62.6524 229.937C62.4058 229.557 62.5179 229.042 62.8991 228.797C62.9888 228.729 63.1009 228.707 63.1906 228.685C64.4912 228.439 65.6797 228.528 66.8233 228.685C67.9893 228.841 69.1105 229.065 70.1645 229.49C71.5996 230.049 72.2723 231.681 71.7117 233.09C71.1511 234.521 69.5142 235.191 68.1015 234.632C68.0342 234.61 67.9893 234.588 67.9445 234.565L67.8772 234.521Z" fill="#282828"/>
<path d="M49.5569 336.994C49.5569 336.994 65.2089 302.024 109.115 274.097C112.748 271.794 113.465 266.83 110.64 263.588C102.612 254.353 86.3771 237.763 69.0434 231.994C69.0434 231.994 35.8783 258.199 49.5569 336.994Z" fill="#F490B2"/>
<path d="M49.5569 339.766C49.4448 339.766 49.3327 339.766 49.2205 339.744C48.0096 339.588 47.0454 338.671 46.8212 337.463C33.008 257.976 65.904 230.943 67.3167 229.825C68.0567 229.244 69.0209 229.065 69.9178 229.378C87.857 235.348 104.451 252.229 112.748 261.777C114.609 263.923 115.461 266.763 115.035 269.58C114.631 272.397 113.017 274.879 110.595 276.422C67.9894 303.522 52.2478 337.776 52.0908 338.134C51.6423 339.118 50.6332 339.766 49.5569 339.766ZM69.6936 235.169C64.4912 240.356 42.4261 266.427 51.0145 328.385C58.1004 316.423 75.2547 292.32 107.613 271.749C108.666 271.078 109.362 270.027 109.541 268.775C109.72 267.545 109.362 266.338 108.554 265.399C100.863 256.567 85.794 241.161 69.6936 235.169Z" fill="#282828"/>
<path d="M332.771 375.05C331.56 375.05 330.439 374.245 330.103 373.015C324.138 351.326 316.761 338.514 316.693 338.38C315.931 337.061 316.379 335.362 317.703 334.601C319.026 333.841 320.73 334.288 321.492 335.608C321.806 336.144 329.273 349.135 335.44 371.562C335.843 373.037 334.969 374.558 333.489 374.96C333.265 375.027 333.018 375.05 332.771 375.05Z" fill="#282828"/>
<path d="M298.44 229.49C299.494 229.065 300.638 228.841 301.782 228.685C302.948 228.528 304.136 228.439 305.414 228.685C305.863 228.774 306.154 229.199 306.087 229.646C306.065 229.758 306.02 229.847 305.975 229.937L305.952 229.982C305.212 231.122 304.36 231.927 303.508 232.665C302.634 233.403 301.737 234.051 300.75 234.521L300.683 234.565C299.293 235.236 297.633 234.655 296.983 233.268C296.31 231.882 296.893 230.228 298.283 229.579C298.328 229.534 298.396 229.512 298.44 229.49Z" fill="#282828"/>
<path d="M319.093 336.994C319.093 336.994 303.441 302.024 259.535 274.097C255.902 271.794 255.184 266.83 258.01 263.588C266.038 254.353 282.273 237.785 299.606 232.016C299.606 231.994 332.771 258.199 319.093 336.994Z" fill="#F490B2"/>
<path d="M319.093 339.766C318.016 339.766 317.007 339.14 316.559 338.134C316.402 337.776 300.638 303.522 258.055 276.422C255.655 274.879 254.019 272.397 253.615 269.58C253.211 266.763 254.041 263.923 255.902 261.777C264.199 252.229 280.793 235.348 298.732 229.378C299.629 229.087 300.593 229.244 301.333 229.825C302.746 230.943 335.619 257.953 321.829 337.463C321.627 338.671 320.64 339.588 319.429 339.744C319.317 339.744 319.205 339.766 319.093 339.766ZM298.956 235.169C282.856 241.161 267.787 256.567 260.095 265.399C259.266 266.338 258.907 267.545 259.109 268.775C259.288 270.005 259.983 271.078 261.037 271.749C293.395 292.32 310.527 316.446 317.635 328.385C326.224 266.45 304.181 240.379 298.956 235.169Z" fill="#282828"/>
<g opacity="0.3">
<path d="M35.8783 372.277C35.8783 372.277 29.3977 325.479 74.6717 285.053C90.9963 270.475 87.274 243.934 67.5857 234.342C67.3615 234.23 67.1372 234.118 66.913 234.029L69.0433 232.016C69.0433 232.016 89.0454 238.232 110.64 263.588C110.64 263.588 114.811 269.021 109.115 274.097C109.092 274.074 48.1666 311.773 35.8783 372.277Z" fill="#282828"/>
</g>
<g opacity="0.3">
<path d="M332.771 372.277C332.771 372.277 339.252 325.479 293.978 285.053C277.653 270.475 281.376 243.934 301.064 234.342C301.288 234.23 301.512 234.118 301.737 234.029L299.606 232.016C299.606 232.016 279.604 238.232 258.01 263.588C258.01 263.588 253.839 269.021 259.535 274.097C259.535 274.074 320.483 311.773 332.771 372.277Z" fill="#282828"/>
</g>
<path d="M186.567 495.746C185.424 495.746 184.661 495.746 184.325 495.724C179.414 495.836 85.6147 496.976 46.1709 448.188C30.0705 428.265 25.4736 402.82 32.4923 372.546C29.0614 364.049 8.09506 306.853 33.2099 233.917C37.291 222.089 46.2606 212.474 57.8538 207.577C69.5367 202.614 82.8565 202.837 94.36 208.181C120.192 220.143 141.63 236.019 158.134 255.315C162.574 254.644 174.167 253.079 184.325 253.079C194.483 253.079 206.076 254.644 210.516 255.315C227.02 235.996 248.457 220.143 274.29 208.159C285.793 202.815 299.113 202.591 310.796 207.555C322.389 212.474 331.381 222.066 335.44 233.895C360.555 306.831 339.611 364.027 336.157 372.523C343.176 402.798 338.579 428.243 322.479 448.165C285.748 493.622 201.905 495.746 186.567 495.746ZM75.4342 210.462C70.3215 210.462 65.1864 211.468 60.3877 213.525C50.4763 217.729 42.8073 225.935 39.3316 236.041C13.4992 311.012 38.5916 370.421 38.8383 371.025C39.1074 371.674 39.1747 372.389 39.0177 373.06C32.1335 401.747 36.2371 425.672 51.1939 444.163C88.8661 490.738 183.293 489.307 184.235 489.284C184.28 489.284 184.325 489.284 184.37 489.284C185.312 489.307 279.784 490.715 317.433 444.163C332.39 425.649 336.494 401.747 329.61 373.06C329.453 372.389 329.52 371.674 329.789 371.025C330.036 370.444 355.128 311.012 329.296 236.041C325.82 225.935 318.151 217.729 308.24 213.525C298.239 209.277 286.847 209.478 277.003 214.039C251.417 225.912 230.339 241.653 214.306 260.882C213.566 261.754 212.422 262.179 211.301 262C211.144 261.978 196.367 259.563 184.325 259.563C172.283 259.563 157.506 261.956 157.349 262C156.228 262.179 155.062 261.754 154.344 260.882C138.311 241.653 117.21 225.89 91.6243 214.017C86.5116 211.647 80.9729 210.462 75.4342 210.462Z" fill="#282828"/>
<path d="M362.618 531.745C362.618 531.745 350.015 530.493 348.67 501.917C348.535 499.189 346.629 496.864 343.939 496.238L310.011 488.233C307.343 487.607 304.585 488.815 303.239 491.207C303.172 491.319 303.127 491.431 303.06 491.542C289.09 516.115 277.362 511.644 277.362 511.644C255.969 506.59 284.246 459.211 293.776 448.299C303.306 437.388 317.276 441.547 317.276 441.547L358.447 451.251C358.447 451.251 372.798 453.777 376.408 467.797C380.019 481.816 384.01 536.798 362.618 531.745Z" fill="white"/>
<path d="M314.323 481.251C318.539 480.733 321.536 476.906 321.017 472.702C320.499 468.498 316.66 465.51 312.444 466.027C308.228 466.544 305.231 470.371 305.75 474.575C306.268 478.779 310.107 481.768 314.323 481.251Z" fill="#45CC2E"/>
<path d="M318.734 474.907C318.039 477.836 315.079 479.67 312.141 478.976C309.204 478.283 307.365 475.332 308.06 472.403C308.755 469.474 311.715 467.64 314.653 468.333C317.613 469.026 319.429 471.956 318.734 474.907Z" fill="#282828"/>
<path d="M313.397 482.152C312.747 482.152 312.096 482.084 311.424 481.928C306.849 480.855 304.001 476.271 305.1 471.71C306.177 467.148 310.773 464.309 315.348 465.404C319.922 466.478 322.77 471.061 321.671 475.623C320.775 479.513 317.276 482.152 313.397 482.152ZM313.397 466.813C310.303 466.813 307.477 468.937 306.737 472.067C305.863 475.734 308.15 479.401 311.827 480.273C315.505 481.145 319.182 478.865 320.057 475.198C320.932 471.531 318.644 467.864 314.967 466.992C314.451 466.88 313.935 466.813 313.397 466.813Z" fill="#282828"/>
<path d="M347.459 489.351C351.707 489.351 355.15 485.918 355.15 481.682C355.15 477.446 351.707 474.013 347.459 474.013C343.211 474.013 339.768 477.446 339.768 481.682C339.768 485.918 343.211 489.351 347.459 489.351Z" fill="#45CC2E"/>
<path d="M352.3 484.188C353.683 481.522 352.637 478.244 349.964 476.866C347.291 475.487 344.003 476.53 342.62 479.196C341.238 481.861 342.284 485.139 344.957 486.518C347.63 487.896 350.918 486.853 352.3 484.188Z" fill="#282828"/>
<path d="M347.481 490.179C346.831 490.179 346.158 490.112 345.508 489.955C343.288 489.441 341.405 488.077 340.216 486.154C339.028 484.231 338.646 481.95 339.185 479.737C339.7 477.523 341.068 475.645 342.997 474.46C344.925 473.275 347.212 472.895 349.432 473.431C351.652 473.946 353.536 475.31 354.724 477.232C355.913 479.155 356.294 481.436 355.756 483.65C355.24 485.863 353.872 487.741 351.944 488.926C350.576 489.754 349.051 490.179 347.481 490.179ZM347.459 474.84C346.203 474.84 344.97 475.175 343.871 475.869C342.324 476.83 341.225 478.328 340.799 480.094C340.373 481.861 340.665 483.694 341.629 485.26C342.593 486.802 344.095 487.898 345.867 488.323C347.638 488.748 349.477 488.457 351.047 487.495C352.594 486.534 353.693 485.036 354.119 483.27C354.545 481.503 354.253 479.67 353.289 478.104C352.325 476.562 350.823 475.466 349.051 475.041C348.513 474.907 347.975 474.84 347.459 474.84Z" fill="#282828"/>
<g opacity="0.3">
<path d="M353.67 496.618C353.514 493.465 351.294 490.782 348.221 490.044L339.207 487.92C338.377 481.302 332.48 475.22 324.25 473.297C314.944 471.106 305.93 474.974 303.082 482.04C302.32 482.621 301.647 483.359 301.154 484.231C286.444 510.369 273.841 508.558 271.576 507.977C272.832 509.743 274.716 511.04 277.362 511.666C277.362 511.666 289.09 516.138 303.06 491.543C303.127 491.431 303.172 491.319 303.239 491.207C303.531 490.693 303.912 490.223 304.315 489.821C305.549 488.636 307.208 487.987 308.935 488.099C308.957 488.099 308.98 488.099 309.002 488.099C309.338 488.122 309.675 488.166 310.011 488.256L326.986 492.258L343.961 496.26C346.629 496.886 348.558 499.212 348.67 501.94C350.015 530.515 362.618 531.767 362.618 531.767C365.264 532.393 367.528 532.103 369.457 531.074C367.17 530.56 355.106 526.557 353.67 496.618Z" fill="#282828"/>
</g>
<g opacity="0.3">
<path d="M309.854 440.787C309.854 440.787 311.558 460.396 333.848 466.813C356.115 473.23 369.771 457.556 369.771 457.556L365.824 454.135C365.824 454.135 330.708 479.401 316.469 439.445L309.854 440.787Z" fill="#282828"/>
</g>
<path d="M326.308 464.772C327.668 464.446 328.507 463.082 328.18 461.725C327.853 460.368 326.485 459.533 325.124 459.859C323.763 460.185 322.925 461.549 323.252 462.906C323.579 464.262 324.947 465.098 326.308 464.772Z" fill="#282828"/>
<path d="M339.073 465.471C338.759 466.835 339.588 468.177 340.956 468.512C342.324 468.825 343.669 467.998 344.006 466.634C344.32 465.27 343.49 463.929 342.122 463.593C340.754 463.258 339.386 464.108 339.073 465.471Z" fill="#282828"/>
<path d="M330.058 484.141C329.677 484.141 329.296 484.097 328.937 484.007C327.681 483.717 326.605 482.934 325.91 481.838C325.237 480.743 325.013 479.446 325.304 478.171C325.596 476.919 326.381 475.846 327.479 475.153C328.578 474.46 329.879 474.259 331.157 474.549C333.758 475.153 335.395 477.791 334.767 480.385C334.476 481.637 333.691 482.71 332.592 483.404C331.83 483.895 330.955 484.141 330.058 484.141ZM330.036 476.539C329.52 476.539 329.027 476.673 328.601 476.942C327.973 477.322 327.524 477.926 327.367 478.641C327.188 479.357 327.322 480.094 327.704 480.72C328.085 481.347 328.69 481.771 329.408 481.95C330.125 482.129 330.865 481.995 331.493 481.615C332.121 481.235 332.57 480.631 332.727 479.916C332.906 479.2 332.771 478.462 332.39 477.836C332.009 477.21 331.404 476.785 330.686 476.606C330.462 476.584 330.26 476.539 330.036 476.539Z" fill="#282828"/>
<path d="M367.833 465.524C368.589 463.657 367.685 461.533 365.813 460.779C363.942 460.025 361.811 460.927 361.055 462.793C360.299 464.659 361.203 466.784 363.075 467.538C364.947 468.292 367.077 467.39 367.833 465.524Z" fill="#282828"/>
<path d="M363.191 480.727C364.909 479.669 365.441 477.424 364.381 475.711C363.32 473.998 361.068 473.467 359.35 474.525C357.632 475.582 357.1 477.828 358.16 479.541C359.221 481.253 361.473 481.784 363.191 480.727Z" fill="#282828"/>
<path d="M359.258 470.946C360.006 469.077 359.093 466.956 357.219 466.21C355.344 465.463 353.217 466.374 352.469 468.243C351.72 470.113 352.633 472.233 354.508 472.979C356.383 473.726 358.509 472.815 359.258 470.946Z" fill="#282828"/>
<path d="M373.202 473.677C372.731 475.622 370.78 476.83 368.807 476.383C366.856 475.913 365.645 473.968 366.093 472C366.564 470.055 368.515 468.848 370.489 469.295C372.462 469.787 373.673 471.732 373.202 473.677Z" fill="#282828"/>
<path d="M325.17 456.662L320.192 455.499C319.384 455.298 318.891 454.493 319.07 453.688L319.452 452.056C319.653 451.251 320.461 450.759 321.268 450.938L326.246 452.1C327.053 452.302 327.547 453.107 327.367 453.912L326.986 455.544C326.784 456.349 325.977 456.863 325.17 456.662Z" fill="#282828"/>
<path d="M344.566 461.245L349.545 462.408C350.352 462.609 351.159 462.095 351.361 461.29L351.742 459.658C351.944 458.853 351.428 458.048 350.621 457.847L345.643 456.684C344.836 456.483 344.028 456.997 343.826 457.802L343.445 459.434C343.266 460.239 343.759 461.044 344.566 461.245Z" fill="#282828"/>
<path d="M312.276 456.885L308.666 456.036C307.881 455.857 307.387 455.074 307.589 454.292L308.441 450.692C308.621 449.909 308.15 449.127 307.365 448.948L304.674 448.322C303.889 448.143 303.105 448.612 302.925 449.395L302.073 452.995C301.894 453.777 301.109 454.269 300.324 454.068L296.714 453.218C295.929 453.039 295.144 453.509 294.965 454.292L294.337 456.975C294.157 457.757 294.628 458.54 295.413 458.719L299.023 459.568C299.808 459.747 300.302 460.53 300.1 461.312L299.248 464.912C299.068 465.695 299.539 466.478 300.324 466.656L303.015 467.282C303.8 467.461 304.584 466.992 304.764 466.209L305.616 462.609C305.795 461.827 306.58 461.335 307.365 461.536L310.975 462.386C311.76 462.565 312.545 462.095 312.724 461.312L313.352 458.629C313.532 457.847 313.061 457.064 312.276 456.885Z" fill="#282828"/>
<path d="M319.967 442.218L320.483 440.049C320.73 439.042 320.124 438.059 319.138 437.768C315.595 436.784 307.32 435.174 299.674 438.841C298.911 439.199 298.485 440.026 298.62 440.854L299.046 443.447C299.046 443.47 308.217 438.126 319.967 442.218Z" fill="#282828"/>
<path d="M355.711 450.647L356.227 448.478C356.473 447.472 357.438 446.846 358.447 447.047C362.057 447.74 370.197 449.999 375.377 456.706C375.893 457.377 375.893 458.294 375.399 458.987L373.852 461.111C373.852 461.111 368.044 452.234 355.711 450.647Z" fill="#282828"/>
<path d="M365.241 534.339C364.255 534.339 363.223 534.227 362.192 533.981C360.353 533.69 347.751 530.627 346.383 502.029C346.293 500.33 345.082 498.854 343.423 498.452L326.448 494.449L309.473 490.447C307.814 490.045 306.064 490.827 305.212 492.303C291.153 517.278 278.483 514.372 276.734 513.813C272.384 512.762 269.379 510.034 268.056 505.942C262.921 490 284.717 455.186 292.049 446.801C302.185 435.219 316.559 438.976 317.837 439.333L358.895 449.015C360.196 449.261 374.749 452.324 378.606 467.216C381.387 477.993 385.243 518.866 373.493 530.806C371.184 533.154 368.381 534.339 365.241 534.339ZM327.502 490.045L344.477 494.047C348.109 494.897 350.778 498.094 350.957 501.828C352.191 527.72 362.752 529.487 362.864 529.509C362.954 529.509 363.066 529.531 363.156 529.554C366.049 530.247 368.291 529.621 370.242 527.653C379.593 518.15 377.552 481.369 374.211 468.378C371.004 455.991 358.581 453.599 358.043 453.509C357.998 453.509 357.953 453.487 357.931 453.487L316.761 443.783C316.716 443.783 316.671 443.76 316.626 443.738C316.11 443.582 303.934 440.161 295.503 449.82C286.668 459.926 268.325 491.923 272.429 504.578C273.281 507.217 275.03 508.759 277.9 509.453C277.99 509.475 278.102 509.497 278.191 509.542C278.259 509.564 288.551 512.695 301.266 490.112C303.104 486.869 306.917 485.193 310.549 486.042L327.502 490.045Z" fill="#282828"/>
<path d="M373.852 461.111C369.973 456.371 366.049 454.247 365.802 454.135H365.779C349.701 467.596 334.834 462.565 324.878 455.611C311.603 446.309 314.451 425.918 329.946 421.088C334.947 419.523 341.36 419.232 349.567 421.177C349.993 421.289 350.419 421.379 350.845 421.513C383.472 430.009 373.852 461.111 373.852 461.111Z" fill="white"/>
<g opacity="0.3">
<path d="M373.852 461.111L365.802 454.135H365.779C365.779 454.135 373.628 435.465 350.845 421.49C383.472 430.009 373.852 461.111 373.852 461.111Z" fill="#282828"/>
</g>
<path d="M324.34 457.243C324.093 455.32 324.183 453.599 324.362 451.81C324.564 450.021 324.923 448.255 325.439 446.533C325.955 444.789 326.694 443.09 327.614 441.502C328.601 439.937 329.789 438.461 331.314 437.366C331.628 437.142 332.054 437.209 332.278 437.522C332.39 437.679 332.435 437.88 332.39 438.059V438.103C332.031 439.825 331.695 441.368 331.448 442.933C331.202 444.498 331.022 446.063 330.843 447.629C330.708 449.194 330.596 450.781 330.484 452.346C330.372 453.889 330.305 455.566 330.148 456.997L330.125 457.176C329.968 458.764 328.533 459.926 326.941 459.77C325.551 459.636 324.497 458.562 324.34 457.243Z" fill="#282828"/>
<path d="M346.315 462.431C346.069 460.508 346.158 458.786 346.338 456.997C346.54 455.208 346.898 453.442 347.414 451.72C347.93 449.976 348.67 448.277 349.589 446.69C350.576 445.124 351.764 443.649 353.289 442.553C353.603 442.329 354.029 442.397 354.254 442.71C354.366 442.866 354.41 443.067 354.366 443.246V443.291C354.007 445.013 353.67 446.555 353.424 448.121C353.177 449.686 352.998 451.251 352.818 452.816C352.684 454.381 352.572 455.969 352.46 457.534C352.347 459.077 352.28 460.754 352.123 462.185L352.101 462.364C351.944 463.951 350.509 465.114 348.917 464.957C347.526 464.823 346.472 463.75 346.315 462.431Z" fill="#282828"/>
<path d="M344.858 465.852C336.359 465.852 328.847 462.296 323.039 458.227C315.796 453.151 312.119 444.588 313.487 435.912C314.81 427.416 320.752 420.551 329.004 417.98C335.059 416.079 342.234 416.102 350.329 418.002C361.564 420.663 369.591 426.052 374.188 434.034C381.543 446.824 377.148 461.447 376.947 462.073C376.588 463.213 375.646 464.063 374.48 464.286C373.314 464.51 372.103 464.085 371.341 463.146C369.367 460.709 367.372 459.054 366.004 458.093C358.581 463.75 351.428 465.852 344.858 465.852ZM338.871 423.033C335.978 423.033 333.332 423.413 330.933 424.151C324.968 426.007 320.842 430.792 319.878 436.918C318.913 443.157 321.537 449.306 326.762 452.95C339.543 461.916 351.989 461.469 363.716 451.653C364.726 450.826 366.116 450.669 367.282 451.251C367.394 451.318 369.278 452.302 371.767 454.381C372.193 449.775 371.946 443.112 368.538 437.187C364.882 430.837 358.245 426.499 348.849 424.285C345.261 423.436 341.943 423.033 338.871 423.033Z" fill="#282828"/>
<path d="M334.706 492.71C336.108 486.798 330.855 480.498 322.972 478.64C315.09 476.781 307.563 480.068 306.161 485.981C304.759 491.894 310.013 498.193 317.895 500.052C325.777 501.91 333.304 498.623 334.706 492.71Z" fill="white"/>
<g opacity="0.3">
<path d="M321.223 486.042C327.367 487.495 331.919 491.654 332.951 496.216C333.78 495.187 334.408 494.047 334.722 492.75C336.113 486.847 330.865 480.542 322.972 478.686C315.079 476.83 307.567 480.117 306.154 486.02C305.84 487.316 305.885 488.636 306.177 489.91C309.137 486.288 315.056 484.589 321.223 486.042Z" fill="#282828"/>
</g>
<path d="M322.232 503.818C320.573 503.818 318.869 503.617 317.142 503.214C312.657 502.163 308.71 499.815 306.042 496.618C303.149 493.152 302.073 489.128 302.992 485.259C304.809 477.635 314.092 473.252 323.712 475.533C333.332 477.791 339.678 485.863 337.862 493.488C336.382 499.748 329.856 503.818 322.232 503.818ZM318.599 481.391C314.003 481.391 310.078 483.493 309.316 486.757C308.867 488.613 309.495 490.648 311.043 492.504C312.814 494.628 315.527 496.193 318.644 496.931C324.676 498.362 330.596 496.104 331.56 491.99C332.525 487.898 328.264 483.225 322.232 481.816C320.999 481.525 319.765 481.391 318.599 481.391Z" fill="#282828"/>
<path d="M184.325 224.392C117.098 224.392 97.6788 257.193 97.6788 257.193L112.12 266.338C112.12 266.338 134.207 241.206 184.325 241.206C234.442 241.206 256.53 266.338 256.53 266.338L270.971 257.193C270.971 257.193 251.552 224.392 184.325 224.392Z" fill="#C5C7C6"/>
<g opacity="0.3">
<path d="M262.562 255.807C259.154 257.953 254.759 257.685 251.619 255.158C242.627 247.936 220.966 234.498 184.302 234.498C147.662 234.498 126 247.936 116.986 255.158C113.846 257.685 109.451 257.953 106.043 255.807L101.132 252.699C98.6878 255.426 97.6339 257.193 97.6339 257.193L112.075 266.338C112.075 266.338 134.163 241.206 184.28 241.206C234.398 241.206 256.485 266.338 256.485 266.338L270.926 257.193C270.926 257.193 269.872 255.426 267.428 252.699L262.562 255.807Z" fill="#282828"/>
</g>
<g opacity="0.7">
<path d="M184.325 229.981C237.358 229.981 260.634 250.396 268.101 259.004L270.971 257.193C270.971 257.193 251.552 224.392 184.325 224.392C117.098 224.392 97.6564 257.193 97.6564 257.193L100.527 259.004C108.016 250.396 131.292 229.981 184.325 229.981Z" fill="white"/>
</g>
<path d="M256.53 269.558C255.633 269.558 254.736 269.178 254.086 268.462C253.884 268.239 232.178 244.426 184.303 244.426C136.427 244.426 114.766 268.239 114.542 268.484C113.488 269.67 111.716 269.915 110.371 269.066L95.9297 259.921C94.4498 258.982 93.9789 257.059 94.8758 255.561C95.7055 254.152 116.022 221.172 184.325 221.172C252.628 221.172 272.944 254.152 273.774 255.561C274.671 257.059 274.2 259.004 272.72 259.921L258.279 269.066C257.719 269.401 257.136 269.558 256.53 269.558ZM184.325 237.986C227.558 237.986 250.453 256.075 257.001 262.224L266.307 256.343C260.118 248.92 237.672 227.634 184.325 227.634C131.001 227.634 108.554 248.92 102.343 256.343L111.649 262.224C118.197 256.053 141.092 237.986 184.325 237.986Z" fill="#282828"/>
<path d="M37.2239 321.119C37.2239 321.119 13.2751 285.858 37.7845 259.653C66.0162 229.467 98.5309 259.519 98.5309 259.519L37.2239 321.119Z" fill="#9604CF"/>
<g opacity="0.7">
<path d="M35.542 266.361C59.1768 241.094 85.7941 258.02 93.8443 264.214L98.5309 259.519C98.5309 259.519 66.0162 229.467 37.7844 259.653C32.3578 265.444 29.3306 271.682 27.8506 277.876C29.5997 273.94 32.0887 270.072 35.542 266.361Z" fill="white"/>
</g>
<path d="M37.2238 324.361C37.1341 324.361 37.022 324.361 36.9323 324.339C35.9681 324.249 35.0935 323.735 34.5554 322.93C34.3087 322.55 9.46296 285.209 35.4299 257.461C65.5228 225.286 100.392 256.835 100.751 257.171C101.401 257.774 101.76 258.602 101.782 259.474C101.805 260.346 101.468 261.195 100.841 261.821L39.5335 323.399C38.9056 324.003 38.0759 324.361 37.2238 324.361ZM66.3525 249.412C58.0332 249.412 48.8843 252.52 40.1613 261.844C21.9307 281.319 32.9408 306.742 37.8741 315.864L93.7322 259.742C89.068 256.165 78.596 249.412 66.3525 249.412Z" fill="#282828"/>
<path d="M57.1363 328.028C67.2495 313.45 83.2826 294.153 106.693 275.796C114.093 269.983 112.344 258.356 103.621 254.845L100.751 253.705C97.7685 252.52 94.4497 252.52 91.4898 253.75C78.7754 259.071 44.6237 276.892 35.116 318.145C34.6451 320.18 34.6675 322.304 35.2281 324.316C38.0087 334.289 51.2164 336.547 57.1363 328.028Z" fill="white"/>
<g opacity="0.3">
<path d="M104.541 255.315C104.832 259.116 103.374 263.051 99.9436 265.734C76.533 284.091 60.5223 303.388 50.3867 317.966C46.6195 323.377 39.9147 324.428 34.8245 321.901C34.8917 322.706 35.0039 323.511 35.2281 324.316C38.0311 334.288 51.2164 336.547 57.1363 328.028C67.2495 313.449 83.2826 294.153 106.693 275.796C113.802 270.228 112.434 259.25 104.541 255.315Z" fill="#282828"/>
</g>
<path d="M47.1353 336.524C46.2607 336.524 45.3862 336.457 44.5117 336.301C38.502 335.295 33.7482 331.046 32.1112 325.188C31.4161 322.706 31.3488 320.023 31.9542 317.429C41.6862 275.192 75.95 256.746 90.2117 250.776C93.9565 249.211 98.1273 249.188 101.939 250.709L104.81 251.849C110.012 253.929 113.6 258.49 114.407 264.057C115.192 269.558 113.062 274.902 108.689 278.345C84.8748 297.015 68.9538 316.669 59.8048 329.861C56.8448 334.11 52.1582 336.524 47.1353 336.524ZM96.1316 256.053C94.9655 256.053 93.8219 256.276 92.7231 256.746C79.3585 262.336 47.3146 279.552 38.2554 318.883C37.8966 320.426 37.919 322.013 38.3451 323.466C39.3093 326.932 42.0226 329.347 45.588 329.951C49.131 330.554 52.4497 329.146 54.4679 326.217C63.8859 312.644 80.233 292.454 104.675 273.292C107.209 271.302 108.442 268.216 107.994 264.996C107.523 261.754 105.438 259.094 102.388 257.886L99.5176 256.746C98.4188 256.276 97.2752 256.053 96.1316 256.053Z" fill="#282828"/>
<path d="M331.426 321.119C331.426 321.119 355.375 285.858 330.866 259.653C302.634 229.467 270.119 259.519 270.119 259.519L331.426 321.119Z" fill="#9604CF"/>
<g opacity="0.7">
<path d="M333.085 266.361C309.451 241.094 282.833 258.02 274.783 264.214L270.097 259.519C270.097 259.519 302.611 229.467 330.843 259.653C336.27 265.444 339.297 271.682 340.777 277.876C339.05 273.94 336.539 270.072 333.085 266.361Z" fill="white"/>
</g>
<path d="M331.426 324.361C330.574 324.361 329.744 324.025 329.116 323.399L267.809 261.799C267.181 261.173 266.845 260.323 266.868 259.451C266.89 258.579 267.249 257.752 267.899 257.148C268.258 256.835 303.127 225.264 333.22 257.439C359.187 285.209 334.364 322.55 334.095 322.907C333.556 323.712 332.682 324.227 331.718 324.316C331.605 324.338 331.516 324.361 331.426 324.361ZM274.873 259.742L330.776 315.887C335.799 306.786 346.921 281.565 328.466 261.844C306.827 238.724 282.744 253.727 274.873 259.742Z" fill="#282828"/>
<path d="M311.514 328.028C301.4 313.45 285.367 294.153 261.957 275.796C254.557 269.983 256.306 258.356 265.029 254.845L267.899 253.705C270.881 252.52 274.2 252.52 277.16 253.75C289.874 259.071 324.026 276.892 333.534 318.145C334.005 320.18 333.982 322.304 333.422 324.316C330.619 334.289 317.433 336.547 311.514 328.028Z" fill="white"/>
<g opacity="0.3">
<path d="M264.109 255.315C263.818 259.116 265.275 263.051 268.706 265.734C292.117 284.092 308.128 303.388 318.263 317.966C322.03 323.377 328.735 324.428 333.825 321.901C333.758 322.706 333.646 323.511 333.422 324.316C330.619 334.289 317.433 336.547 311.514 328.028C301.4 313.45 285.367 294.153 261.957 275.796C254.848 270.229 256.216 259.25 264.109 255.315Z" fill="#282828"/>
</g>
<path d="M321.515 336.524C316.492 336.524 311.805 334.11 308.868 329.884C299.696 316.692 283.775 297.038 259.983 278.368C255.611 274.947 253.48 269.603 254.265 264.08C255.073 258.535 258.66 253.973 263.863 251.872L266.733 250.731C270.545 249.211 274.693 249.233 278.438 250.798C292.722 256.768 326.986 275.215 336.696 317.452C337.301 320.046 337.234 322.729 336.539 325.211C334.902 331.046 330.148 335.317 324.138 336.323C323.264 336.457 322.389 336.524 321.515 336.524ZM272.518 256.053C271.375 256.053 270.231 256.276 269.132 256.724L266.262 257.864C263.212 259.071 261.127 261.732 260.656 264.974C260.185 268.172 261.441 271.28 263.975 273.27C288.417 292.454 304.764 312.645 314.182 326.194C316.223 329.123 319.541 330.532 323.062 329.928C326.627 329.325 329.318 326.91 330.305 323.444C330.709 321.991 330.731 320.403 330.395 318.86C321.335 279.53 289.291 262.313 275.927 256.724C274.828 256.276 273.684 256.053 272.518 256.053Z" fill="#282828"/>
<path d="M184.773 395.531C189.133 395.531 192.667 394.6 192.667 393.451C192.667 392.303 189.133 391.372 184.773 391.372C180.414 391.372 176.88 392.303 176.88 393.451C176.88 394.6 180.414 395.531 184.773 395.531Z" fill="white"/>
<path d="M134.544 393.452C146.086 393.452 155.443 382.68 155.443 369.393C155.443 356.105 146.086 345.334 134.544 345.334C123.001 345.334 113.645 356.105 113.645 369.393C113.645 382.68 123.001 393.452 134.544 393.452Z" fill="#282828"/>
<path d="M140.217 371.025C143.982 371.025 147.034 367.181 147.034 362.439C147.034 357.697 143.982 353.853 140.217 353.853C136.452 353.853 133.4 357.697 133.4 362.439C133.4 367.181 136.452 371.025 140.217 371.025Z" fill="white"/>
<g opacity="0.2">
<path d="M126.763 383.323C128.843 383.323 130.53 380.72 130.53 377.509C130.53 374.299 128.843 371.696 126.763 371.696C124.682 371.696 122.995 374.299 122.995 377.509C122.995 380.72 124.682 383.323 126.763 383.323Z" fill="white"/>
</g>
<path d="M229.913 393.452C241.455 393.452 250.812 382.68 250.812 369.393C250.812 356.105 241.455 345.334 229.913 345.334C218.371 345.334 209.014 356.105 209.014 369.393C209.014 382.68 218.371 393.452 229.913 393.452Z" fill="#282828"/>
<path d="M224.239 371.025C228.004 371.025 231.056 367.181 231.056 362.439C231.056 357.697 228.004 353.853 224.239 353.853C220.475 353.853 217.423 357.697 217.423 362.439C217.423 367.181 220.475 371.025 224.239 371.025Z" fill="white"/>
<g opacity="0.2">
<path d="M237.694 383.323C239.774 383.323 241.461 380.72 241.461 377.509C241.461 374.299 239.774 371.696 237.694 371.696C235.613 371.696 233.927 374.299 233.927 377.509C233.927 380.72 235.613 383.323 237.694 383.323Z" fill="white"/>
</g>
</g>
</g>
<defs>
<clipPath id="clip0_114_467">
<rect width="746" height="624" fill="white"/>
</clipPath>
<clipPath id="clip1_114_467">
<rect width="746" height="420" fill="white" transform="translate(0 204)"/>
</clipPath>
</defs>
</svg>
