<svg width="188" height="37" viewBox="0 0 188 37" fill="none" xmlns="http://www.w3.org/2000/svg">
<path fill-rule="evenodd" clip-rule="evenodd" d="M182.7 0.300049C183.4 0.300049 184.2 0.500049 184.9 0.900049C185.6 1.30005 186.1 1.80005 186.5 2.50005C186.9 3.20005 187.1 3.90005 187.1 4.70005C187.1 5.50005 186.9 6.20005 186.5 6.90005C186.1 7.60005 185.6 8.10005 184.9 8.50005C184.2 8.90005 183.5 9.10005 182.7 9.10005C181.9 9.10005 181.2 8.90005 180.5 8.50005C179.8 8.10005 179.3 7.60005 178.9 6.90005C178.5 6.20005 178.3 5.50005 178.3 4.70005C178.3 3.90005 178.5 3.20005 178.9 2.50005C179.3 1.80005 179.8 1.30005 180.5 0.900049C181.2 0.500049 182 0.300049 182.7 0.300049ZM182.7 1.10005C182.1 1.10005 181.5 1.30005 180.9 1.60005C180.3 1.90005 179.9 2.40005 179.5 3.00005C179.2 3.60005 179 4.20005 179 4.80005C179 5.40005 179.2 6.00005 179.5 6.60005C179.8 7.20005 180.3 7.60005 180.9 8.00005C181.5 8.30005 182.1 8.50005 182.7 8.50005C183.3 8.50005 183.9 8.30005 184.5 8.00005C185.1 7.70005 185.5 7.20005 185.9 6.60005C186.3 6.00005 186.4 5.40005 186.4 4.80005C186.4 4.20005 186.2 3.60005 185.9 3.00005C185.6 2.40005 185.1 2.00005 184.5 1.60005C183.9 1.20005 183.3 1.10005 182.7 1.10005ZM180.8 7.20005V2.40005H182.4C183 2.40005 183.4 2.40005 183.6 2.50005C183.8 2.60005 184 2.70005 184.2 3.00005C184.3 3.20005 184.4 3.40005 184.4 3.70005C184.4 4.00005 184.3 4.30005 184 4.60005C183.8 4.90005 183.4 5.00005 183 5.00005C183.2 5.10005 183.3 5.20005 183.4 5.30005C183.6 5.50005 183.8 5.80005 184.1 6.20005L184.7 7.10005H183.8L183.4 6.40005C183.1 5.80005 182.8 5.40005 182.6 5.30005C182.5 5.20005 182.3 5.10005 182 5.10005H181.6V7.10005H180.8V7.20005ZM181.5 4.50005H182.4C182.8 4.50005 183.1 4.40005 183.3 4.30005C183.5 4.20005 183.5 4.00005 183.5 3.80005C183.5 3.70005 183.5 3.50005 183.4 3.40005C183.3 3.30005 183.2 3.20005 183.1 3.20005C183 3.10005 182.7 3.10005 182.3 3.10005H181.4V4.50005H181.5Z" fill="#C5C7C6"/>
<path fill-rule="evenodd" clip-rule="evenodd" d="M98 0.1H98.1V10.2H88V0.1H98ZM53.6 21.4L77.2 22.9C78.2 22.9 79 23.7 79 24.7C79 25.7 78.2 26.5 77.2 26.5H43.6V13.3C44.6 17.3 48.2 20.7 53.6 21.4ZM43.6 36.6H78C83 36.6 87.2 33 88.1 28.2C88.9 32.9 93.1 36.6 98 36.6H120C124.9 36.6 129 33 129.9 28.4V36.6H165.1C170.8 36.6 175.4 31.9 175.4 26.3V24.8C175.4 19.1 170.7 14.5 165.1 14.5L163.2 14.4C152.2 13.9 141.3 13.4 130.4 12.8C131.3 17.1 134.9 20.7 140.5 21.4L164.4 22.9C165.4 22.9 166.2 23.7 166.2 24.7C166.2 25.7 165.4 26.5 164.4 26.5H130V12.8L119.8 12.3V24C119.8 25.6 118.5 27 116.8 27H101.1C99.5 27 98.1 25.7 98.1 24V11.1L88 10.6V22.2C86.8 17.8 82.8 14.6 78 14.6L33.1 11.7V36.6H42.8H43.6ZM86.4 10.2V0H53.6C48.8 0 44.7 3.4 43.6 7.9V0.1H24.1L17.4 10.2H43.3H86.4ZM28.7 11.4L12.6 36.6H0L17 10.8L28.7 11.4ZM175.4 10.2V0H140.5C134.9 0 130.3 4.5 130.2 10.1L175.4 10.2ZM119.8 10.1V0.1H119.9H130V10.2H119.8V10.1Z" fill="#C5C7C6"/>
</svg>
