<svg width="171" height="37" viewBox="0 0 171 37" fill="none" xmlns="http://www.w3.org/2000/svg">
<path d="M164.118 0.602025H162.862V0.0546875H165.975V0.602025H164.665V4.15972H164.118V0.602025Z" fill="#C5C7C6"/>
<path d="M166.522 0.0546875H167.505L168.761 3.44818L170.017 0.0546875H171V4.15972H170.399V0.602025L169.034 4.15972H168.488L167.122 0.602025V4.15972H166.522V0.0546875Z" fill="#C5C7C6"/>
<path d="M31.2399 0H25.4507V21.6746H31.2399V0Z" fill="#C5C7C6"/>
<path d="M65.4289 0H72.5289L80.885 21.784H74.5497L72.9112 17.1317H64.7735L63.0805 21.784H57.182L65.4289 0ZM68.9789 4.48817H68.9243L66.1389 13.0266H71.6004L68.9789 4.48817Z" fill="#C5C7C6"/>
<path d="M83.725 0H93.7196C97.7611 0 100.765 1.75148 100.765 5.52811C100.765 8.26479 99.3449 9.79734 96.9419 10.6183V10.6731C99.8365 11.2751 101.311 12.8077 101.311 15.4896C101.311 20.6894 96.7234 21.784 92.8457 21.784H83.6704V0M89.5142 17.679H91.2073C93.3373 17.679 95.5219 17.3506 95.5219 15.1612C95.5219 12.8077 93.228 12.5888 91.2619 12.5888H89.4596V17.679M89.5142 8.64793H91.1527C93.0642 8.64793 95.0303 8.15533 95.0303 6.34911C95.0303 4.32396 93.1734 4.15976 91.2073 4.15976H89.5142V8.64793Z" fill="#C5C7C6"/>
<path d="M109.23 13.6287L101.202 0H107.865L112.125 8.7574L116.33 0H122.993L115.019 13.6287V21.8388H109.23V13.6287Z" fill="#C5C7C6"/>
<path d="M130.749 4.32396H125.396V0H141.89V4.32396H136.538V21.8388H130.749V4.32396Z" fill="#C5C7C6"/>
<path d="M144.675 0H159.968V4.15976H150.465V8.64793H159.476V12.753H150.465V17.679H160.35V21.8388H144.675V0Z" fill="#C5C7C6"/>
<path d="M12.2884 4.76179C8.41074 5.09019 6.28074 7.66267 6.28074 10.9467C6.28074 14.1213 9.22996 16.8032 12.07 16.8032H12.6707H13.7084C13.7084 16.8032 14.4184 16.8032 14.4184 16.1464V9.24995H20.3715C20.3715 13.136 20.3715 21.784 20.3715 21.784C20.3715 21.784 14.473 21.784 11.0869 21.784C4.75152 21.784 0.163849 16.4748 0.163849 10.9467C0.163849 4.92599 5.13383 -0.109515 11.3053 0.10942H20.2076V4.76179H12.2884Z" fill="#C5C7C6"/>
<path d="M46.6959 4.76183C42.8729 5.09024 40.7429 7.66272 40.7429 10.9467C40.7429 14.1213 43.6921 16.8033 46.5321 16.8033H47.1329H48.1705C48.1705 16.8033 48.8805 16.8033 48.8805 16.1464V9.25H54.8336C54.8336 13.1361 54.8336 21.784 54.8336 21.784C54.8336 21.784 48.9898 21.784 45.549 21.784C39.1591 21.784 34.5714 16.4748 34.5714 10.892C34.5714 4.8713 39.5414 -0.164203 45.7675 0.0547324L54.6698 0.109466V4.76183H46.6959Z" fill="#C5C7C6"/>
<path d="M2.18461 30.4866H0V29.2825H5.84382V30.4866H3.65921V36.8357H2.18461V30.4866Z" fill="#C5C7C6"/>
<path d="M16.7122 29.2825H21.1907V30.4866H18.2414V32.3476H20.9176V33.5517H18.2414V35.6316H21.1907V36.8357H16.7122V29.2825Z" fill="#C5C7C6"/>
<path d="M38.176 36.7264C37.6298 36.8359 37.0291 36.9453 36.4829 36.9453C34.0252 36.9453 32.3322 35.7412 32.3322 33.1687C32.3322 30.5962 33.916 29.1184 36.4829 29.1184C36.9744 29.1184 37.6298 29.2279 38.176 29.4468L38.0667 30.7057C37.5206 30.3773 36.9744 30.3226 36.4283 30.3226C34.8991 30.3226 33.916 31.5267 33.916 33.0592C33.916 34.5918 34.8445 35.7412 36.4829 35.7412C37.0837 35.7412 37.7937 35.6317 38.1214 35.4128L38.176 36.7264Z" fill="#C5C7C6"/>
<path d="M49.2083 29.2825H50.7375V32.3476H53.7413V29.2825H55.2705V36.8357H53.7413V33.5517H50.7375V36.8357H49.2083V29.2825Z" fill="#C5C7C6"/>
<path d="M66.8489 29.2825H68.7059L71.6005 34.92V29.2825H73.0751V36.8357H71.2181L68.3235 31.1982V36.8357H66.8489V29.2825Z" fill="#C5C7C6"/>
<path d="M87.985 29.1731C90.3334 29.1731 91.6988 30.7604 91.6988 33.0592C91.6988 35.358 90.3881 37 87.985 37C85.5819 37 84.2712 35.4127 84.2712 33.0592C84.2712 30.7056 85.5819 29.1731 87.985 29.1731ZM87.985 35.7959C89.5142 35.7959 90.115 34.4275 90.115 33.0592C90.115 31.7456 89.5142 30.3772 87.985 30.3772C86.5104 30.3772 85.855 31.7456 85.855 33.0592C85.855 34.4275 86.4558 35.7959 87.985 35.7959Z" fill="#C5C7C6"/>
<path d="M103.004 29.2825H104.533V35.6316H107.428V36.8357H103.004V29.2825Z" fill="#C5C7C6"/>
<path d="M121.683 29.1731C124.031 29.1731 125.396 30.7604 125.396 33.0592C125.396 35.358 124.086 37 121.683 37C119.279 37 117.969 35.4127 117.969 33.0592C117.969 30.7056 119.225 29.1731 121.683 29.1731ZM121.683 35.7959C123.212 35.7959 123.813 34.4275 123.813 33.0592C123.813 31.7456 123.212 30.3772 121.683 30.3772C120.153 30.3772 119.553 31.7456 119.553 33.0592C119.553 34.4275 120.099 35.7959 121.683 35.7959Z" fill="#C5C7C6"/>
<path d="M142.546 30.7604C141.945 30.4868 141.18 30.3773 140.579 30.3773C138.832 30.3773 137.849 31.5814 137.849 33.114C137.849 34.6465 138.777 35.7959 140.416 35.7959C140.852 35.7959 141.126 35.7412 141.399 35.6865V33.716H139.815V32.5119H142.873V36.5622C142.054 36.7811 141.235 36.9453 140.416 36.9453C137.958 36.9453 136.265 35.7412 136.265 33.1687C136.265 30.5962 137.849 29.1184 140.416 29.1184C141.289 29.1184 141.999 29.2279 142.655 29.4468L142.546 30.7604Z" fill="#C5C7C6"/>
<path d="M156.363 33.8801L153.632 29.2825H155.38L157.182 32.457L158.985 29.2825H160.623L157.892 33.8801V36.8357H156.363V33.8801Z" fill="#C5C7C6"/>
</svg>
