<svg width="11" height="12" viewBox="0 0 11 12" fill="none" xmlns="http://www.w3.org/2000/svg">
<path d="M6.47283 6.00011L10.7984 1.67432C11.0672 1.40579 11.0672 0.970095 10.7984 0.701568C10.5297 0.432811 10.0945 0.432811 9.82573 0.701568L5.50011 5.02736L1.17427 0.701568C0.905526 0.432811 0.470305 0.432811 0.201559 0.701568C-0.0671864 0.970095 -0.0671864 1.40579 0.201559 1.67432L4.5274 6.00011L0.201559 10.3259C-0.0671864 10.5944 -0.0671864 11.0301 0.201559 11.2987C0.335932 11.4328 0.512039 11.5 0.687916 11.5C0.863793 11.5 1.0399 11.4328 1.17427 11.2984L5.50011 6.97264L9.82573 11.2984C9.9601 11.4328 10.1362 11.5 10.3121 11.5C10.488 11.5 10.6641 11.4328 10.7984 11.2984C11.0672 11.0299 11.0672 10.5942 10.7984 10.3257L6.47283 6.00011Z" fill="#C5C7C6"/>
</svg>
