<svg width="18" height="18" viewBox="0 0 18 18" fill="none" xmlns="http://www.w3.org/2000/svg">
<path fill-rule="evenodd" clip-rule="evenodd" d="M5.5625 5.87131C5.31386 5.87131 5.0754 5.77254 4.89959 5.59672C4.72377 5.42091 4.625 5.18245 4.625 4.93381V4.00006C4.12772 4.00006 3.65081 4.1976 3.29917 4.54923C2.94754 4.90086 2.75 5.37778 2.75 5.87506V7.12506H15.25V5.87506C15.25 5.37778 15.0525 4.90086 14.7008 4.54923C14.3492 4.1976 13.8723 4.00006 13.375 4.00006V4.93756C13.375 5.1862 13.2762 5.42466 13.1004 5.60047C12.9246 5.77629 12.6861 5.87506 12.4375 5.87506C12.1889 5.87506 11.9504 5.77629 11.7746 5.60047C11.5988 5.42466 11.5 5.1862 11.5 4.93756V4.00006H6.5V4.93381C6.5 5.18245 6.40123 5.42091 6.22541 5.59672C6.0496 5.77254 5.81114 5.87131 5.5625 5.87131ZM11.5 2.12506H6.5V1.18506C6.5 0.936418 6.40123 0.697961 6.22541 0.522146C6.0496 0.346331 5.81114 0.247559 5.5625 0.247559C5.31386 0.247559 5.0754 0.346331 4.89959 0.522146C4.72377 0.697961 4.625 0.936418 4.625 1.18506V2.12506C3.63044 2.12506 2.67661 2.52015 1.97335 3.22341C1.27009 3.92667 0.875 4.8805 0.875 5.87506V13.3751C0.875 14.3696 1.27009 15.3234 1.97335 16.0267C2.67661 16.73 3.63044 17.1251 4.625 17.1251H13.375C14.3696 17.1251 15.3234 16.73 16.0267 16.0267C16.7299 15.3234 17.125 14.3696 17.125 13.3751V5.87506C17.125 4.8805 16.7299 3.92667 16.0267 3.22341C15.3234 2.52015 14.3696 2.12506 13.375 2.12506V1.18756C13.375 0.938918 13.2762 0.700461 13.1004 0.524646C12.9246 0.348831 12.6861 0.250059 12.4375 0.250059C12.1889 0.250059 11.9504 0.348831 11.7746 0.524646C11.5988 0.700461 11.5 0.938918 11.5 1.18756V2.12506ZM2.75 9.00006V13.3751C2.75 13.8723 2.94754 14.3493 3.29917 14.7009C3.65081 15.0525 4.12772 15.2501 4.625 15.2501H13.375C13.8723 15.2501 14.3492 15.0525 14.7008 14.7009C15.0525 14.3493 15.25 13.8723 15.25 13.3751V9.00006H2.75Z" fill="white"/>
</svg>
