<svg width="52" height="38" viewBox="0 0 52 38" fill="none" xmlns="http://www.w3.org/2000/svg">
<path d="M31.2273 19.7436V10H33.7727V18.4775V18.6839L33.9183 18.8302L39.0746 24.0112L37.2745 25.8199L31.2273 19.7436ZM8.95516 19.0248L9.04723 20.875H4.72727C4.23378 20.875 3.76002 20.678 3.41033 20.3267C3.06056 19.9752 2.86364 19.4981 2.86364 19C2.86364 18.5019 3.06056 18.0248 3.41033 17.6733C3.76002 17.322 4.23378 17.125 4.72727 17.125H9.04723L8.95516 18.9752L8.95393 19L8.95516 19.0248ZM33.0909 0.5C37.9725 0.5 42.6547 2.44852 46.1073 5.91768C49.5599 9.38692 51.5 14.0927 51.5 19C51.5 23.9073 49.5599 28.6131 46.1073 32.0823C42.6547 35.5515 37.9725 37.5 33.0909 37.5C28.2093 37.5 23.5271 35.5515 20.0746 32.0823C16.6219 28.6131 14.6818 23.9073 14.6818 19C14.6818 14.0927 16.6219 9.38692 20.0746 5.91768C23.5271 2.44852 28.2093 0.5 33.0909 0.5ZM33.0909 4.25C29.1963 4.25 25.4616 5.8046 22.7084 8.57102C19.9553 11.3374 18.4091 15.0888 18.4091 19C18.4091 22.9112 19.9553 26.6626 22.7084 29.429C25.4616 32.1954 29.1963 33.75 33.0909 33.75C36.9855 33.75 40.7202 32.1954 43.4734 29.429C46.2265 26.6626 47.7727 22.9112 47.7727 19C47.7727 15.0888 46.2265 11.3374 43.4734 8.57102C40.7202 5.8046 36.9855 4.25 33.0909 4.25ZM2.36364 32.75C1.87014 32.75 1.39638 32.553 1.04669 32.2017C0.696927 31.8502 0.5 31.3731 0.5 30.875C0.5 30.3769 0.696927 29.8998 1.04669 29.5483C1.39638 29.197 1.87014 29 2.36364 29H11.0911C11.685 30.3137 12.4034 31.5673 13.2128 32.75H2.36364ZM7.09091 9C6.59742 9 6.12365 8.80304 5.77397 8.45167C5.4242 8.10023 5.22727 7.62305 5.22727 7.125C5.22727 6.62695 5.4242 6.14977 5.77397 5.79833C6.12365 5.44696 6.59742 5.25 7.09091 5.25H13.2128C12.4034 6.43271 11.685 7.68625 11.0911 9H7.09091Z" fill="#45CC2E" stroke="#F6F6F6"/>
</svg>
