<svg width="17" height="17" viewBox="0 0 17 17" fill="none" xmlns="http://www.w3.org/2000/svg">
<path fill-rule="evenodd" clip-rule="evenodd" d="M7.79843 1C9.58495 1 11.0384 2.4925 11.0384 4.327V5.026C11.0384 5.3365 10.793 5.5885 10.4906 5.5885C10.1882 5.5885 9.94284 5.3365 9.94284 5.026V4.327C9.94284 3.112 8.98092 2.125 7.79843 2.125H4.2378C3.05677 2.125 2.09558 3.112 2.09558 4.327V12.6737C2.09558 13.888 3.05677 14.875 4.2378 14.875H7.80646C8.98384 14.875 9.94284 13.891 9.94284 12.682V11.9748C9.94284 11.6643 10.1882 11.4123 10.4906 11.4123C10.793 11.4123 11.0384 11.6643 11.0384 11.9748V12.682C11.0384 14.512 9.58787 16 7.80646 16H4.2378C2.45274 16 1 14.5082 1 12.6737V4.327C1 2.4925 2.45274 1 4.2378 1H7.79843ZM13.7 5.9155L15.8386 8.10175C15.8577 8.12119 15.8747 8.1414 15.8904 8.1628L15.8386 8.10175C15.8645 8.12795 15.8875 8.15657 15.9074 8.1871C15.9162 8.20093 15.9247 8.21524 15.9326 8.22994C15.9389 8.24142 15.9448 8.25341 15.9502 8.2656C15.9549 8.27636 15.9593 8.28714 15.9634 8.29808C15.9689 8.31233 15.9737 8.32698 15.9779 8.34183C15.9811 8.35353 15.9841 8.36519 15.9866 8.377C15.9899 8.39133 15.9925 8.40574 15.9945 8.42026C15.9956 8.4297 15.9967 8.4396 15.9976 8.44957C15.9993 8.46667 16 8.4833 16 8.5L15.9963 8.5465L15.9948 8.57629C15.9946 8.57757 15.9944 8.57884 15.9943 8.58011L16 8.5C16 8.54163 15.9955 8.58286 15.9868 8.62294C15.9841 8.63481 15.9811 8.64647 15.9779 8.65799C15.9737 8.67302 15.9689 8.68767 15.9635 8.70209C15.9593 8.71286 15.9549 8.72364 15.9501 8.73423C15.9448 8.74659 15.9389 8.75858 15.9327 8.77034C15.9247 8.78476 15.9162 8.79907 15.9072 8.81293C15.902 8.82115 15.8964 8.82927 15.8906 8.83724C15.8732 8.86073 15.8542 8.88283 15.8337 8.9033L13.7 11.0852C13.5934 11.1947 13.4531 11.2495 13.3136 11.2495C13.1734 11.2495 13.0324 11.1947 12.9258 11.0837C12.7125 10.8632 12.7133 10.5078 12.9273 10.2887L14.125 9.0625H6.65742C6.35504 9.0625 6.10963 8.8105 6.10963 8.5C6.10963 8.1895 6.35504 7.9375 6.65742 7.9375H14.1265L12.9273 6.712C12.7133 6.493 12.7118 6.1375 12.9258 5.917C13.1391 5.6965 13.4853 5.6965 13.7 5.9155Z" fill="#9604CF"/>
<path d="M15.8386 8.10175L13.7 5.9155C13.4853 5.6965 13.1391 5.6965 12.9258 5.917C12.7118 6.1375 12.7133 6.493 12.9273 6.712L14.1265 7.9375H6.65742C6.35504 7.9375 6.10963 8.1895 6.10963 8.5C6.10963 8.8105 6.35504 9.0625 6.65742 9.0625H14.125L12.9273 10.2888C12.7133 10.5078 12.7125 10.8632 12.9258 11.0837C13.0324 11.1947 13.1734 11.2495 13.3136 11.2495C13.4531 11.2495 13.5934 11.1947 13.7 11.0852L15.8337 8.9033C15.8542 8.88284 15.8732 8.86073 15.8906 8.83724C15.8964 8.82927 15.902 8.82115 15.9072 8.81293C15.9162 8.79907 15.9247 8.78476 15.9327 8.77034C15.9389 8.75858 15.9448 8.74659 15.9501 8.73423C15.9549 8.72364 15.9593 8.71286 15.9635 8.70209C15.9689 8.68767 15.9737 8.67302 15.9779 8.65799C15.9811 8.64647 15.9841 8.63481 15.9868 8.62294C15.9955 8.58286 16 8.54163 16 8.5M15.8386 8.10175C15.8577 8.12119 15.8747 8.1414 15.8904 8.16279L15.8386 8.10175ZM15.8386 8.10175C15.8645 8.12795 15.8875 8.15657 15.9074 8.1871C15.9162 8.20093 15.9247 8.21524 15.9326 8.22994C15.9389 8.24142 15.9448 8.25341 15.9502 8.2656C15.9549 8.27636 15.9593 8.28714 15.9634 8.29808C15.9689 8.31233 15.9737 8.32698 15.9779 8.34183C15.9811 8.35353 15.9841 8.36519 15.9866 8.377C15.9899 8.39133 15.9925 8.40574 15.9945 8.42026C15.9956 8.4297 15.9967 8.4396 15.9976 8.44957C15.9993 8.46667 16 8.4833 16 8.5M16 8.5L15.9963 8.5465L15.9948 8.57629C15.9946 8.57757 15.9944 8.57884 15.9943 8.58011L16 8.5ZM7.79843 1C9.58495 1 11.0384 2.4925 11.0384 4.327V5.026C11.0384 5.3365 10.793 5.5885 10.4906 5.5885C10.1882 5.5885 9.94284 5.3365 9.94284 5.026V4.327C9.94284 3.112 8.98092 2.125 7.79843 2.125H4.2378C3.05677 2.125 2.09558 3.112 2.09558 4.327V12.6737C2.09558 13.888 3.05677 14.875 4.2378 14.875H7.80646C8.98384 14.875 9.94284 13.891 9.94284 12.682V11.9748C9.94284 11.6643 10.1882 11.4123 10.4906 11.4123C10.793 11.4123 11.0384 11.6643 11.0384 11.9748V12.682C11.0384 14.512 9.58787 16 7.80646 16H4.2378C2.45274 16 1 14.5082 1 12.6737V4.327C1 2.4925 2.45274 1 4.2378 1H7.79843Z" stroke="#9604CF" stroke-width="0.5"/>
</svg>
