<svg width="20" height="17" viewBox="0 0 20 17" fill="none" xmlns="http://www.w3.org/2000/svg">
<path d="M19 6.19891L19 6.19779C18.9985 4.82334 18.458 3.50339 17.4937 2.52811C16.529 1.55245 15.2186 1.00156 13.8494 1H13.8482C12.5828 1 11.4099 1.41762 10.5 2.17356C9.59013 1.41762 8.41716 1 7.15179 0.999999L7.15065 1C5.78142 1.00156 4.47103 1.55245 3.50631 2.52811C2.54198 3.50339 2.00153 4.82334 2 6.19779V6.19891C2 9.03248 4.04359 11.4349 5.84908 13.0341C7.69717 14.6709 9.57552 15.7103 9.77168 15.8156C9.9951 15.9364 10.2453 16 10.5 16C10.7546 16 11.0048 15.9364 11.2282 15.8157C11.4235 15.7108 13.3023 14.6713 15.1509 13.0341C16.9564 11.4349 19 9.03248 19 6.19891Z" stroke="#9604CF" stroke-width="2"/>
</svg>
