<svg width="30" height="31" viewBox="0 0 30 31" fill="none" xmlns="http://www.w3.org/2000/svg">
<rect y="0.5" width="30" height="30" rx="15" fill="#45CC2E"/>
<path d="M13.9879 11.4685L11.6198 8.73519C11.3468 8.42021 10.8463 8.42161 10.5292 8.73939L8.58186 10.6902C8.00226 11.2704 7.83636 12.1321 8.17166 12.8229C10.1748 16.9702 13.5197 20.3196 17.6643 22.3284C18.3545 22.6637 19.2155 22.4978 19.7951 21.9175L21.7607 19.9485C22.0792 19.63 22.0799 19.1268 21.7621 18.8538L19.0181 16.4984C18.7311 16.252 18.2852 16.2842 17.9975 16.5726L17.0427 17.5288C16.9938 17.58 16.9295 17.6138 16.8596 17.6249C16.7896 17.636 16.718 17.6239 16.6556 17.5904C15.0949 16.6917 13.8003 15.3955 12.9036 13.8337C12.8701 13.7712 12.8579 13.6995 12.869 13.6294C12.8801 13.5594 12.9139 13.4949 12.9652 13.4459L13.9172 12.4933C14.2056 12.2035 14.2371 11.7562 13.9879 11.4685Z" stroke="#F8F8F8" stroke-linecap="round" stroke-linejoin="round"/>
</svg>
