<svg width="30" height="30" viewBox="0 0 30 30" fill="none" xmlns="http://www.w3.org/2000/svg">
<path d="M13.7349 9.96066L10.7748 6.54399C10.4336 6.15026 9.80793 6.15201 9.41156 6.54924L6.97732 8.98772C6.25283 9.71305 6.04545 10.7901 6.46458 11.6537C8.96848 16.8377 13.1496 21.0244 18.3304 23.5355C19.1931 23.9546 20.2694 23.7472 20.9939 23.0219L23.4509 20.5606C23.849 20.1625 23.8499 19.5335 23.4526 19.1922L20.0226 16.248C19.6639 15.94 19.1065 15.9803 18.7469 16.3408L17.5534 17.536C17.4923 17.6 17.4119 17.6422 17.3245 17.6561C17.237 17.67 17.1475 17.6549 17.0695 17.6129C15.1187 16.4896 13.5004 14.8693 12.3795 12.9171C12.3376 12.839 12.3224 12.7493 12.3363 12.6618C12.3502 12.5742 12.3924 12.4936 12.4565 12.4324L13.6465 11.2416C14.007 10.8794 14.0464 10.3203 13.7349 9.96066Z" stroke="#C5C7C6" stroke-width="1.7" stroke-linecap="round" stroke-linejoin="round"/>
</svg>
