<svg width="30" height="30" viewBox="0 0 30 30" fill="none" xmlns="http://www.w3.org/2000/svg">
<rect width="30" height="30" rx="6" fill="#9604CF"/>
<path d="M15 17C17.206 17 19 15.206 19 13C19 10.794 17.206 9 15 9C12.794 9 11 10.794 11 13C11 15.206 12.794 17 15 17ZM15 11C16.103 11 17 11.897 17 13C17 14.103 16.103 15 15 15C13.897 15 13 14.103 13 13C13 11.897 13.897 11 15 11Z" fill="white"/>
<path d="M14.42 24.814C14.5892 24.9349 14.792 24.9998 15 24.9998C15.208 24.9998 15.4107 24.9349 15.58 24.814C15.884 24.599 23.029 19.44 23 13C23 8.589 19.411 5 15 5C10.589 5 7 8.589 7 12.995C6.971 19.44 14.116 24.599 14.42 24.814ZM15 7C18.309 7 21 9.691 21 13.005C21.021 17.443 16.612 21.428 15 22.735C13.389 21.427 8.979 17.441 9 13C9 9.691 11.691 7 15 7Z" fill="white"/>
</svg>
