<svg width="602" height="190" viewBox="0 0 602 190" fill="none" xmlns="http://www.w3.org/2000/svg">
<g clip-path="url(#clip0_78_548)">
<path fill-rule="evenodd" clip-rule="evenodd" d="M-56.0376 62.2108L-44.4624 60.717L-44.9094 64.192L-56.4848 65.686L-56.0376 62.2108ZM-4.63881 50.7457L-0.791783 53.5552L-5.38479 54.2688L-9.49235 51.3895L-4.63881 50.7457ZM-11.4462 55.8383L-0.10259 54.2745L-0.56553 57.8135L-11.8569 59.438L-11.4462 55.8383ZM-10.1049 47.3476L0.832103 45.8487L0.384959 49.3239L-10.5522 50.8226L-10.1049 47.3476ZM-19.8334 60.7026L-19.1103 54.6109L-16.4231 59.9699L-16.4338 60.0722L-12.9703 59.6135L-12.9549 59.4852L-12.9353 59.4826L-12.9509 59.4511L-11.5477 47.6309L-15.1537 48.1115L-15.7805 53.7572L-18.2927 48.7022L-18.4354 48.7234L-22.0168 49.2008L-23.3456 61.168L-19.8334 60.7026ZM-35.2739 55.1782L-26.7251 54.0748L-27.1723 57.5498L-35.7211 58.6532L-35.2739 55.1782ZM-34.7884 50.9592L-23.2722 49.3657L-23.6603 52.9404L-35.2357 54.4342L-34.7884 50.9592ZM-35.8056 59.3801L-24.2304 57.8861L-24.6775 61.3613L-36.2529 62.8551L-35.8056 59.3801ZM-37.3354 63.0966L-35.913 51.114L-39.5187 51.5948L-40.4426 59.9143L-43.6019 52.2102L-43.9057 52.2522L-43.9057 52.2518L-55.0204 53.79L-55.4678 57.2652L-45.8205 56.0232L-42.5488 63.8328L-39.0417 63.33L-39.0448 63.323L-37.3354 63.0966ZM-55.5057 58.0091L-46.957 56.9058L-47.4042 60.3807L-55.9531 61.4841L-55.5057 58.0091Z" fill="#EDEDED"/>
<path fill-rule="evenodd" clip-rule="evenodd" d="M601.747 33.0729L613.322 31.5792L612.875 35.0541L601.3 36.5481L601.747 33.0729ZM653.146 21.6078L656.993 24.4173L652.4 25.1309L648.292 22.2516L653.146 21.6078ZM646.339 26.7004L657.682 25.1366L657.219 28.6756L645.928 30.3001L646.339 26.7004ZM647.68 18.2097L658.617 16.7108L658.17 20.186L647.233 21.6847L647.68 18.2097ZM637.951 31.5647L638.675 25.4731L641.362 30.832L641.351 30.9344L644.815 30.4756L644.83 30.3473L644.85 30.3447L644.834 30.3132L646.237 18.493L642.631 18.9736L642.004 24.6193L639.492 19.5643L639.349 19.5856L635.768 20.0629L634.439 32.0301L637.951 31.5647ZM622.511 26.0403L631.06 24.9369L630.612 28.4119L622.064 29.5153L622.511 26.0403ZM622.996 21.8213L634.513 20.2278L634.124 23.8026L622.549 25.2964L622.996 21.8213ZM621.979 30.2422L633.554 28.7482L633.107 32.2234L621.532 33.7172L621.979 30.2422ZM620.449 33.9587L621.872 21.9761L618.266 22.4569L617.342 30.7764L614.183 23.0723L613.879 23.1143L613.879 23.1139L602.764 24.6521L602.317 28.1273L611.964 26.8853L615.236 34.695L618.743 34.1921L618.74 34.1851L620.449 33.9587ZM602.279 28.8712L610.828 27.7679L610.381 31.2429L601.832 32.3462L602.279 28.8712Z" fill="#EDEDED"/>
<path fill-rule="evenodd" clip-rule="evenodd" d="M-50.5219 103.644L-38.9467 102.15L-39.3937 105.625L-50.969 107.119L-50.5219 103.644ZM0.876942 92.1785L4.72396 94.988L0.13096 95.7016L-3.97661 92.8223L0.876942 92.1785ZM-5.9305 97.2711L5.41316 95.7073L4.95022 99.2463L-6.34115 100.871L-5.9305 97.2711ZM-4.58912 88.7804L6.34785 87.2815L5.90071 90.7567L-5.03648 92.2554L-4.58912 88.7804ZM-14.3177 102.135L-13.5945 96.0437L-10.9073 101.403L-10.9181 101.505L-7.45452 101.046L-7.4392 100.918L-7.41952 100.915L-7.43519 100.884L-6.032 89.0637L-9.63792 89.5443L-10.2647 95.19L-12.777 90.135L-12.9196 90.1562L-16.5011 90.6336L-17.8298 102.601L-14.3177 102.135ZM-29.7581 96.611L-21.2094 95.5076L-21.6566 98.9826L-30.2053 100.086L-29.7581 96.611ZM-29.2726 92.392L-17.7564 90.7985L-18.1446 94.3732L-29.72 95.867L-29.2726 92.392ZM-30.2898 100.813L-18.7147 99.3189L-19.1618 102.794L-30.7372 104.288L-30.2898 100.813ZM-31.8196 104.529L-30.3973 92.5468L-34.003 93.0276L-34.9268 101.347L-38.0862 93.643L-38.3899 93.685L-38.39 93.6846L-49.5047 95.2228L-49.952 98.698L-40.3048 97.456L-37.0331 105.266L-33.526 104.763L-33.529 104.756L-31.8196 104.529ZM-49.99 99.4419L-41.4412 98.3386L-41.8884 101.814L-50.4373 102.917L-49.99 99.4419Z" fill="#EDEDED"/>
<path fill-rule="evenodd" clip-rule="evenodd" d="M0.118496 33.3472L11.6937 31.8535L11.2467 35.3284L-0.328648 36.8224L0.118496 33.3472ZM51.5173 21.8821L55.3643 24.6916L50.7713 25.4052L46.6638 22.5259L51.5173 21.8821ZM44.7099 26.9747L56.0535 25.4109L55.5906 28.9499L44.2992 30.5744L44.7099 26.9747ZM46.0513 18.484L56.9882 16.9851L56.5411 20.4603L45.6039 21.959L46.0513 18.484ZM36.3227 31.839L37.0459 25.7474L39.7331 31.1063L39.7223 31.2087L43.1859 30.7499L43.2012 30.6216L43.2209 30.619L43.2052 30.5875L44.6084 18.7673L41.0025 19.2479L40.3757 24.8936L37.8634 19.8386L37.7208 19.8599L34.1393 20.3372L32.8106 32.3044L36.3227 31.839ZM20.8822 26.3146L29.431 25.2112L28.9838 28.6862L20.4351 29.7896L20.8822 26.3146ZM21.3678 22.0956L32.884 20.5021L32.4958 24.0768L20.9204 25.5707L21.3678 22.0956ZM20.3506 30.5165L31.9257 29.0225L31.4786 32.4977L19.9032 33.9915L20.3506 30.5165ZM18.8208 34.233L20.2431 22.2504L16.6374 22.7312L15.7136 31.0507L12.5542 23.3466L12.2505 23.3886L12.2504 23.3882L1.13568 24.9264L0.688343 28.4016L10.3356 27.1596L13.6073 34.9693L17.1144 34.4664L17.1114 34.4594L18.8208 34.233ZM0.650399 29.1455L9.19914 28.0422L8.75197 31.5172L0.203032 32.6205L0.650399 29.1455Z" fill="#EDEDED"/>
<path fill-rule="evenodd" clip-rule="evenodd" d="M18.8208 34.233L20.2431 22.2505L16.6374 22.7312L15.3087 34.7254L18.8208 34.233Z" fill="#EDEDED"/>
<path fill-rule="evenodd" clip-rule="evenodd" d="M43.1859 30.75L44.6084 18.7674L41.0025 19.2479L39.7223 31.2087L43.1859 30.75Z" fill="#EDEDED"/>
<path fill-rule="evenodd" clip-rule="evenodd" d="M56.0752 1.39759L67.6504 -0.0961891L67.2035 3.37877L55.6281 4.87278L56.0752 1.39759ZM107.474 -10.0675L111.321 -7.25808L106.728 -6.54447L102.62 -9.42373L107.474 -10.0675ZM100.667 -4.97495L112.01 -6.53872L111.547 -2.99976L100.256 -1.37522L100.667 -4.97495ZM102.008 -13.4656L112.945 -14.9645L112.498 -11.4894L101.561 -9.99061L102.008 -13.4656ZM92.2794 -0.110623L93.0026 -6.20228L95.6898 -0.84333L95.679 -0.740988L99.1426 -1.19971L99.1579 -1.32807L99.1776 -1.33062L99.1619 -1.36217L100.565 -13.1823L96.9592 -12.7018L96.3324 -7.05601L93.8201 -12.111L93.6775 -12.0898L90.0961 -11.6125L88.7673 0.354735L92.2794 -0.110623ZM76.839 -5.63506L85.3877 -6.73843L84.9405 -3.26344L76.3918 -2.16007L76.839 -5.63506ZM77.3245 -9.85401L88.8407 -11.4475L88.4525 -7.8728L76.8771 -6.37899L77.3245 -9.85401ZM76.3073 -1.43317L87.8825 -2.92716L87.4353 0.548023L75.8599 2.04185L76.3073 -1.43317ZM74.7775 2.28336L76.1998 -9.69921L72.5941 -9.21848L71.6703 -0.898908L68.5109 -8.60304L68.2072 -8.56101L68.2071 -8.56142L57.0924 -7.02323L56.6451 -3.54802L66.2923 -4.79003L69.5641 3.01961L73.0711 2.51674L73.0681 2.50979L74.7775 2.28336ZM56.6071 -2.80414L65.1559 -3.90748L64.7087 -0.432493L56.1598 0.670878L56.6071 -2.80414Z" fill="#EDEDED"/>
<path fill-rule="evenodd" clip-rule="evenodd" d="M74.7775 2.2834L76.1998 -9.69917L72.5941 -9.21845L71.2655 2.77573L74.7775 2.2834Z" fill="#EDEDED"/>
<path fill-rule="evenodd" clip-rule="evenodd" d="M489.497 91.2401L501.072 89.7463L500.625 93.2212L489.05 94.7152L489.497 91.2401ZM540.895 79.7749L544.743 82.5844L540.15 83.298L536.042 80.4187L540.895 79.7749ZM534.088 84.8675L545.432 83.3038L544.969 86.8427L533.677 88.4673L534.088 84.8675ZM535.429 76.3768L546.366 74.8779L545.919 78.3531L534.982 79.8519L535.429 76.3768ZM525.701 89.7318L526.424 83.6402L529.111 88.9991L529.1 89.1015L532.564 88.6428L532.579 88.5144L532.599 88.5119L532.583 88.4803L533.987 76.6601L530.381 77.1407L529.754 82.7865L527.242 77.7314L527.099 77.7527L523.518 78.23L522.189 90.1972L525.701 89.7318ZM510.26 84.2074L518.809 83.104L518.362 86.579L509.813 87.6824L510.26 84.2074ZM510.746 79.9885L522.262 78.395L521.874 81.9697L510.299 83.4635L510.746 79.9885ZM509.729 88.4093L521.304 86.9153L520.857 90.3905L509.281 91.8843L509.729 88.4093ZM508.199 92.1258L509.621 80.1433L506.016 80.624L505.092 88.9436L501.932 81.2394L501.629 81.2815L501.629 81.2811L490.514 82.8192L490.067 86.2944L499.714 85.0524L502.985 92.8621L506.493 92.3592L506.49 92.3523L508.199 92.1258ZM490.029 87.0383L498.577 85.935L498.13 89.41L489.581 90.5133L490.029 87.0383Z" fill="#EDEDED"/>
<path fill-rule="evenodd" clip-rule="evenodd" d="M508.199 92.1258L509.621 80.1432L506.016 80.624L504.687 92.6181L508.199 92.1258Z" fill="#EDEDED"/>
<path fill-rule="evenodd" clip-rule="evenodd" d="M532.564 88.6427L533.987 76.6601L530.381 77.1407L529.1 89.1015L532.564 88.6427Z" fill="#EDEDED"/>
<path fill-rule="evenodd" clip-rule="evenodd" d="M483.659 49.6478L495.234 48.154L494.787 51.629L483.212 53.123L483.659 49.6478ZM535.058 38.1826L538.905 40.9921L534.312 41.7057L530.204 38.8265L535.058 38.1826ZM528.25 43.2752L539.594 41.7115L539.131 45.2504L527.84 46.875L528.25 43.2752ZM529.592 34.7846L540.529 33.2856L540.081 36.7608L529.144 38.2596L529.592 34.7846ZM519.863 48.1396L520.586 42.0479L523.273 47.4069L523.263 47.5092L526.726 47.0505L526.742 46.9221L526.761 46.9196L526.746 46.888L528.149 35.0679L524.543 35.5484L523.916 41.1942L521.404 36.1392L521.261 36.1604L517.68 36.6377L516.351 48.6049L519.863 48.1396ZM504.423 42.6151L512.971 41.5118L512.524 44.9867L503.975 46.0901L504.423 42.6151ZM504.908 38.3962L516.424 36.8027L516.036 40.3774L504.461 41.8712L504.908 38.3962ZM503.891 46.817L515.466 45.323L515.019 48.7982L503.444 50.292L503.891 46.817ZM502.361 50.5335L503.783 38.551L500.178 39.0317L499.254 47.3513L496.095 39.6471L495.791 39.6892L495.791 39.6888L484.676 41.227L484.229 44.7022L493.876 43.4602L497.148 51.2698L500.655 50.7669L500.652 50.76L502.361 50.5335ZM484.191 45.446L492.74 44.3427L492.292 47.8177L483.743 48.9211L484.191 45.446Z" fill="#EDEDED"/>
<path fill-rule="evenodd" clip-rule="evenodd" d="M502.361 50.5336L503.784 38.551L500.178 39.0317L498.849 51.0259L502.361 50.5336Z" fill="#EDEDED"/>
<path fill-rule="evenodd" clip-rule="evenodd" d="M526.726 47.0505L528.149 35.0679L524.543 35.5485L523.263 47.5092L526.726 47.0505Z" fill="#EDEDED"/>
<path fill-rule="evenodd" clip-rule="evenodd" d="M62.0506 45.636L73.6258 44.1422L73.1789 47.6172L61.6035 49.1112L62.0506 45.636ZM113.449 34.1709L117.296 36.9803L112.703 37.6939L108.596 34.8147L113.449 34.1709ZM106.642 39.2635L117.986 37.6997L117.523 41.2386L106.231 42.8632L106.642 39.2635ZM107.983 30.7728L118.92 29.2739L118.473 32.749L107.536 34.2478L107.983 30.7728ZM98.2548 44.1278L98.978 38.0361L101.665 43.3951L101.654 43.4974L105.118 43.0387L105.133 42.9103L105.153 42.9078L105.137 42.8762L106.541 31.0561L102.935 31.5366L102.308 37.1824L99.7955 32.1274L99.6529 32.1486L96.0715 32.6259L94.7427 44.5931L98.2548 44.1278ZM82.8144 38.6033L91.3631 37.5L90.9159 40.975L82.3672 42.0783L82.8144 38.6033ZM83.2999 34.3844L94.8161 32.7909L94.4279 36.3656L82.8525 37.8594L83.2999 34.3844ZM82.2827 42.8052L93.8579 41.3112L93.4107 44.7864L81.8353 46.2803L82.2827 42.8052ZM80.7529 46.5218L82.1752 34.5392L78.5695 35.0199L77.6457 43.3395L74.4863 35.6354L74.1826 35.6774L74.1825 35.677L63.0678 37.2152L62.6205 40.6904L72.2677 39.4484L75.5395 47.258L79.0465 46.7551L79.0435 46.7482L80.7529 46.5218ZM62.5825 41.4343L71.1313 40.3309L70.6841 43.8059L62.1352 44.9093L62.5825 41.4343Z" fill="#EDEDED"/>
<path fill-rule="evenodd" clip-rule="evenodd" d="M80.7529 46.5218L82.1752 34.5392L78.5695 35.02L77.2409 47.0141L80.7529 46.5218Z" fill="#EDEDED"/>
<path fill-rule="evenodd" clip-rule="evenodd" d="M105.118 43.0387L106.541 31.0561L102.935 31.5367L101.654 43.4975L105.118 43.0387Z" fill="#EDEDED"/>
<path fill-rule="evenodd" clip-rule="evenodd" d="M129.498 99.3576L141.074 97.8638L140.627 101.339L129.051 102.833L129.498 99.3576ZM180.897 87.8925L184.744 90.7019L180.151 91.4155L176.044 88.5363L180.897 87.8925ZM174.09 92.9851L185.433 91.4213L184.97 94.9603L173.679 96.5848L174.09 92.9851ZM175.431 84.4944L186.368 82.9955L185.921 86.4707L174.984 87.9694L175.431 84.4944ZM165.703 97.8494L166.426 91.7577L169.113 97.1167L169.102 97.219L172.566 96.7603L172.581 96.6319L172.601 96.6294L172.585 96.5978L173.988 84.7777L170.382 85.2583L169.756 90.904L167.243 85.849L167.101 85.8702L163.519 86.3476L162.19 98.3148L165.703 97.8494ZM150.262 92.325L158.811 91.2216L158.364 94.6966L149.815 95.7999L150.262 92.325ZM150.748 88.106L162.264 86.5125L161.876 90.0872L150.3 91.581L150.748 88.106ZM149.73 96.5269L161.306 95.0329L160.858 98.508L149.283 100.002L149.73 96.5269ZM148.201 100.243L149.623 88.2608L146.017 88.7415L145.093 97.0611L141.934 89.357L141.63 89.399L141.63 89.3986L130.516 90.9368L130.068 94.412L139.715 93.17L142.987 100.98L146.494 100.477L146.491 100.47L148.201 100.243ZM130.03 95.1559L138.579 94.0525L138.132 97.5275L129.583 98.6309L130.03 95.1559Z" fill="#EDEDED"/>
<path fill-rule="evenodd" clip-rule="evenodd" d="M148.201 100.243L149.623 88.2608L146.017 88.7415L144.689 100.736L148.201 100.243Z" fill="#EDEDED"/>
<path fill-rule="evenodd" clip-rule="evenodd" d="M172.566 96.7603L173.988 84.7777L170.382 85.2582L169.102 97.219L172.566 96.7603Z" fill="#EDEDED"/>
<path fill-rule="evenodd" clip-rule="evenodd" d="M365.571 66.2226L377.146 64.7288L376.699 68.2038L365.124 69.6978L365.571 66.2226ZM416.969 54.7575L420.816 57.5669L416.223 58.2805L412.116 55.4013L416.969 54.7575ZM410.162 59.8501L421.506 58.2863L421.043 61.8253L409.751 63.4498L410.162 59.8501ZM411.503 51.3594L422.44 49.8605L421.993 53.3357L411.056 54.8344L411.503 51.3594ZM401.775 64.7144L402.498 58.6227L405.185 63.9817L405.174 64.084L408.638 63.6253L408.653 63.4969L408.673 63.4944L408.657 63.4628L410.061 51.6427L406.455 52.1232L405.828 57.769L403.316 52.714L403.173 52.7352L399.591 53.2125L398.263 65.1797L401.775 64.7144ZM386.334 59.1899L394.883 58.0866L394.436 61.5616L385.887 62.6649L386.334 59.1899ZM386.82 54.971L398.336 53.3775L397.948 56.9522L386.373 58.446L386.82 54.971ZM385.803 63.3918L397.378 61.8979L396.931 65.373L385.355 66.8669L385.803 63.3918ZM384.273 67.1084L385.695 55.1258L382.09 55.6065L381.166 63.9261L378.006 56.222L377.703 56.264L377.703 56.2636L366.588 57.8018L366.14 61.277L375.788 60.035L379.059 67.8446L382.567 67.3417L382.564 67.3348L384.273 67.1084ZM366.103 62.0209L374.651 60.9175L374.204 64.3925L365.655 65.4959L366.103 62.0209Z" fill="#EDEDED"/>
<path fill-rule="evenodd" clip-rule="evenodd" d="M384.273 67.1084L385.695 55.1258L382.09 55.6066L380.761 67.6007L384.273 67.1084Z" fill="#EDEDED"/>
<path fill-rule="evenodd" clip-rule="evenodd" d="M408.638 63.6253L410.061 51.6427L406.455 52.1233L405.174 64.0841L408.638 63.6253Z" fill="#EDEDED"/>
<path fill-rule="evenodd" clip-rule="evenodd" d="M180.139 29.0612L191.714 27.5674L191.267 31.0424L179.692 32.5364L180.139 29.0612ZM231.538 17.5961L235.385 20.4056L230.792 21.1192L226.684 18.2399L231.538 17.5961ZM224.73 22.6887L236.074 21.1249L235.611 24.6639L224.319 26.2884L224.73 22.6887ZM226.072 14.198L237.008 12.6991L236.561 16.1743L225.624 17.673L226.072 14.198ZM216.343 27.553L217.066 21.4614L219.753 26.8203L219.743 26.9226L223.206 26.4639L223.221 26.3356L223.241 26.333L223.225 26.3015L224.629 14.4813L221.023 14.9619L220.396 20.6076L217.884 15.5526L217.741 15.5738L214.16 16.0512L212.831 28.0184L216.343 27.553ZM200.903 22.0286L209.451 20.9252L209.004 24.4002L200.455 25.5036L200.903 22.0286ZM201.388 17.8096L212.904 16.2161L212.516 19.7908L200.941 21.2846L201.388 17.8096ZM200.371 26.2305L211.946 24.7365L211.499 28.2117L199.923 29.7055L200.371 26.2305ZM198.841 29.947L200.263 17.9644L196.658 18.4452L195.734 26.7647L192.574 19.0606L192.271 19.1026L192.271 19.1022L181.156 20.6404L180.709 24.1156L190.356 22.8736L193.628 30.6832L197.135 30.1804L197.132 30.1734L198.841 29.947ZM180.671 24.8595L189.219 23.7562L188.772 27.2311L180.223 28.3345L180.671 24.8595Z" fill="#EDEDED"/>
<path fill-rule="evenodd" clip-rule="evenodd" d="M198.841 29.947L200.263 17.9645L196.658 18.4452L195.329 30.4394L198.841 29.947Z" fill="#EDEDED"/>
<path fill-rule="evenodd" clip-rule="evenodd" d="M223.206 26.464L224.629 14.4814L221.023 14.9619L219.743 26.9227L223.206 26.464Z" fill="#EDEDED"/>
<path fill-rule="evenodd" clip-rule="evenodd" d="M477.075 9.39759L488.65 7.90381L488.204 11.3788L476.628 12.8728L477.075 9.39759ZM528.474 -2.06754L532.321 0.741923L527.728 1.45553L523.621 -1.42373L528.474 -2.06754ZM521.667 3.02505L533.01 1.46128L532.547 5.00024L521.256 6.62478L521.667 3.02505ZM523.008 -5.46562L533.945 -6.96454L533.498 -3.48935L522.561 -1.99061L523.008 -5.46562ZM513.279 7.88938L514.003 1.79772L516.69 7.15667L516.679 7.25901L520.143 6.80029L520.158 6.67193L520.178 6.66938L520.162 6.63783L521.565 -5.18233L517.959 -4.70177L517.332 0.943993L514.82 -4.11103L514.678 -4.08979L511.096 -3.61247L509.767 8.35474L513.279 7.88938ZM497.839 2.36494L506.388 1.26157L505.941 4.73656L497.392 5.83993L497.839 2.36494ZM498.325 -1.85401L509.841 -3.44751L509.453 0.127198L497.877 1.62101L498.325 -1.85401ZM497.307 6.56683L508.883 5.07284L508.435 8.54802L496.86 10.0419L497.307 6.56683ZM495.778 10.2834L497.2 -1.69921L493.594 -1.21848L492.67 7.10109L489.511 -0.603041L489.207 -0.561006L489.207 -0.561417L478.092 0.976768L477.645 4.45198L487.292 3.20997L490.564 11.0196L494.071 10.5167L494.068 10.5098L495.778 10.2834ZM477.607 5.19586L486.156 4.09252L485.709 7.56751L477.16 8.67088L477.607 5.19586Z" fill="#EDEDED"/>
<path fill-rule="evenodd" clip-rule="evenodd" d="M495.778 10.2834L497.2 -1.69917L493.594 -1.21845L492.266 10.7757L495.778 10.2834Z" fill="#EDEDED"/>
<path fill-rule="evenodd" clip-rule="evenodd" d="M520.143 6.80033L521.565 -5.18228L517.959 -4.70173L516.679 7.25905L520.143 6.80033Z" fill="#EDEDED"/>
<path fill-rule="evenodd" clip-rule="evenodd" d="M297.075 13.3976L308.65 11.9038L308.204 15.3788L296.628 16.8728L297.075 13.3976ZM348.474 1.93246L352.321 4.74192L347.728 5.45553L343.621 2.57627L348.474 1.93246ZM341.667 7.02505L353.01 5.46128L352.547 9.00024L341.256 10.6248L341.667 7.02505ZM343.008 -1.46562L353.945 -2.96454L353.498 0.510646L342.561 2.00939L343.008 -1.46562ZM333.279 11.8894L334.003 5.79772L336.69 11.1567L336.679 11.259L340.143 10.8003L340.158 10.6719L340.178 10.6694L340.162 10.6378L341.565 -1.18233L337.959 -0.701768L337.332 4.94399L334.82 -0.111026L334.678 -0.0897862L331.096 0.387534L329.767 12.3547L333.279 11.8894ZM317.839 6.36494L326.388 5.26157L325.941 8.73656L317.392 9.83993L317.839 6.36494ZM318.325 2.14599L329.841 0.552491L329.453 4.1272L317.877 5.62101L318.325 2.14599ZM317.307 10.5668L328.883 9.07284L328.435 12.548L316.86 14.0419L317.307 10.5668ZM315.778 14.2834L317.2 2.30079L313.594 2.78152L312.67 11.1011L309.511 3.39696L309.207 3.43899L309.207 3.43858L298.092 4.97677L297.645 8.45198L307.292 7.20997L310.564 15.0196L314.071 14.5167L314.068 14.5098L315.778 14.2834ZM297.607 9.19586L306.156 8.09252L305.709 11.5675L297.16 12.6709L297.607 9.19586Z" fill="#EDEDED"/>
<path fill-rule="evenodd" clip-rule="evenodd" d="M315.778 14.2834L317.2 2.30083L313.594 2.78155L312.266 14.7757L315.778 14.2834Z" fill="#EDEDED"/>
<path fill-rule="evenodd" clip-rule="evenodd" d="M340.143 10.8003L341.565 -1.18228L337.959 -0.701726L336.679 11.2591L340.143 10.8003Z" fill="#EDEDED"/>
<path fill-rule="evenodd" clip-rule="evenodd" d="M247.587 82.7828L259.162 81.289L258.715 84.764L247.14 86.258L247.587 82.7828ZM298.986 71.3177L302.833 74.1271L298.24 74.8407L294.132 71.9615L298.986 71.3177ZM292.178 76.4102L303.522 74.8465L303.059 78.3854L291.767 80.01L292.178 76.4102ZM293.52 67.9196L304.456 66.4207L304.009 69.8958L293.072 71.3946L293.52 67.9196ZM283.791 81.2746L284.514 75.1829L287.201 80.5419L287.191 80.6442L290.654 80.1855L290.669 80.0571L290.689 80.0546L290.673 80.023L292.077 68.2029L288.471 68.6834L287.844 74.3292L285.332 69.2742L285.189 69.2954L281.608 69.7727L280.279 81.7399L283.791 81.2746ZM268.351 75.7501L276.899 74.6468L276.452 78.1218L267.903 79.2251L268.351 75.7501ZM268.836 71.5312L280.352 69.9377L279.964 73.5124L268.389 75.0062L268.836 71.5312ZM267.819 79.952L279.394 78.458L278.947 81.9332L267.371 83.427L267.819 79.952ZM266.289 83.6686L267.711 71.686L264.106 72.1667L263.182 80.4863L260.022 72.7822L259.719 72.8242L259.719 72.8238L248.604 74.362L248.157 77.8372L257.804 76.5952L261.076 84.4048L264.583 83.9019L264.58 83.895L266.289 83.6686ZM248.119 78.5811L256.667 77.4777L256.22 80.9527L247.671 82.0561L248.119 78.5811Z" fill="#EDEDED"/>
<path fill-rule="evenodd" clip-rule="evenodd" d="M266.289 83.6685L267.711 71.686L264.106 72.1667L262.777 84.1609L266.289 83.6685Z" fill="#EDEDED"/>
<path fill-rule="evenodd" clip-rule="evenodd" d="M290.654 80.1855L292.077 68.2028L288.471 68.6834L287.191 80.6442L290.654 80.1855Z" fill="#EDEDED"/>
<path fill-rule="evenodd" clip-rule="evenodd" d="M309.476 95.5261L321.052 94.0323L320.605 97.5072L309.029 99.0013L309.476 95.5261ZM360.875 84.0609L364.722 86.8704L360.129 87.584L356.022 84.7048L360.875 84.0609ZM354.068 89.1535L365.411 87.5898L364.949 91.1287L353.657 92.7533L354.068 89.1535ZM355.409 80.6629L366.346 79.1639L365.899 82.6391L354.962 84.1379L355.409 80.6629ZM345.681 94.0179L346.404 87.9262L349.091 93.2851L349.08 93.3875L352.544 92.9288L352.559 92.8004L352.579 92.7979L352.563 92.7663L353.966 80.9462L350.36 81.4267L349.734 87.0725L347.221 82.0175L347.079 82.0387L343.497 82.516L342.168 94.4832L345.681 94.0179ZM330.24 88.4934L338.789 87.3901L338.342 90.865L329.793 91.9684L330.24 88.4934ZM330.726 84.2745L342.242 82.681L341.854 86.2557L330.278 87.7495L330.726 84.2745ZM329.708 92.6953L341.284 91.2013L340.836 94.6765L329.261 96.1703L329.708 92.6953ZM328.179 96.4118L329.601 84.4293L325.995 84.91L325.071 93.2296L321.912 85.5254L321.608 85.5675L321.608 85.5671L310.494 87.1052L310.046 90.5805L319.694 89.3384L322.965 97.1481L326.472 96.6452L326.469 96.6383L328.179 96.4118ZM310.008 91.3243L318.557 90.221L318.11 93.696L309.561 94.7994L310.008 91.3243Z" fill="#EDEDED"/>
<path fill-rule="evenodd" clip-rule="evenodd" d="M328.179 96.4118L329.601 84.4292L325.995 84.91L324.667 96.9041L328.179 96.4118Z" fill="#EDEDED"/>
<path fill-rule="evenodd" clip-rule="evenodd" d="M352.544 92.9288L353.966 80.9461L350.36 81.4267L349.08 93.3875L352.544 92.9288Z" fill="#EDEDED"/>
<path fill-rule="evenodd" clip-rule="evenodd" d="M303.639 53.9338L315.214 52.44L314.767 55.915L303.192 57.409L303.639 53.9338ZM355.038 42.4687L358.885 45.2781L354.292 45.9917L350.184 43.1125L355.038 42.4687ZM348.23 47.5612L359.574 45.9975L359.111 49.5364L347.819 51.161L348.23 47.5612ZM349.572 39.0706L360.508 37.5717L360.061 41.0468L349.124 42.5456L349.572 39.0706ZM339.843 52.4256L340.566 46.3339L343.253 51.6929L343.243 51.7952L346.706 51.3365L346.721 51.2081L346.741 51.2056L346.725 51.174L348.129 39.3539L344.523 39.8344L343.896 45.4802L341.384 40.4252L341.241 40.4464L337.66 40.9237L336.331 52.8909L339.843 52.4256ZM324.403 46.9011L332.951 45.7978L332.504 49.2728L323.955 50.3761L324.403 46.9011ZM324.888 42.6822L336.404 41.0887L336.016 44.6634L324.441 46.1572L324.888 42.6822ZM323.871 51.103L335.446 49.609L334.999 53.0842L323.423 54.578L323.871 51.103ZM322.341 54.8196L323.763 42.837L320.158 43.3177L319.234 51.6373L316.074 43.9332L315.771 43.9752L315.771 43.9748L304.656 45.513L304.209 48.9882L313.856 47.7462L317.128 55.5558L320.635 55.0529L320.632 55.046L322.341 54.8196ZM304.171 49.7321L312.719 48.6287L312.272 52.1037L303.723 53.2071L304.171 49.7321Z" fill="#EDEDED"/>
<path fill-rule="evenodd" clip-rule="evenodd" d="M322.341 54.8196L323.763 42.837L320.158 43.3177L318.829 55.3119L322.341 54.8196Z" fill="#EDEDED"/>
<path fill-rule="evenodd" clip-rule="evenodd" d="M346.706 51.3365L348.129 39.3539L344.523 39.8345L343.243 51.7952L346.706 51.3365Z" fill="#EDEDED"/>
<path fill-rule="evenodd" clip-rule="evenodd" d="M427.565 78.9513L439.14 77.4575L438.693 80.9325L427.117 82.4265L427.565 78.9513ZM478.963 67.4862L482.81 70.2956L478.217 71.0092L474.11 68.13L478.963 67.4862ZM472.156 72.5788L483.5 71.015L483.037 74.554L471.745 76.1785L472.156 72.5788ZM473.497 64.0881L484.434 62.5892L483.987 66.0644L473.05 67.5631L473.497 64.0881ZM463.769 77.4431L464.492 71.3514L467.179 76.7104L467.168 76.8127L470.632 76.354L470.647 76.2256L470.667 76.2231L470.651 76.1915L472.054 64.3714L468.449 64.8519L467.822 70.4977L465.309 65.4427L465.167 65.4639L461.585 65.9412L460.257 77.9084L463.769 77.4431ZM448.328 71.9186L456.877 70.8153L456.43 74.2903L447.881 75.3936L448.328 71.9186ZM448.814 67.6997L460.33 66.1062L459.942 69.6809L448.366 71.1747L448.814 67.6997ZM447.797 76.1205L459.372 74.6265L458.925 78.1017L447.349 79.5956L447.797 76.1205ZM446.267 79.8371L447.689 67.8545L444.083 68.3352L443.16 76.6548L440 68.9507L439.696 68.9927L439.696 68.9923L428.582 70.5305L428.134 74.0057L437.782 72.7637L441.053 80.5733L444.56 80.0704L444.557 80.0635L446.267 79.8371ZM428.096 74.7496L436.645 73.6462L436.198 77.1212L427.649 78.2246L428.096 74.7496Z" fill="#EDEDED"/>
<path fill-rule="evenodd" clip-rule="evenodd" d="M446.267 79.8371L447.689 67.8545L444.083 68.3353L442.755 80.3294L446.267 79.8371Z" fill="#EDEDED"/>
<path fill-rule="evenodd" clip-rule="evenodd" d="M470.632 76.354L472.054 64.3714L468.449 64.852L467.168 76.8128L470.632 76.354Z" fill="#EDEDED"/>
<path fill-rule="evenodd" clip-rule="evenodd" d="M421.727 37.359L433.302 35.8652L432.855 39.3401L421.28 40.8341L421.727 37.359ZM473.126 25.8938L476.973 28.7033L472.38 29.4169L468.272 26.5376L473.126 25.8938ZM466.318 30.9864L477.662 29.4226L477.199 32.9616L465.908 34.5861L466.318 30.9864ZM467.66 22.4957L478.597 20.9968L478.149 24.472L467.212 25.9708L467.66 22.4957ZM457.931 35.8507L458.654 29.7591L461.341 35.118L461.331 35.2204L464.794 34.7617L464.81 34.6333L464.829 34.6307L464.814 34.5992L466.217 22.779L462.611 23.2596L461.984 28.9054L459.472 23.8503L459.329 23.8716L455.748 24.3489L454.419 36.3161L457.931 35.8507ZM442.491 30.3263L451.039 29.2229L450.592 32.6979L442.043 33.8013L442.491 30.3263ZM442.976 26.1074L454.492 24.5139L454.104 28.0886L442.529 29.5824L442.976 26.1074ZM441.959 34.5282L453.534 33.0342L453.087 36.5094L441.512 38.0032L441.959 34.5282ZM440.429 38.2447L441.851 26.2622L438.246 26.7429L437.322 35.0625L434.163 27.3583L433.859 27.4004L433.859 27.3999L422.744 28.9381L422.297 32.4133L431.944 31.1713L435.216 38.981L438.723 38.4781L438.72 38.4712L440.429 38.2447ZM422.259 33.1572L430.808 32.0539L430.36 35.5289L421.811 36.6322L422.259 33.1572Z" fill="#EDEDED"/>
<path fill-rule="evenodd" clip-rule="evenodd" d="M440.429 38.2448L441.852 26.2622L438.246 26.7429L436.917 38.7371L440.429 38.2448Z" fill="#EDEDED"/>
<path fill-rule="evenodd" clip-rule="evenodd" d="M464.794 34.7617L466.217 22.7791L462.611 23.2596L461.331 35.2204L464.794 34.7617Z" fill="#EDEDED"/>
<path fill-rule="evenodd" clip-rule="evenodd" d="M67.5662 87.0688L79.1414 85.575L78.6945 89.05L67.1191 90.544L67.5662 87.0688ZM118.965 75.6037L122.812 78.4131L118.219 79.1267L114.112 76.2475L118.965 75.6037ZM112.158 80.6963L123.501 79.1325L123.038 82.6714L111.747 84.296L112.158 80.6963ZM113.499 72.2056L124.436 70.7067L123.989 74.1818L113.052 75.6806L113.499 72.2056ZM103.77 85.5606L104.494 79.4689L107.181 84.8279L107.17 84.9302L110.634 84.4715L110.649 84.3431L110.669 84.3406L110.653 84.309L112.056 72.4889L108.45 72.9694L107.823 78.6152L105.311 73.5602L105.169 73.5814L101.587 74.0587L100.258 86.0259L103.77 85.5606ZM88.33 80.0361L96.8787 78.9328L96.4316 82.4078L87.8828 83.5111L88.33 80.0361ZM88.8155 75.8172L100.332 74.2237L99.9435 77.7984L88.3681 79.2922L88.8155 75.8172ZM87.7983 84.238L99.3735 82.744L98.9263 86.2192L87.3509 87.7131L87.7983 84.238ZM86.2685 87.9546L87.6908 75.972L84.0852 76.4527L83.1613 84.7723L80.002 77.0682L79.6982 77.1102L79.6981 77.1098L68.5834 78.648L68.1361 82.1232L77.7833 80.8812L81.0551 88.6908L84.5621 88.1879L84.5591 88.181L86.2685 87.9546ZM68.0982 82.8671L76.6469 81.7637L76.1997 85.2387L67.6508 86.3421L68.0982 82.8671Z" fill="#EDEDED"/>
<path fill-rule="evenodd" clip-rule="evenodd" d="M86.2685 87.9545L87.6909 75.972L84.0852 76.4527L82.7565 88.4469L86.2685 87.9545Z" fill="#EDEDED"/>
<path fill-rule="evenodd" clip-rule="evenodd" d="M110.634 84.4715L112.056 72.4889L108.45 72.9694L107.17 84.9302L110.634 84.4715Z" fill="#EDEDED"/>
<path fill-rule="evenodd" clip-rule="evenodd" d="M551.491 103.969L563.066 102.475L562.619 105.95L551.043 107.444L551.491 103.969ZM602.889 92.5037L606.736 95.3132L602.143 96.0268L598.036 93.1475L602.889 92.5037ZM596.082 97.5963L607.426 96.0325L606.963 99.5715L595.671 101.196L596.082 97.5963ZM597.423 89.1056L608.36 87.6067L607.913 91.0819L596.976 92.5806L597.423 89.1056ZM587.695 102.461L588.418 96.3689L591.105 101.728L591.094 101.83L594.558 101.372L594.573 101.243L594.593 101.241L594.577 101.209L595.98 89.3889L592.375 89.8695L591.748 95.5152L589.235 90.4602L589.093 90.4814L585.511 90.9588L584.183 102.926L587.695 102.461ZM572.254 96.9362L580.803 95.8328L580.356 99.3078L571.807 100.411L572.254 96.9362ZM572.74 92.7172L584.256 91.1237L583.868 94.6984L572.292 96.1922L572.74 92.7172ZM571.723 101.138L583.298 99.6441L582.851 103.119L571.275 104.613L571.723 101.138ZM570.193 104.855L571.615 92.872L568.009 93.3527L567.086 101.672L563.926 93.9682L563.623 94.0102L563.622 94.0098L552.508 95.548L552.06 99.0232L561.708 97.7812L564.979 105.591L568.486 105.088L568.483 105.081L570.193 104.855ZM552.022 99.7671L560.571 98.6637L560.124 102.139L551.575 103.242L552.022 99.7671Z" fill="#EDEDED"/>
<path fill-rule="evenodd" clip-rule="evenodd" d="M570.193 104.855L571.615 92.872L568.009 93.3527L566.681 105.347L570.193 104.855Z" fill="#EDEDED"/>
<path fill-rule="evenodd" clip-rule="evenodd" d="M594.558 101.371L595.98 89.3889L592.375 89.8694L591.094 101.83L594.558 101.371Z" fill="#EDEDED"/>
<path fill-rule="evenodd" clip-rule="evenodd" d="M545.653 62.3765L557.228 60.8827L556.781 64.3577L545.206 65.8517L545.653 62.3765ZM597.052 50.9113L600.899 53.7208L596.306 54.4344L592.198 51.5552L597.052 50.9113ZM590.244 56.0039L601.588 54.4402L601.125 57.9791L589.833 59.6037L590.244 56.0039ZM591.585 47.5133L602.522 46.0143L602.075 49.4895L591.138 50.9883L591.585 47.5133ZM581.857 60.8683L582.58 54.7766L585.267 60.1356L585.256 60.2379L588.72 59.7792L588.735 59.6508L588.755 59.6483L588.739 59.6167L590.143 47.7966L586.537 48.2771L585.91 53.9229L583.398 48.8679L583.255 48.8891L579.674 49.3664L578.345 61.3336L581.857 60.8683ZM566.416 55.3438L574.965 54.2405L574.518 57.7154L565.969 58.8188L566.416 55.3438ZM566.902 51.1249L578.418 49.5314L578.03 53.1061L566.455 54.5999L566.902 51.1249ZM565.885 59.5457L577.46 58.0517L577.013 61.5269L565.437 63.0207L565.885 59.5457ZM564.355 63.2622L565.777 51.2797L562.172 51.7604L561.248 60.08L558.088 52.3758L557.785 52.4179L557.785 52.4175L546.67 53.9556L546.223 57.4309L555.87 56.1889L559.142 63.9985L562.649 63.4956L562.646 63.4887L564.355 63.2622ZM546.185 58.1747L554.733 57.0714L554.286 60.5464L545.737 61.6498L546.185 58.1747Z" fill="#EDEDED"/>
<path fill-rule="evenodd" clip-rule="evenodd" d="M564.355 63.2623L565.777 51.2797L562.172 51.7604L560.843 63.7546L564.355 63.2623Z" fill="#EDEDED"/>
<path fill-rule="evenodd" clip-rule="evenodd" d="M588.72 59.7792L590.143 47.7966L586.537 48.2772L585.256 60.2379L588.72 59.7792Z" fill="#EDEDED"/>
<path fill-rule="evenodd" clip-rule="evenodd" d="M539.815 20.7842L551.39 19.2904L550.943 22.7654L539.368 24.2594L539.815 20.7842ZM591.214 9.31906L595.061 12.1285L590.468 12.8421L586.36 9.96287L591.214 9.31906ZM584.406 14.4116L595.75 12.8479L595.287 16.3868L583.996 18.0114L584.406 14.4116ZM585.748 5.92097L596.685 4.42206L596.238 7.89724L585.3 9.39599L585.748 5.92097ZM576.019 19.276L576.742 13.1843L579.43 18.5433L579.419 18.6456L582.882 18.1869L582.898 18.0585L582.917 18.056L582.902 18.0244L584.305 6.20427L580.699 6.68483L580.072 12.3306L577.56 7.27557L577.417 7.29681L573.836 7.77413L572.507 19.7413L576.019 19.276ZM560.579 13.7515L569.128 12.6482L568.68 16.1232L560.132 17.2265L560.579 13.7515ZM561.064 9.53259L572.58 7.93909L572.192 11.5138L560.617 13.0076L561.064 9.53259ZM560.047 17.9534L571.622 16.4594L571.175 19.9346L559.6 21.4284L560.047 17.9534ZM558.517 21.67L559.94 9.68739L556.334 10.1681L555.41 18.4877L552.251 10.7836L551.947 10.8256L551.947 10.8252L540.832 12.3634L540.385 15.8386L550.032 14.5966L553.304 22.4062L556.811 21.9033L556.808 21.8964L558.517 21.67ZM540.347 16.5825L548.896 15.4791L548.449 18.9541L539.9 20.0575L540.347 16.5825Z" fill="#EDEDED"/>
<path fill-rule="evenodd" clip-rule="evenodd" d="M558.517 21.67L559.94 9.68742L556.334 10.1681L555.005 22.1623L558.517 21.67Z" fill="#EDEDED"/>
<path fill-rule="evenodd" clip-rule="evenodd" d="M582.882 18.1869L584.305 6.20431L580.699 6.68487L579.419 18.6457L582.882 18.1869Z" fill="#EDEDED"/>
<path fill-rule="evenodd" clip-rule="evenodd" d="M118.207 16.7724L129.782 15.2786L129.335 18.7536L117.76 20.2476L118.207 16.7724ZM169.606 5.30728L173.453 8.11674L168.86 8.83034L164.752 5.95109L169.606 5.30728ZM162.798 10.3999L174.142 8.8361L173.679 12.3751L162.387 13.9996L162.798 10.3999ZM164.139 1.90919L175.076 0.410278L174.629 3.88546L163.692 5.38421L164.139 1.90919ZM154.411 15.2642L155.134 9.17253L157.821 14.5315L157.81 14.6338L161.274 14.1751L161.289 14.0467L161.309 14.0442L161.293 14.0126L162.697 2.19249L159.091 2.67305L158.464 8.31881L155.952 3.26379L155.809 3.28503L152.228 3.76235L150.899 15.7296L154.411 15.2642ZM138.97 9.73975L147.519 8.63639L147.072 12.1114L138.523 13.2147L138.97 9.73975ZM139.456 5.52081L150.972 3.92731L150.584 7.50202L139.009 8.99582L139.456 5.52081ZM138.439 13.9417L150.014 12.4477L149.567 15.9228L137.991 17.4167L138.439 13.9417ZM136.909 17.6582L138.331 5.67561L134.726 6.15634L133.802 14.4759L130.642 6.77178L130.339 6.81381L130.339 6.8134L119.224 8.35158L118.777 11.8268L128.424 10.5848L131.696 18.3944L135.203 17.8916L135.2 17.8846L136.909 17.6582ZM118.739 12.5707L127.287 11.4673L126.84 14.9423L118.291 16.0457L118.739 12.5707Z" fill="#EDEDED"/>
<path fill-rule="evenodd" clip-rule="evenodd" d="M136.909 17.6582L138.331 5.67564L134.726 6.15637L133.397 18.1505L136.909 17.6582Z" fill="#EDEDED"/>
<path fill-rule="evenodd" clip-rule="evenodd" d="M161.274 14.1751L162.697 2.19253L159.091 2.67309L157.81 14.6339L161.274 14.1751Z" fill="#EDEDED"/>
<path fill-rule="evenodd" clip-rule="evenodd" d="M185.655 70.494L197.23 69.0002L196.783 72.4752L185.207 73.9692L185.655 70.494ZM237.053 59.0289L240.9 61.8384L236.307 62.552L232.2 59.6727L237.053 59.0289ZM230.246 64.1215L241.59 62.5577L241.127 66.0967L229.835 67.7212L230.246 64.1215ZM231.587 55.6308L242.524 54.1319L242.077 57.6071L231.14 59.1058L231.587 55.6308ZM221.859 68.9858L222.582 62.8942L225.269 68.2531L225.258 68.3554L228.722 67.8967L228.737 67.7684L228.757 67.7658L228.741 67.7343L230.144 55.9141L226.538 56.3947L225.912 62.0404L223.399 56.9854L223.257 57.0066L219.675 57.484L218.347 69.4512L221.859 68.9858ZM206.418 63.4614L214.967 62.358L214.52 65.833L205.971 66.9364L206.418 63.4614ZM206.904 59.2424L218.42 57.6489L218.032 61.2236L206.456 62.7174L206.904 59.2424ZM205.887 67.6633L217.462 66.1693L217.015 69.6445L205.439 71.1383L205.887 67.6633ZM204.357 71.3798L205.779 59.3972L202.173 59.878L201.25 68.1975L198.09 60.4934L197.786 60.5354L197.786 60.535L186.672 62.0732L186.224 65.5484L195.872 64.3064L199.143 72.116L202.65 71.6132L202.647 71.6062L204.357 71.3798ZM186.186 66.2923L194.735 65.189L194.288 68.6639L185.739 69.7673L186.186 66.2923Z" fill="#EDEDED"/>
<path fill-rule="evenodd" clip-rule="evenodd" d="M204.357 71.3798L205.779 59.3973L202.173 59.878L200.845 71.8722L204.357 71.3798Z" fill="#EDEDED"/>
<path fill-rule="evenodd" clip-rule="evenodd" d="M228.722 67.8968L230.144 55.9142L226.538 56.3947L225.258 68.3555L228.722 67.8968Z" fill="#EDEDED"/>
<path fill-rule="evenodd" clip-rule="evenodd" d="M241.967 41.3646L253.542 39.8708L253.095 43.3457L241.52 44.8398L241.967 41.3646ZM293.366 29.8994L297.213 32.7089L292.62 33.4225L288.512 30.5433L293.366 29.8994ZM286.558 34.992L297.902 33.4283L297.439 36.9672L286.148 38.5918L286.558 34.992ZM287.9 26.5014L298.837 25.0024L298.389 28.4776L287.452 29.9764L287.9 26.5014ZM278.171 39.8564L278.894 33.7647L281.581 39.1237L281.571 39.226L285.034 38.7673L285.05 38.6389L285.069 38.6364L285.054 38.6048L286.457 26.7847L282.851 27.2652L282.224 32.911L279.712 27.856L279.569 27.8772L275.988 28.3545L274.659 40.3217L278.171 39.8564ZM262.731 34.3319L271.279 33.2286L270.832 36.7035L262.283 37.8069L262.731 34.3319ZM263.216 30.113L274.732 28.5195L274.344 32.0942L262.769 33.588L263.216 30.113ZM262.199 38.5338L273.774 37.0398L273.327 40.515L261.752 42.0088L262.199 38.5338ZM260.669 42.2503L262.091 30.2678L258.486 30.7485L257.562 39.0681L254.403 31.3639L254.099 31.406L254.099 31.4056L242.984 32.9437L242.537 36.419L252.184 35.177L255.456 42.9866L258.963 42.4837L258.96 42.4768L260.669 42.2503ZM242.499 37.1628L251.048 36.0595L250.6 39.5345L242.051 40.6379L242.499 37.1628Z" fill="#EDEDED"/>
<path fill-rule="evenodd" clip-rule="evenodd" d="M260.669 42.2504L262.091 30.2678L258.486 30.7485L257.157 42.7427L260.669 42.2504Z" fill="#EDEDED"/>
<path fill-rule="evenodd" clip-rule="evenodd" d="M285.034 38.7673L286.457 26.7847L282.851 27.2653L281.571 39.226L285.034 38.7673Z" fill="#EDEDED"/>
<path fill-rule="evenodd" clip-rule="evenodd" d="M360.055 24.7897L371.63 23.296L371.183 26.7709L359.608 28.2649L360.055 24.7897ZM411.454 13.3246L415.301 16.1341L410.708 16.8477L406.6 13.9684L411.454 13.3246ZM404.646 18.4172L415.99 16.8534L415.527 20.3924L404.236 22.0169L404.646 18.4172ZM405.988 9.92653L416.925 8.42761L416.478 11.9028L405.54 13.4015L405.988 9.92653ZM396.259 23.2815L396.982 17.1899L399.67 22.5488L399.659 22.6512L403.122 22.1924L403.138 22.0641L403.157 22.0615L403.142 22.03L404.545 10.2098L400.939 10.6904L400.312 16.3361L397.8 11.2811L397.657 11.3024L394.076 11.7797L392.747 23.7469L396.259 23.2815ZM380.819 17.7571L389.368 16.6537L388.92 20.1287L380.372 21.2321L380.819 17.7571ZM381.304 13.5381L392.82 11.9446L392.432 15.5193L380.857 17.0132L381.304 13.5381ZM380.287 21.959L391.862 20.465L391.415 23.9402L379.84 25.434L380.287 21.959ZM378.757 25.6755L380.18 13.6929L376.574 14.1737L375.65 22.4932L372.491 14.7891L372.187 14.8311L372.187 14.8307L361.072 16.3689L360.625 19.8441L370.272 18.6021L373.544 26.4118L377.051 25.9089L377.048 25.9019L378.757 25.6755ZM360.587 20.588L369.136 19.4847L368.688 22.9597L360.14 24.063L360.587 20.588Z" fill="#EDEDED"/>
<path fill-rule="evenodd" clip-rule="evenodd" d="M378.757 25.6755L380.18 13.693L376.574 14.1737L375.245 26.1679L378.757 25.6755Z" fill="#EDEDED"/>
<path fill-rule="evenodd" clip-rule="evenodd" d="M403.122 22.1925L404.545 10.2099L400.939 10.6904L399.659 22.6512L403.122 22.1925Z" fill="#EDEDED"/>
<path fill-rule="evenodd" clip-rule="evenodd" d="M5.8945 74.4996L17.4697 73.0058L17.0227 76.4808L5.44735 77.9748L5.8945 74.4996ZM57.2933 63.0345L61.1403 65.8439L56.5473 66.5575L52.4398 63.6783L57.2933 63.0345ZM50.4859 68.127L61.8295 66.5633L61.3666 70.1022L50.0752 71.7268L50.4859 68.127ZM51.8273 59.6364L62.7642 58.1375L62.3171 61.6126L51.3799 63.1114L51.8273 59.6364ZM42.0987 72.9914L42.8219 66.8997L45.5091 72.2587L45.4983 72.361L48.9619 71.9023L48.9772 71.7739L48.9969 71.7714L48.9812 71.7398L50.3844 59.9197L46.7785 60.4002L46.1517 66.046L43.6394 60.991L43.4968 61.0122L39.9153 61.4895L38.5866 73.4567L42.0987 72.9914ZM26.6582 67.4669L35.207 66.3636L34.7598 69.8386L26.2111 70.9419L26.6582 67.4669ZM27.1438 63.248L38.66 61.6545L38.2718 65.2292L26.6964 66.723L27.1438 63.248ZM26.1266 71.6688L37.7017 70.1748L37.2546 73.65L25.6792 75.1438L26.1266 71.6688ZM24.5968 75.3854L26.0191 63.4028L22.4134 63.8835L21.4896 72.2031L18.3302 64.4989L18.0265 64.541L18.0264 64.5406L6.91168 66.0788L6.46434 69.554L16.1116 68.312L19.3833 76.1216L22.8904 75.6187L22.8874 75.6118L24.5968 75.3854ZM6.4264 70.2979L14.9751 69.1945L14.528 72.6695L5.97903 73.7729L6.4264 70.2979Z" fill="#EDEDED"/>
<path fill-rule="evenodd" clip-rule="evenodd" d="M24.5968 75.3854L26.0191 63.4028L22.4134 63.8835L21.0847 75.8777L24.5968 75.3854Z" fill="#EDEDED"/>
<path fill-rule="evenodd" clip-rule="evenodd" d="M48.9619 71.9023L50.3844 59.9197L46.7785 60.4003L45.4983 72.361L48.9619 71.9023Z" fill="#EDEDED"/>
<path fill-rule="evenodd" clip-rule="evenodd" d="M123.983 57.9248L135.558 56.431L135.111 59.9059L123.536 61.3999L123.983 57.9248ZM175.382 46.4596L179.229 49.2691L174.636 49.9827L170.528 47.1034L175.382 46.4596ZM168.574 51.5522L179.918 49.9884L179.455 53.5274L168.163 55.1519L168.574 51.5522ZM169.916 43.0615L180.852 41.5626L180.405 45.0378L169.468 46.5366L169.916 43.0615ZM160.187 56.4165L160.91 50.3249L163.597 55.6838L163.587 55.7862L167.05 55.3275L167.065 55.1991L167.085 55.1965L167.069 55.165L168.473 43.3448L164.867 43.8254L164.24 49.4712L161.728 44.4161L161.585 44.4374L158.004 44.9147L156.675 56.8819L160.187 56.4165ZM144.747 50.8921L153.295 49.7887L152.848 53.2637L144.299 54.3671L144.747 50.8921ZM145.232 46.6732L156.748 45.0797L156.36 48.6544L144.785 50.1482L145.232 46.6732ZM144.215 55.094L155.79 53.6L155.343 57.0752L143.767 58.569L144.215 55.094ZM142.685 58.8105L144.107 46.828L140.502 47.3087L139.578 55.6283L136.418 47.9241L136.115 47.9662L136.115 47.9657L125 49.5039L124.553 52.9791L134.2 51.7371L137.472 59.5468L140.979 59.0439L140.976 59.037L142.685 58.8105ZM124.515 53.723L133.063 52.6197L132.616 56.0947L124.067 57.198L124.515 53.723Z" fill="#EDEDED"/>
<path fill-rule="evenodd" clip-rule="evenodd" d="M142.685 58.8106L144.107 46.828L140.502 47.3087L139.173 59.3029L142.685 58.8106Z" fill="#EDEDED"/>
<path fill-rule="evenodd" clip-rule="evenodd" d="M167.05 55.3275L168.473 43.3449L164.867 43.8254L163.587 55.7862L167.05 55.3275Z" fill="#EDEDED"/>
<g clip-path="url(#clip1_78_548)">
<path fill-rule="evenodd" clip-rule="evenodd" d="M563.497 186.24L575.072 184.746L574.625 188.221L563.05 189.715L563.497 186.24ZM614.895 174.775L618.743 177.584L614.15 178.298L610.042 175.419L614.895 174.775ZM608.088 179.868L619.432 178.304L618.969 181.843L607.677 183.467L608.088 179.868ZM609.429 171.377L620.366 169.878L619.919 173.353L608.982 174.852L609.429 171.377ZM599.701 184.732L600.424 178.64L603.111 183.999L603.1 184.101L606.564 183.643L606.579 183.514L606.599 183.512L606.583 183.48L607.987 171.66L604.381 172.141L603.754 177.786L601.242 172.731L601.099 172.753L597.518 173.23L596.189 185.197L599.701 184.732ZM584.26 179.207L592.809 178.104L592.362 181.579L583.813 182.682L584.26 179.207ZM584.746 174.988L596.262 173.395L595.874 176.97L584.299 178.463L584.746 174.988ZM583.729 183.409L595.304 181.915L594.857 185.39L583.281 186.884L583.729 183.409ZM582.199 187.126L583.621 175.143L580.016 175.624L579.092 183.944L575.932 176.239L575.629 176.281L575.629 176.281L564.514 177.819L564.067 181.294L573.714 180.052L576.985 187.862L580.493 187.359L580.49 187.352L582.199 187.126ZM564.029 182.038L572.577 180.935L572.13 184.41L563.581 185.513L564.029 182.038Z" fill="#EDEDED"/>
<path fill-rule="evenodd" clip-rule="evenodd" d="M582.199 187.126L583.621 175.143L580.016 175.624L578.687 187.618L582.199 187.126Z" fill="#EDEDED"/>
<path fill-rule="evenodd" clip-rule="evenodd" d="M606.564 183.643L607.987 171.66L604.381 172.141L603.1 184.101L606.564 183.643Z" fill="#EDEDED"/>
<path fill-rule="evenodd" clip-rule="evenodd" d="M557.659 144.648L569.234 143.154L568.787 146.629L557.212 148.123L557.659 144.648ZM609.058 133.183L612.905 135.992L608.312 136.706L604.204 133.827L609.058 133.183ZM602.25 138.275L613.594 136.712L613.131 140.251L601.84 141.875L602.25 138.275ZM603.592 129.785L614.529 128.286L614.081 131.761L603.144 133.26L603.592 129.785ZM593.863 143.14L594.586 137.048L597.273 142.407L597.263 142.509L600.726 142.051L600.742 141.922L600.761 141.92L600.746 141.888L602.149 130.068L598.543 130.549L597.916 136.194L595.404 131.139L595.261 131.161L591.68 131.638L590.351 143.605L593.863 143.14ZM578.423 137.615L586.971 136.512L586.524 139.987L577.975 141.09L578.423 137.615ZM578.908 133.396L590.424 131.803L590.036 135.378L578.461 136.871L578.908 133.396ZM577.891 141.817L589.466 140.323L589.019 143.798L577.444 145.292L577.891 141.817ZM576.361 145.534L577.783 133.551L574.178 134.032L573.254 142.351L570.095 134.647L569.791 134.689L569.791 134.689L558.676 136.227L558.229 139.702L567.876 138.46L571.148 146.27L574.655 145.767L574.652 145.76L576.361 145.534ZM558.191 140.446L566.74 139.343L566.292 142.818L557.743 143.921L558.191 140.446Z" fill="#EDEDED"/>
<path fill-rule="evenodd" clip-rule="evenodd" d="M576.361 145.534L577.784 133.551L574.178 134.032L572.849 146.026L576.361 145.534Z" fill="#EDEDED"/>
<path fill-rule="evenodd" clip-rule="evenodd" d="M600.726 142.051L602.149 130.068L598.543 130.549L597.263 142.509L600.726 142.051Z" fill="#EDEDED"/>
<path fill-rule="evenodd" clip-rule="evenodd" d="M439.571 161.223L451.146 159.729L450.699 163.204L439.124 164.698L439.571 161.223ZM490.969 149.757L494.816 152.567L490.223 153.281L486.116 150.401L490.969 149.757ZM484.162 154.85L495.506 153.286L495.043 156.825L483.751 158.45L484.162 154.85ZM485.503 146.359L496.44 144.86L495.993 148.336L485.056 149.834L485.503 146.359ZM475.775 159.714L476.498 153.623L479.185 158.982L479.174 159.084L482.638 158.625L482.653 158.497L482.673 158.494L482.657 158.463L484.061 146.643L480.455 147.123L479.828 152.769L477.316 147.714L477.173 147.735L473.591 148.213L472.263 160.18L475.775 159.714ZM460.334 154.19L468.883 153.087L468.436 156.562L459.887 157.665L460.334 154.19ZM460.82 149.971L472.336 148.378L471.948 151.952L460.373 153.446L460.82 149.971ZM459.803 158.392L471.378 156.898L470.931 160.373L459.355 161.867L459.803 158.392ZM458.273 162.108L459.695 150.126L456.09 150.607L455.166 158.926L452.006 151.222L451.703 151.264L451.703 151.264L440.588 152.802L440.14 156.277L449.788 155.035L453.059 162.845L456.567 162.342L456.564 162.335L458.273 162.108ZM440.103 157.021L448.651 155.918L448.204 159.393L439.655 160.496L440.103 157.021Z" fill="#EDEDED"/>
<path fill-rule="evenodd" clip-rule="evenodd" d="M458.273 162.108L459.695 150.126L456.09 150.607L454.761 162.601L458.273 162.108Z" fill="#EDEDED"/>
<path fill-rule="evenodd" clip-rule="evenodd" d="M482.638 158.625L484.061 146.643L480.455 147.123L479.174 159.084L482.638 158.625Z" fill="#EDEDED"/>
<path fill-rule="evenodd" clip-rule="evenodd" d="M444.571 201.223L456.146 199.729L455.699 203.204L444.124 204.698L444.571 201.223ZM495.969 189.757L499.816 192.567L495.223 193.281L491.116 190.401L495.969 189.757ZM489.162 194.85L500.506 193.286L500.043 196.825L488.751 198.45L489.162 194.85ZM490.503 186.359L501.44 184.86L500.993 188.336L490.056 189.834L490.503 186.359ZM480.775 199.714L481.498 193.623L484.185 198.982L484.174 199.084L487.638 198.625L487.653 198.497L487.673 198.494L487.657 198.463L489.061 186.643L485.455 187.123L484.828 192.769L482.316 187.714L482.173 187.735L478.591 188.213L477.263 200.18L480.775 199.714ZM465.334 194.19L473.883 193.087L473.436 196.562L464.887 197.665L465.334 194.19ZM465.82 189.971L477.336 188.378L476.948 191.952L465.373 193.446L465.82 189.971ZM464.803 198.392L476.378 196.898L475.931 200.373L464.355 201.867L464.803 198.392ZM463.273 202.108L464.695 190.126L461.09 190.607L460.166 198.926L457.006 191.222L456.703 191.264L456.703 191.264L445.588 192.802L445.14 196.277L454.788 195.035L458.059 202.845L461.567 202.342L461.564 202.335L463.273 202.108ZM445.103 197.021L453.651 195.918L453.204 199.393L444.655 200.496L445.103 197.021Z" fill="#EDEDED"/>
<path fill-rule="evenodd" clip-rule="evenodd" d="M487.638 198.625L489.061 186.643L485.455 187.123L484.174 199.084L487.638 198.625Z" fill="#EDEDED"/>
<path fill-rule="evenodd" clip-rule="evenodd" d="M371.075 108.398L382.65 106.904L382.204 110.379L370.628 111.873L371.075 108.398ZM422.474 96.9325L426.321 99.742L421.728 100.456L417.621 97.5763L422.474 96.9325ZM415.667 102.025L427.01 100.461L426.547 104L415.256 105.625L415.667 102.025ZM417.008 93.5344L427.945 92.0355L427.498 95.5107L416.561 97.0095L417.008 93.5344ZM407.279 106.889L408.003 100.798L410.69 106.157L410.679 106.259L414.143 105.8L414.158 105.672L414.178 105.669L414.162 105.638L415.565 93.8177L411.959 94.2983L411.332 99.9441L408.82 94.889L408.678 94.9103L405.096 95.3876L403.767 107.355L407.279 106.889ZM391.839 101.365L400.388 100.262L399.941 103.737L391.392 104.84L391.839 101.365ZM392.325 97.1461L403.841 95.5526L403.453 99.1273L391.877 100.621L392.325 97.1461ZM391.307 105.567L402.883 104.073L402.435 107.548L390.86 109.042L391.307 105.567ZM389.778 109.283L391.2 97.3009L387.594 97.7816L386.67 106.101L383.511 98.397L383.207 98.4391L383.207 98.4386L372.092 99.9768L371.645 103.452L381.292 102.21L384.564 110.02L388.071 109.517L388.068 109.51L389.778 109.283ZM371.607 104.196L380.156 103.093L379.709 106.568L371.16 107.671L371.607 104.196Z" fill="#EDEDED"/>
<path fill-rule="evenodd" clip-rule="evenodd" d="M389.778 109.283L391.2 97.3008L387.594 97.7816L386.266 109.776L389.778 109.283Z" fill="#EDEDED"/>
<path fill-rule="evenodd" clip-rule="evenodd" d="M414.143 105.8L415.565 93.8177L411.959 94.2983L410.679 106.259L414.143 105.8Z" fill="#EDEDED"/>
<path fill-rule="evenodd" clip-rule="evenodd" d="M321.587 177.783L333.162 176.289L332.715 179.764L321.14 181.258L321.587 177.783ZM372.986 166.318L376.833 169.127L372.24 169.841L368.132 166.961L372.986 166.318ZM366.178 171.41L377.522 169.846L377.059 173.385L365.767 175.01L366.178 171.41ZM367.52 162.92L378.456 161.421L378.009 164.896L367.072 166.395L367.52 162.92ZM357.791 176.275L358.514 170.183L361.201 175.542L361.191 175.644L364.654 175.185L364.669 175.057L364.689 175.055L364.673 175.023L366.077 163.203L362.471 163.683L361.844 169.329L359.332 164.274L359.189 164.295L355.608 164.773L354.279 176.74L357.791 176.275ZM342.351 170.75L350.899 169.647L350.452 173.122L341.903 174.225L342.351 170.75ZM342.836 166.531L354.352 164.938L353.964 168.512L342.389 170.006L342.836 166.531ZM341.819 174.952L353.394 173.458L352.947 176.933L341.371 178.427L341.819 174.952ZM340.289 178.669L341.711 166.686L338.106 167.167L337.182 175.486L334.022 167.782L333.719 167.824L333.719 167.824L322.604 169.362L322.157 172.837L331.804 171.595L335.076 179.405L338.583 178.902L338.58 178.895L340.289 178.669ZM322.119 173.581L330.667 172.478L330.22 175.953L321.671 177.056L322.119 173.581Z" fill="#EDEDED"/>
<path fill-rule="evenodd" clip-rule="evenodd" d="M340.289 178.669L341.711 166.686L338.106 167.167L336.777 179.161L340.289 178.669Z" fill="#EDEDED"/>
<path fill-rule="evenodd" clip-rule="evenodd" d="M364.654 175.185L366.077 163.203L362.471 163.683L361.191 175.644L364.654 175.185Z" fill="#EDEDED"/>
<path fill-rule="evenodd" clip-rule="evenodd" d="M383.476 190.526L395.052 189.032L394.605 192.507L383.029 194.001L383.476 190.526ZM434.875 179.061L438.722 181.87L434.129 182.584L430.022 179.705L434.875 179.061ZM428.068 184.154L439.411 182.59L438.949 186.129L427.657 187.753L428.068 184.154ZM429.409 175.663L440.346 174.164L439.899 177.639L428.962 179.138L429.409 175.663ZM419.681 189.018L420.404 182.926L423.091 188.285L423.08 188.387L426.544 187.929L426.559 187.8L426.579 187.798L426.563 187.766L427.966 175.946L424.36 176.427L423.734 182.072L421.221 177.017L421.079 177.039L417.497 177.516L416.168 189.483L419.681 189.018ZM404.24 183.493L412.789 182.39L412.342 185.865L403.793 186.968L404.24 183.493ZM404.726 179.274L416.242 177.681L415.854 181.256L404.278 182.749L404.726 179.274ZM403.708 187.695L415.284 186.201L414.836 189.677L403.261 191.17L403.708 187.695ZM402.179 191.412L403.601 179.429L399.995 179.91L399.071 188.23L395.912 180.525L395.608 180.567L395.608 180.567L384.494 182.105L384.046 185.58L393.694 184.338L396.965 192.148L400.472 191.645L400.469 191.638L402.179 191.412ZM384.008 186.324L392.557 185.221L392.11 188.696L383.561 189.799L384.008 186.324Z" fill="#EDEDED"/>
<path fill-rule="evenodd" clip-rule="evenodd" d="M402.179 191.412L403.601 179.429L399.995 179.91L398.667 191.904L402.179 191.412Z" fill="#EDEDED"/>
<path fill-rule="evenodd" clip-rule="evenodd" d="M426.544 187.929L427.966 175.946L424.36 176.427L423.08 188.387L426.544 187.929Z" fill="#EDEDED"/>
<path fill-rule="evenodd" clip-rule="evenodd" d="M377.639 148.934L389.214 147.44L388.767 150.915L377.192 152.409L377.639 148.934ZM429.038 137.469L432.885 140.278L428.292 140.992L424.184 138.112L429.038 137.469ZM422.23 142.561L433.574 140.997L433.111 144.536L421.819 146.161L422.23 142.561ZM423.572 134.071L434.508 132.572L434.061 136.047L423.124 137.546L423.572 134.071ZM413.843 147.426L414.566 141.334L417.253 146.693L417.243 146.795L420.706 146.336L420.721 146.208L420.741 146.206L420.725 146.174L422.129 134.354L418.523 134.834L417.896 140.48L415.384 135.425L415.241 135.446L411.66 135.924L410.331 147.891L413.843 147.426ZM398.403 141.901L406.951 140.798L406.504 144.273L397.955 145.376L398.403 141.901ZM398.888 137.682L410.404 136.089L410.016 139.663L398.441 141.157L398.888 137.682ZM397.871 146.103L409.446 144.609L408.999 148.084L397.423 149.578L397.871 146.103ZM396.341 149.82L397.763 137.837L394.158 138.318L393.234 146.637L390.074 138.933L389.771 138.975L389.771 138.975L378.656 140.513L378.209 143.988L387.856 142.746L391.128 150.556L394.635 150.053L394.632 150.046L396.341 149.82ZM378.171 144.732L386.719 143.629L386.272 147.104L377.723 148.207L378.171 144.732Z" fill="#EDEDED"/>
<path fill-rule="evenodd" clip-rule="evenodd" d="M396.341 149.82L397.763 137.837L394.158 138.318L392.829 150.312L396.341 149.82Z" fill="#EDEDED"/>
<path fill-rule="evenodd" clip-rule="evenodd" d="M420.706 146.336L422.129 134.354L418.523 134.834L417.243 146.795L420.706 146.336Z" fill="#EDEDED"/>
<path fill-rule="evenodd" clip-rule="evenodd" d="M501.565 173.951L513.14 172.458L512.693 175.933L501.117 177.427L501.565 173.951ZM552.963 162.486L556.81 165.296L552.217 166.009L548.11 163.13L552.963 162.486ZM546.156 167.579L557.5 166.015L557.037 169.554L545.745 171.179L546.156 167.579ZM547.497 159.088L558.434 157.589L557.987 161.064L547.05 162.563L547.497 159.088ZM537.769 172.443L538.492 166.351L541.179 171.71L541.168 171.813L544.632 171.354L544.647 171.226L544.667 171.223L544.651 171.192L546.054 159.371L542.449 159.852L541.822 165.498L539.309 160.443L539.167 160.464L535.585 160.941L534.257 172.909L537.769 172.443ZM522.328 166.919L530.877 165.815L530.43 169.29L521.881 170.394L522.328 166.919ZM522.814 162.7L534.33 161.106L533.942 164.681L522.366 166.175L522.814 162.7ZM521.797 171.121L533.372 169.627L532.925 173.102L521.349 174.596L521.797 171.121ZM520.267 174.837L521.689 162.855L518.083 163.335L517.16 171.655L514 163.951L513.696 163.993L513.696 163.992L502.582 165.531L502.134 169.006L511.782 167.764L515.053 175.573L518.56 175.071L518.557 175.064L520.267 174.837ZM502.096 169.75L510.645 168.646L510.198 172.121L501.649 173.225L502.096 169.75Z" fill="#EDEDED"/>
<path fill-rule="evenodd" clip-rule="evenodd" d="M520.267 174.837L521.689 162.855L518.083 163.335L516.755 175.329L520.267 174.837Z" fill="#EDEDED"/>
<path fill-rule="evenodd" clip-rule="evenodd" d="M544.632 171.354L546.054 159.371L542.449 159.852L541.168 171.813L544.632 171.354Z" fill="#EDEDED"/>
<path fill-rule="evenodd" clip-rule="evenodd" d="M495.727 132.359L507.302 130.865L506.855 134.34L495.28 135.834L495.727 132.359ZM547.126 120.894L550.973 123.703L546.38 124.417L542.272 121.538L547.126 120.894ZM540.318 125.987L551.662 124.423L551.199 127.962L539.908 129.586L540.318 125.987ZM541.66 117.496L552.597 115.997L552.149 119.472L541.212 120.971L541.66 117.496ZM531.931 130.851L532.654 124.759L535.341 130.118L535.331 130.22L538.794 129.762L538.81 129.633L538.829 129.631L538.814 129.599L540.217 117.779L536.611 118.26L535.984 123.905L533.472 118.85L533.329 118.872L529.748 119.349L528.419 131.316L531.931 130.851ZM516.491 125.326L525.039 124.223L524.592 127.698L516.043 128.801L516.491 125.326ZM516.976 121.107L528.492 119.514L528.104 123.089L516.529 124.582L516.976 121.107ZM515.959 129.528L527.534 128.034L527.087 131.51L515.512 133.003L515.959 129.528ZM514.429 133.245L515.851 121.262L512.246 121.743L511.322 130.063L508.163 122.358L507.859 122.4L507.859 122.4L496.744 123.938L496.297 127.413L505.944 126.171L509.216 133.981L512.723 133.478L512.72 133.471L514.429 133.245ZM496.259 128.157L504.808 127.054L504.36 130.529L495.811 131.632L496.259 128.157Z" fill="#EDEDED"/>
<path fill-rule="evenodd" clip-rule="evenodd" d="M514.429 133.245L515.852 121.262L512.246 121.743L510.917 133.737L514.429 133.245Z" fill="#EDEDED"/>
<path fill-rule="evenodd" clip-rule="evenodd" d="M538.794 129.762L540.217 117.779L536.611 118.26L535.331 130.22L538.794 129.762Z" fill="#EDEDED"/>
<path fill-rule="evenodd" clip-rule="evenodd" d="M315.967 136.365L327.542 134.871L327.095 138.346L315.52 139.84L315.967 136.365ZM367.366 124.9L371.213 127.709L366.62 128.423L362.512 125.543L367.366 124.9ZM360.558 129.992L371.902 128.428L371.439 131.967L360.148 133.592L360.558 129.992ZM361.9 121.501L372.837 120.003L372.389 123.478L361.452 124.976L361.9 121.501ZM352.171 134.856L352.894 128.765L355.581 134.124L355.571 134.226L359.034 133.767L359.05 133.639L359.069 133.636L359.054 133.605L360.457 121.785L356.851 122.265L356.224 127.911L353.712 122.856L353.569 122.877L349.988 123.355L348.659 135.322L352.171 134.856ZM336.731 129.332L345.279 128.229L344.832 131.704L336.283 132.807L336.731 129.332ZM337.216 125.113L348.732 123.52L348.344 127.094L336.769 128.588L337.216 125.113ZM336.199 133.534L347.774 132.04L347.327 135.515L335.752 137.009L336.199 133.534ZM334.669 137.25L336.091 125.268L332.486 125.749L331.562 134.068L328.403 126.364L328.099 126.406L328.099 126.406L316.984 127.944L316.537 131.419L326.184 130.177L329.456 137.987L332.963 137.484L332.96 137.477L334.669 137.25ZM316.499 132.163L325.048 131.06L324.6 134.535L316.051 135.638L316.499 132.163Z" fill="#EDEDED"/>
<path fill-rule="evenodd" clip-rule="evenodd" d="M334.669 137.25L336.091 125.268L332.486 125.749L331.157 137.743L334.669 137.25Z" fill="#EDEDED"/>
<path fill-rule="evenodd" clip-rule="evenodd" d="M359.034 133.767L360.457 121.785L356.851 122.265L355.571 134.226L359.034 133.767Z" fill="#EDEDED"/>
<path fill-rule="evenodd" clip-rule="evenodd" d="M434.055 119.79L445.63 118.296L445.183 121.771L433.608 123.265L434.055 119.79ZM485.454 108.325L489.301 111.134L484.708 111.848L480.6 108.968L485.454 108.325ZM478.646 113.417L489.99 111.853L489.527 115.392L478.236 117.017L478.646 113.417ZM479.988 104.927L490.925 103.428L490.478 106.903L479.54 108.402L479.988 104.927ZM470.259 118.282L470.982 112.19L473.67 117.549L473.659 117.651L477.122 117.192L477.138 117.064L477.157 117.062L477.142 117.03L478.545 105.21L474.939 105.69L474.312 111.336L471.8 106.281L471.657 106.302L468.076 106.78L466.747 118.747L470.259 118.282ZM454.819 112.757L463.368 111.654L462.92 115.129L454.372 116.232L454.819 112.757ZM455.304 108.538L466.82 106.945L466.432 110.519L454.857 112.013L455.304 108.538ZM454.287 116.959L465.862 115.465L465.415 118.94L453.84 120.434L454.287 116.959ZM452.757 120.676L454.18 108.693L450.574 109.174L449.65 117.493L446.491 109.789L446.187 109.831L446.187 109.831L435.072 111.369L434.625 114.844L444.272 113.602L447.544 121.412L451.051 120.909L451.048 120.902L452.757 120.676ZM434.587 115.588L443.136 114.485L442.688 117.96L434.14 119.063L434.587 115.588Z" fill="#EDEDED"/>
<path fill-rule="evenodd" clip-rule="evenodd" d="M452.757 120.675L454.18 108.693L450.574 109.174L449.245 121.168L452.757 120.675Z" fill="#EDEDED"/>
<path fill-rule="evenodd" clip-rule="evenodd" d="M477.122 117.192L478.545 105.21L474.939 105.69L473.659 117.651L477.122 117.192Z" fill="#EDEDED"/>
</g>
<path fill-rule="evenodd" clip-rule="evenodd" d="M203.497 195.24L215.072 193.746L214.625 197.221L203.05 198.715L203.497 195.24ZM254.895 183.775L258.743 186.584L254.15 187.298L250.042 184.419L254.895 183.775ZM248.088 188.868L259.432 187.304L258.969 190.843L247.677 192.467L248.088 188.868ZM249.429 180.377L260.366 178.878L259.919 182.353L248.982 183.852L249.429 180.377ZM239.701 193.732L240.424 187.64L243.111 192.999L243.1 193.101L246.564 192.643L246.579 192.514L246.599 192.512L246.583 192.48L247.987 180.66L244.381 181.141L243.754 186.786L241.242 181.731L241.099 181.753L237.518 182.23L236.189 194.197L239.701 193.732ZM224.26 188.207L232.809 187.104L232.362 190.579L223.813 191.682L224.26 188.207ZM224.746 183.988L236.262 182.395L235.874 185.97L224.299 187.463L224.746 183.988ZM223.729 192.409L235.304 190.915L234.857 194.39L223.281 195.884L223.729 192.409ZM222.199 196.126L223.621 184.143L220.016 184.624L219.092 192.944L215.932 185.239L215.629 185.281L215.629 185.281L204.514 186.819L204.067 190.294L213.714 189.052L216.985 196.862L220.493 196.359L220.49 196.352L222.199 196.126ZM204.029 191.038L212.577 189.935L212.13 193.41L203.581 194.513L204.029 191.038Z" fill="#EDEDED"/>
<path fill-rule="evenodd" clip-rule="evenodd" d="M222.199 196.126L223.621 184.143L220.016 184.624L218.687 196.618L222.199 196.126Z" fill="#EDEDED"/>
<path fill-rule="evenodd" clip-rule="evenodd" d="M246.564 192.643L247.987 180.66L244.381 181.141L243.1 193.101L246.564 192.643Z" fill="#EDEDED"/>
<path fill-rule="evenodd" clip-rule="evenodd" d="M197.659 153.648L209.234 152.154L208.787 155.629L197.212 157.123L197.659 153.648ZM249.058 142.183L252.905 144.992L248.312 145.706L244.204 142.827L249.058 142.183ZM242.25 147.275L253.594 145.712L253.131 149.251L241.84 150.875L242.25 147.275ZM243.592 138.785L254.529 137.286L254.081 140.761L243.144 142.26L243.592 138.785ZM233.863 152.14L234.586 146.048L237.273 151.407L237.263 151.509L240.726 151.051L240.742 150.922L240.761 150.92L240.746 150.888L242.149 139.068L238.543 139.549L237.916 145.194L235.404 140.139L235.261 140.161L231.68 140.638L230.351 152.605L233.863 152.14ZM218.423 146.615L226.971 145.512L226.524 148.987L217.975 150.09L218.423 146.615ZM218.908 142.396L230.424 140.803L230.036 144.378L218.461 145.871L218.908 142.396ZM217.891 150.817L229.466 149.323L229.019 152.798L217.444 154.292L217.891 150.817ZM216.361 154.534L217.783 142.551L214.178 143.032L213.254 151.351L210.095 143.647L209.791 143.689L209.791 143.689L198.676 145.227L198.229 148.702L207.876 147.46L211.148 155.27L214.655 154.767L214.652 154.76L216.361 154.534ZM198.191 149.446L206.74 148.343L206.292 151.818L197.743 152.921L198.191 149.446Z" fill="#EDEDED"/>
<path fill-rule="evenodd" clip-rule="evenodd" d="M216.361 154.534L217.784 142.551L214.178 143.032L212.849 155.026L216.361 154.534Z" fill="#EDEDED"/>
<path fill-rule="evenodd" clip-rule="evenodd" d="M240.726 151.051L242.149 139.068L238.543 139.549L237.263 151.509L240.726 151.051Z" fill="#EDEDED"/>
<path fill-rule="evenodd" clip-rule="evenodd" d="M79.5706 170.223L91.1458 168.729L90.6989 172.204L79.1235 173.698L79.5706 170.223ZM130.969 158.757L134.816 161.567L130.223 162.281L126.116 159.401L130.969 158.757ZM124.162 163.85L135.506 162.286L135.043 165.825L123.751 167.45L124.162 163.85ZM125.503 155.359L136.44 153.86L135.993 157.336L125.056 158.834L125.503 155.359ZM115.775 168.714L116.498 162.623L119.185 167.982L119.174 168.084L122.638 167.625L122.653 167.497L122.673 167.494L122.657 167.463L124.061 155.643L120.455 156.123L119.828 161.769L117.316 156.714L117.173 156.735L113.591 157.213L112.263 169.18L115.775 168.714ZM100.334 163.19L108.883 162.087L108.436 165.562L99.8872 166.665L100.334 163.19ZM100.82 158.971L112.336 157.378L111.948 160.952L100.373 162.446L100.82 158.971ZM99.8027 167.392L111.378 165.898L110.931 169.373L99.3553 170.867L99.8027 167.392ZM98.2729 171.108L99.6952 159.126L96.0895 159.607L95.1657 167.926L92.0064 160.222L91.7026 160.264L91.7025 160.264L80.5878 161.802L80.1405 165.277L89.7877 164.035L93.0595 171.845L96.5665 171.342L96.5635 171.335L98.2729 171.108ZM80.1025 166.021L88.6513 164.918L88.2041 168.393L79.6552 169.496L80.1025 166.021Z" fill="#EDEDED"/>
<path fill-rule="evenodd" clip-rule="evenodd" d="M98.2729 171.108L99.6953 159.126L96.0896 159.607L94.7609 171.601L98.2729 171.108Z" fill="#EDEDED"/>
<path fill-rule="evenodd" clip-rule="evenodd" d="M122.638 167.625L124.061 155.643L120.455 156.123L119.174 168.084L122.638 167.625Z" fill="#EDEDED"/>
<path fill-rule="evenodd" clip-rule="evenodd" d="M191.075 113.398L202.65 111.904L202.204 115.379L190.628 116.873L191.075 113.398ZM242.474 101.933L246.321 104.742L241.728 105.456L237.621 102.576L242.474 101.933ZM235.667 107.025L247.01 105.461L246.547 109L235.256 110.625L235.667 107.025ZM237.008 98.5344L247.945 97.0355L247.498 100.511L236.561 102.009L237.008 98.5344ZM227.279 111.889L228.003 105.798L230.69 111.157L230.679 111.259L234.143 110.8L234.158 110.672L234.178 110.669L234.162 110.638L235.565 98.8177L231.959 99.2983L231.332 104.944L228.82 99.889L228.678 99.9103L225.096 100.388L223.767 112.355L227.279 111.889ZM211.839 106.365L220.388 105.262L219.941 108.737L211.392 109.84L211.839 106.365ZM212.325 102.146L223.841 100.553L223.453 104.127L211.877 105.621L212.325 102.146ZM211.307 110.567L222.883 109.073L222.435 112.548L210.86 114.042L211.307 110.567ZM209.778 114.283L211.2 102.301L207.594 102.782L206.67 111.101L203.511 103.397L203.207 103.439L203.207 103.439L192.092 104.977L191.645 108.452L201.292 107.21L204.564 115.02L208.071 114.517L208.068 114.51L209.778 114.283ZM191.607 109.196L200.156 108.093L199.709 111.568L191.16 112.671L191.607 109.196Z" fill="#EDEDED"/>
<path fill-rule="evenodd" clip-rule="evenodd" d="M209.778 114.283L211.2 102.301L207.594 102.782L206.266 114.776L209.778 114.283Z" fill="#EDEDED"/>
<path fill-rule="evenodd" clip-rule="evenodd" d="M234.143 110.8L235.565 98.8177L231.959 99.2983L230.679 111.259L234.143 110.8Z" fill="#EDEDED"/>
<path fill-rule="evenodd" clip-rule="evenodd" d="M11.0753 117.398L22.6505 115.904L22.2035 119.379L10.6281 120.873L11.0753 117.398ZM62.4741 105.933L66.3211 108.742L61.7281 109.456L57.6206 106.576L62.4741 105.933ZM55.6667 111.025L67.0103 109.461L66.5474 113L55.256 114.625L55.6667 111.025ZM57.0081 102.534L67.945 101.036L67.4979 104.511L56.5607 106.009L57.0081 102.534ZM47.2795 115.889L48.0026 109.798L50.6899 115.157L50.6791 115.259L54.1427 114.8L54.158 114.672L54.1776 114.669L54.162 114.638L55.5652 102.818L51.9593 103.298L51.3324 108.944L48.8202 103.889L48.6775 103.91L45.0961 104.388L43.7674 116.355L47.2795 115.889ZM31.839 110.365L40.3878 109.262L39.9406 112.737L31.3919 113.84L31.839 110.365ZM32.3245 106.146L43.8408 104.553L43.4526 108.127L31.8772 109.621L32.3245 106.146ZM31.3074 114.567L42.8825 113.073L42.4354 116.548L30.86 118.042L31.3074 114.567ZM29.7776 118.283L31.1999 106.301L27.5942 106.782L26.6704 115.101L23.511 107.397L23.2072 107.439L23.2072 107.439L12.0925 108.977L11.6451 112.452L21.2924 111.21L24.5641 119.02L28.0712 118.517L28.0681 118.51L29.7776 118.283ZM11.6072 113.196L20.1559 112.093L19.7088 115.568L11.1598 116.671L11.6072 113.196Z" fill="#EDEDED"/>
<path fill-rule="evenodd" clip-rule="evenodd" d="M29.7776 118.283L31.1999 106.301L27.5942 106.782L26.2655 118.776L29.7776 118.283Z" fill="#EDEDED"/>
<path fill-rule="evenodd" clip-rule="evenodd" d="M54.1427 114.8L55.5652 102.818L51.9593 103.298L50.6791 115.259L54.1427 114.8Z" fill="#EDEDED"/>
<path fill-rule="evenodd" clip-rule="evenodd" d="M-38.4132 186.783L-26.8381 185.289L-27.285 188.764L-38.8604 190.258L-38.4132 186.783ZM12.9856 175.318L16.8326 178.127L12.2396 178.841L8.13203 175.961L12.9856 175.318ZM6.17814 180.41L17.5218 178.846L17.0589 182.385L5.7675 184.01L6.17814 180.41ZM7.51953 171.92L18.4565 170.421L18.0093 173.896L7.07216 175.395L7.51953 171.92ZM-2.20904 185.275L-1.48588 179.183L1.20134 184.542L1.19055 184.644L4.65413 184.185L4.66945 184.057L4.68912 184.055L4.67345 184.023L6.07664 172.203L2.47072 172.683L1.84391 178.329L-0.66834 173.274L-0.810987 173.295L-4.39241 173.773L-5.72117 185.74L-2.20904 185.275ZM-17.6495 179.75L-9.10075 178.647L-9.54792 182.122L-18.0967 183.225L-17.6495 179.75ZM-17.164 175.531L-5.64777 173.938L-6.03595 177.512L-17.6114 179.006L-17.164 175.531ZM-18.1812 183.952L-6.60601 182.458L-7.05316 185.933L-18.6286 187.427L-18.1812 183.952ZM-19.711 187.669L-18.2886 175.686L-21.8943 176.167L-22.8182 184.486L-25.9775 176.782L-26.2813 176.824L-26.2813 176.824L-37.3961 178.362L-37.8434 181.837L-28.1961 180.595L-24.9244 188.405L-21.4173 187.902L-21.4204 187.895L-19.711 187.669ZM-37.8813 182.581L-29.3326 181.478L-29.7798 184.953L-38.3287 186.056L-37.8813 182.581Z" fill="#EDEDED"/>
<path fill-rule="evenodd" clip-rule="evenodd" d="M4.65415 184.185L6.07666 172.203L2.47075 172.683L1.19058 184.644L4.65415 184.185Z" fill="#EDEDED"/>
<path fill-rule="evenodd" clip-rule="evenodd" d="M23.4764 199.526L35.0516 198.032L34.6046 201.507L23.0293 203.001L23.4764 199.526ZM74.8752 188.061L78.7223 190.87L74.1293 191.584L70.0217 188.705L74.8752 188.061ZM68.0678 193.154L79.4114 191.59L78.9485 195.129L67.6571 196.753L68.0678 193.154ZM69.4092 184.663L80.3461 183.164L79.899 186.639L68.9618 188.138L69.4092 184.663ZM59.6806 198.018L60.4038 191.926L63.091 197.285L63.0802 197.387L66.5438 196.929L66.5591 196.8L66.5788 196.798L66.5631 196.766L67.9663 184.946L64.3604 185.427L63.7336 191.072L61.2213 186.017L61.0787 186.039L57.4972 186.516L56.1685 198.483L59.6806 198.018ZM44.2402 192.493L52.7889 191.39L52.3417 194.865L43.793 195.968L44.2402 192.493ZM44.7257 188.274L56.2419 186.681L55.8537 190.256L44.2783 191.749L44.7257 188.274ZM43.7085 196.695L55.2836 195.201L54.8365 198.677L43.2611 200.17L43.7085 196.695ZM42.1787 200.412L43.601 188.429L39.9953 188.91L39.0715 197.23L35.9121 189.525L35.6084 189.567L35.6083 189.567L24.4936 191.105L24.0463 194.58L33.6935 193.338L36.9652 201.148L40.4723 200.645L40.4693 200.638L42.1787 200.412ZM24.0083 195.324L32.5571 194.221L32.1099 197.696L23.5609 198.799L24.0083 195.324Z" fill="#EDEDED"/>
<path fill-rule="evenodd" clip-rule="evenodd" d="M42.1787 200.412L43.601 188.429L39.9953 188.91L38.6667 200.904L42.1787 200.412Z" fill="#EDEDED"/>
<path fill-rule="evenodd" clip-rule="evenodd" d="M66.5438 196.929L67.9663 184.946L64.3604 185.427L63.0802 197.387L66.5438 196.929Z" fill="#EDEDED"/>
<path fill-rule="evenodd" clip-rule="evenodd" d="M17.6388 157.934L29.2139 156.44L28.767 159.915L17.1916 161.409L17.6388 157.934ZM69.0376 146.469L72.8846 149.278L68.2916 149.992L64.184 147.112L69.0376 146.469ZM62.2301 151.561L73.5738 149.997L73.1109 153.536L61.8195 155.161L62.2301 151.561ZM63.5715 143.071L74.5085 141.572L74.0614 145.047L63.1242 146.546L63.5715 143.071ZM53.843 156.426L54.5661 150.334L57.2533 155.693L57.2426 155.795L60.7061 155.336L60.7214 155.208L60.7411 155.206L60.7255 155.174L62.1286 143.354L58.5227 143.834L57.8959 149.48L55.3837 144.425L55.241 144.446L51.6596 144.924L50.3308 156.891L53.843 156.426ZM38.4025 150.901L46.9513 149.798L46.5041 153.273L37.9553 154.376L38.4025 150.901ZM38.888 146.682L50.4042 145.089L50.0161 148.663L38.4406 150.157L38.888 146.682ZM37.8708 155.103L49.446 153.609L48.9988 157.084L37.4234 158.578L37.8708 155.103ZM36.341 158.82L37.7634 146.837L34.1577 147.318L33.2338 155.637L30.0745 147.933L29.7707 147.975L29.7707 147.975L18.6559 149.513L18.2086 152.988L27.8559 151.746L31.1276 159.556L34.6347 159.053L34.6316 159.046L36.341 158.82ZM18.1707 153.732L26.7194 152.629L26.2722 156.104L17.7233 157.207L18.1707 153.732Z" fill="#EDEDED"/>
<path fill-rule="evenodd" clip-rule="evenodd" d="M36.341 158.82L37.7634 146.837L34.1577 147.318L32.829 159.312L36.341 158.82Z" fill="#EDEDED"/>
<path fill-rule="evenodd" clip-rule="evenodd" d="M60.7062 155.336L62.1287 143.354L58.5228 143.834L57.2426 155.795L60.7062 155.336Z" fill="#EDEDED"/>
<path fill-rule="evenodd" clip-rule="evenodd" d="M141.565 182.951L153.14 181.458L152.693 184.933L141.117 186.427L141.565 182.951ZM192.963 171.486L196.81 174.296L192.217 175.009L188.11 172.13L192.963 171.486ZM186.156 176.579L197.5 175.015L197.037 178.554L185.745 180.179L186.156 176.579ZM187.497 168.088L198.434 166.589L197.987 170.064L187.05 171.563L187.497 168.088ZM177.769 181.443L178.492 175.351L181.179 180.71L181.168 180.813L184.632 180.354L184.647 180.226L184.667 180.223L184.651 180.192L186.054 168.371L182.449 168.852L181.822 174.498L179.309 169.443L179.167 169.464L175.585 169.941L174.257 181.909L177.769 181.443ZM162.328 175.919L170.877 174.815L170.43 178.29L161.881 179.394L162.328 175.919ZM162.814 171.7L174.33 170.106L173.942 173.681L162.366 175.175L162.814 171.7ZM161.797 180.121L173.372 178.627L172.925 182.102L161.349 183.596L161.797 180.121ZM160.267 183.837L161.689 171.855L158.083 172.335L157.16 180.655L154 172.951L153.696 172.993L153.696 172.992L142.582 174.531L142.134 178.006L151.782 176.764L155.053 184.573L158.56 184.071L158.557 184.064L160.267 183.837ZM142.096 178.75L150.645 177.646L150.198 181.121L141.649 182.225L142.096 178.75Z" fill="#EDEDED"/>
<path fill-rule="evenodd" clip-rule="evenodd" d="M160.267 183.837L161.689 171.855L158.083 172.335L156.755 184.329L160.267 183.837Z" fill="#EDEDED"/>
<path fill-rule="evenodd" clip-rule="evenodd" d="M184.632 180.354L186.054 168.371L182.449 168.852L181.168 180.813L184.632 180.354Z" fill="#EDEDED"/>
<path fill-rule="evenodd" clip-rule="evenodd" d="M135.727 141.359L147.302 139.865L146.855 143.34L135.28 144.834L135.727 141.359ZM187.126 129.894L190.973 132.703L186.38 133.417L182.272 130.538L187.126 129.894ZM180.318 134.987L191.662 133.423L191.199 136.962L179.908 138.586L180.318 134.987ZM181.66 126.496L192.597 124.997L192.149 128.472L181.212 129.971L181.66 126.496ZM171.931 139.851L172.654 133.759L175.341 139.118L175.331 139.22L178.794 138.762L178.81 138.633L178.829 138.631L178.814 138.599L180.217 126.779L176.611 127.26L175.984 132.905L173.472 127.85L173.329 127.872L169.748 128.349L168.419 140.316L171.931 139.851ZM156.491 134.326L165.039 133.223L164.592 136.698L156.043 137.801L156.491 134.326ZM156.976 130.107L168.492 128.514L168.104 132.089L156.529 133.582L156.976 130.107ZM155.959 138.528L167.534 137.034L167.087 140.51L155.512 142.003L155.959 138.528ZM154.429 142.245L155.851 130.262L152.246 130.743L151.322 139.063L148.163 131.358L147.859 131.4L147.859 131.4L136.744 132.938L136.297 136.413L145.944 135.171L149.216 142.981L152.723 142.478L152.72 142.471L154.429 142.245ZM136.259 137.157L144.808 136.054L144.36 139.529L135.811 140.632L136.259 137.157Z" fill="#EDEDED"/>
<path fill-rule="evenodd" clip-rule="evenodd" d="M154.429 142.245L155.852 130.262L152.246 130.743L150.917 142.737L154.429 142.245Z" fill="#EDEDED"/>
<path fill-rule="evenodd" clip-rule="evenodd" d="M178.794 138.762L180.217 126.779L176.611 127.26L175.331 139.22L178.794 138.762Z" fill="#EDEDED"/>
<path fill-rule="evenodd" clip-rule="evenodd" d="M259.653 166.377L271.228 164.883L270.781 168.358L259.206 169.852L259.653 166.377ZM311.052 154.911L314.899 157.721L310.306 158.434L306.198 155.555L311.052 154.911ZM304.244 160.004L315.588 158.44L315.125 161.979L303.833 163.604L304.244 160.004ZM305.585 151.513L316.522 150.014L316.075 153.49L305.138 154.988L305.585 151.513ZM295.857 164.868L296.58 158.777L299.267 164.136L299.256 164.238L302.72 163.779L302.735 163.651L302.755 163.648L302.739 163.617L304.143 151.797L300.537 152.277L299.91 157.923L297.398 152.868L297.255 152.889L293.674 153.366L292.345 165.334L295.857 164.868ZM280.416 159.344L288.965 158.241L288.518 161.716L279.969 162.819L280.416 159.344ZM280.902 155.125L292.418 153.531L292.03 157.106L280.455 158.6L280.902 155.125ZM279.885 163.546L291.46 162.052L291.013 165.527L279.437 167.021L279.885 163.546ZM278.355 167.262L279.777 155.28L276.172 155.76L275.248 164.08L272.088 156.376L271.785 156.418L271.785 156.418L260.67 157.956L260.223 161.431L269.87 160.189L273.142 167.999L276.649 167.496L276.646 167.489L278.355 167.262ZM260.185 162.175L268.733 161.071L268.286 164.546L259.737 165.65L260.185 162.175Z" fill="#EDEDED"/>
<path fill-rule="evenodd" clip-rule="evenodd" d="M278.355 167.262L279.777 155.28L276.172 155.76L274.843 167.755L278.355 167.262Z" fill="#EDEDED"/>
<path fill-rule="evenodd" clip-rule="evenodd" d="M302.72 163.779L304.143 151.797L300.537 152.277L299.256 164.238L302.72 163.779Z" fill="#EDEDED"/>
<path fill-rule="evenodd" clip-rule="evenodd" d="M253.815 124.784L265.39 123.29L264.943 126.765L253.368 128.259L253.815 124.784ZM305.214 113.319L309.061 116.129L304.468 116.842L300.36 113.963L305.214 113.319ZM298.406 118.412L309.75 116.848L309.287 120.387L297.996 122.011L298.406 118.412ZM299.748 109.921L310.685 108.422L310.238 111.897L299.3 113.396L299.748 109.921ZM290.019 123.276L290.742 117.184L293.43 122.543L293.419 122.646L296.882 122.187L296.898 122.059L296.917 122.056L296.902 122.024L298.305 110.204L294.699 110.685L294.072 116.331L291.56 111.276L291.417 111.297L287.836 111.774L286.507 123.741L290.019 123.276ZM274.579 117.752L283.128 116.648L282.68 120.123L274.132 121.227L274.579 117.752ZM275.064 113.533L286.58 111.939L286.192 115.514L274.617 117.008L275.064 113.533ZM274.047 121.953L285.622 120.459L285.175 123.935L273.6 125.429L274.047 121.953ZM272.517 125.67L273.94 113.687L270.334 114.168L269.41 122.488L266.251 114.784L265.947 114.826L265.947 114.825L254.832 116.363L254.385 119.839L264.032 118.597L267.304 126.406L270.811 125.903L270.808 125.896L272.517 125.67ZM254.347 120.583L262.896 119.479L262.449 122.954L253.9 124.058L254.347 120.583Z" fill="#EDEDED"/>
<path fill-rule="evenodd" clip-rule="evenodd" d="M272.517 125.67L273.94 113.687L270.334 114.168L269.005 126.162L272.517 125.67Z" fill="#EDEDED"/>
<path fill-rule="evenodd" clip-rule="evenodd" d="M296.882 122.187L298.305 110.204L294.699 110.685L293.419 122.646L296.882 122.187Z" fill="#EDEDED"/>
<path fill-rule="evenodd" clip-rule="evenodd" d="M-44.0331 145.365L-32.4579 143.871L-32.9049 147.346L-44.4803 148.84L-44.0331 145.365ZM7.36571 133.9L11.2127 136.709L6.61973 137.423L2.51216 134.543L7.36571 133.9ZM0.558271 138.992L11.9019 137.428L11.439 140.967L0.147623 142.592L0.558271 138.992ZM1.89965 130.501L12.8366 129.003L12.3895 132.478L1.45229 133.976L1.89965 130.501ZM-7.82891 143.856L-7.10575 137.765L-4.41854 143.124L-4.42932 143.226L-0.965746 142.767L-0.950427 142.639L-0.93075 142.636L-0.946424 142.605L0.456768 130.785L-3.14915 131.265L-3.77596 136.911L-6.28821 131.856L-6.43086 131.877L-10.0123 132.355L-11.341 144.322L-7.82891 143.856ZM-23.2694 138.332L-14.7206 137.229L-15.1678 140.704L-23.7165 141.807L-23.2694 138.332ZM-22.7839 134.113L-11.2676 132.52L-11.6558 136.094L-23.2312 137.588L-22.7839 134.113ZM-23.801 142.534L-12.2259 141.04L-12.673 144.515L-24.2484 146.009L-23.801 142.534ZM-25.3308 146.25L-23.9085 134.268L-27.5142 134.749L-28.438 143.068L-31.5974 135.364L-31.9012 135.406L-31.9012 135.406L-43.0159 136.944L-43.4633 140.419L-33.816 139.177L-30.5443 146.987L-27.0372 146.484L-27.0402 146.477L-25.3308 146.25ZM-43.5012 141.163L-34.9525 140.06L-35.3996 143.535L-43.9486 144.638L-43.5012 141.163Z" fill="#EDEDED"/>
<path fill-rule="evenodd" clip-rule="evenodd" d="M-0.965722 142.767L0.456792 130.785L-3.14912 131.265L-4.42929 143.226L-0.965722 142.767Z" fill="#EDEDED"/>
<path fill-rule="evenodd" clip-rule="evenodd" d="M74.055 128.79L85.6302 127.296L85.1833 130.771L73.6079 132.265L74.055 128.79ZM125.454 117.325L129.301 120.134L124.708 120.848L120.6 117.968L125.454 117.325ZM118.646 122.417L129.99 120.853L129.527 124.392L118.236 126.017L118.646 122.417ZM119.988 113.927L130.925 112.428L130.478 115.903L119.54 117.402L119.988 113.927ZM110.259 127.282L110.982 121.19L113.67 126.549L113.659 126.651L117.122 126.192L117.138 126.064L117.157 126.062L117.142 126.03L118.545 114.21L114.939 114.69L114.312 120.336L111.8 115.281L111.657 115.302L108.076 115.78L106.747 127.747L110.259 127.282ZM94.8188 121.757L103.368 120.654L102.92 124.129L94.3716 125.232L94.8188 121.757ZM95.3043 117.538L106.82 115.945L106.432 119.519L94.8569 121.013L95.3043 117.538ZM94.2871 125.959L105.862 124.465L105.415 127.94L93.8397 129.434L94.2871 125.959ZM92.7573 129.676L94.1796 117.693L90.5739 118.174L89.6501 126.493L86.4907 118.789L86.187 118.831L86.1869 118.831L75.0722 120.369L74.6249 123.844L84.2721 122.602L87.5438 130.412L91.0509 129.909L91.0479 129.902L92.7573 129.676ZM74.5869 124.588L83.1357 123.485L82.6885 126.96L74.1396 128.063L74.5869 124.588Z" fill="#EDEDED"/>
<path fill-rule="evenodd" clip-rule="evenodd" d="M92.7573 129.675L94.1796 117.693L90.5739 118.174L89.2453 130.168L92.7573 129.675Z" fill="#EDEDED"/>
<path fill-rule="evenodd" clip-rule="evenodd" d="M117.122 126.192L118.545 114.21L114.939 114.69L113.659 126.651L117.122 126.192Z" fill="#EDEDED"/>
</g>
<defs>
<clipPath id="clip0_78_548">
<rect width="602" height="190" fill="white"/>
</clipPath>
<clipPath id="clip1_78_548">
<rect width="418" height="129" fill="white" transform="translate(294 74)"/>
</clipPath>
</defs>
</svg>
