<svg width="30" height="30" viewBox="0 0 30 30" fill="none" xmlns="http://www.w3.org/2000/svg">
<path d="M23 21.9206V12.746C23 12.5785 22.9616 12.4132 22.8878 12.2633C22.8141 12.1135 22.707 11.9831 22.575 11.8825L15.1375 6.21587C14.9536 6.07575 14.7299 6 14.5 6C14.2701 6 14.0464 6.07575 13.8625 6.21587L6.425 11.8825C6.29304 11.9831 6.18594 12.1135 6.11217 12.2633C6.0384 12.4132 6 12.5785 6 12.746V21.9206C6 22.2069 6.11194 22.4814 6.3112 22.6839C6.51046 22.8863 6.78071 23 7.0625 23H11.3125C11.5943 23 11.8645 22.8863 12.0638 22.6839C12.2631 22.4814 12.375 22.2069 12.375 21.9206V18.6825C12.375 18.3963 12.4869 18.1217 12.6862 17.9193C12.8855 17.7169 13.1557 17.6032 13.4375 17.6032H15.5625C15.8443 17.6032 16.1145 17.7169 16.3138 17.9193C16.5131 18.1217 16.625 18.3963 16.625 18.6825V21.9206C16.625 22.2069 16.7369 22.4814 16.9362 22.6839C17.1355 22.8863 17.4057 23 17.6875 23H21.9375C22.2193 23 22.4895 22.8863 22.6888 22.6839C22.8881 22.4814 23 22.2069 23 21.9206Z" stroke="#C5C7C6" stroke-width="1.8" stroke-linecap="round" stroke-linejoin="round"/>
</svg>
