<svg width="20" height="20" viewBox="0 0 20 20" fill="none" xmlns="http://www.w3.org/2000/svg">
<g clip-path="url(#clip0_80_22032)">
<path d="M9.97379 15.6549C10.2286 15.6549 10.4084 15.5125 10.4084 15.2577C10.4084 15.1453 10.3785 15.0854 10.296 14.928C9.38182 13.5117 8.86475 11.8857 8.86475 10.1247C8.86475 8.42366 9.35186 6.72266 10.296 5.29888C10.3785 5.14152 10.4084 5.08159 10.4084 4.96916C10.4084 4.72938 10.2286 4.57202 9.97379 4.57202C9.72654 4.57202 9.52418 4.68441 9.28439 5.01413C8.16039 6.44538 7.59089 8.22884 7.59089 10.1172C7.59089 12.0056 8.13789 13.7365 9.28439 15.2128C9.52418 15.5424 9.72654 15.6549 9.97379 15.6549ZM17.6246 15.6549C17.8719 15.6549 18.0668 15.5424 18.3065 15.2128C19.453 13.7365 20 12.0056 20 10.1172C20 8.22884 19.438 6.44538 18.3065 5.01413C18.0668 4.68441 17.8719 4.57202 17.6246 4.57202C17.3699 4.57202 17.19 4.72938 17.19 4.96916C17.19 5.08159 17.2124 5.14152 17.2949 5.29888C18.2466 6.72266 18.7336 8.42366 18.7336 10.1247C18.7336 11.8857 18.2092 13.5117 17.3024 14.928C17.2124 15.0854 17.19 15.1453 17.19 15.2577C17.19 15.4975 17.3699 15.6549 17.6246 15.6549ZM1.01161 15.6399C2.48032 15.6399 3.16225 15.0104 3.51443 13.3244L4.36868 9.22549H5.725C6.15964 9.22549 6.43689 8.99316 6.43689 8.61849C6.43689 8.29627 6.22707 8.09395 5.88236 8.09395H4.61596L4.82579 7.07484C5.02061 6.12316 5.32036 5.73352 6.15214 5.73352C6.27204 5.73352 6.39193 5.72602 6.47436 5.71852C6.84904 5.68106 7.01389 5.5087 7.01389 5.18649C7.01389 4.76684 6.66168 4.57952 5.94232 4.57952C4.51107 4.57952 3.77671 5.29141 3.447 6.89499L3.19221 8.09395H2.26304C1.82839 8.09395 1.54364 8.32627 1.54364 8.70091C1.54364 9.02313 1.76096 9.22549 2.10568 9.22549H2.95243L2.12814 13.1446C1.91832 14.1262 1.61107 14.4859 0.809286 14.4859C0.704393 14.4859 0.606964 14.4934 0.532036 14.5009C0.187321 14.5458 0 14.7332 0 15.0479C0 15.4526 0.344714 15.6399 1.01161 15.6399ZM11.5399 13.6691C11.7872 13.6691 11.9521 13.5867 12.1394 13.3169L13.7805 10.979H13.8104L15.489 13.3544C15.6764 13.6167 15.8561 13.6691 16.036 13.6691C16.3957 13.6691 16.6356 13.4143 16.6356 13.1071C16.6356 12.9647 16.5906 12.8298 16.4931 12.7024L14.5748 10.0947L16.4931 7.52445C16.5906 7.39706 16.6356 7.26216 16.6356 7.10481C16.6356 6.78259 16.3658 6.55781 16.066 6.55781C15.7963 6.55781 15.6388 6.6927 15.4965 6.90999L13.9154 9.22549H13.8779L12.2893 6.90249C12.1469 6.68516 11.9671 6.55781 11.6823 6.55781C11.3376 6.55781 11.0753 6.83506 11.0753 7.13477C11.0753 7.35209 11.1353 7.48699 11.2402 7.61438L13.0611 10.0572L11.1278 12.7324C11.0154 12.8748 10.9929 13.0022 10.9929 13.1521C10.9929 13.4443 11.2402 13.6691 11.5399 13.6691Z" fill="#C5C7C6"/>
</g>
<defs>
<clipPath id="clip0_80_22032">
<rect width="20" height="20" fill="white"/>
</clipPath>
</defs>
</svg>
