<svg width="20" height="20" viewBox="0 0 20 20" fill="none" xmlns="http://www.w3.org/2000/svg">
<g clip-path="url(#clip0_80_19417)">
<path d="M6.62843 14.9335V12.5048V11.8383H1.43853C1.38065 11.8383 1.3331 11.7911 1.3331 11.7328V2.63926C1.3331 2.58101 1.38061 2.53382 1.43853 2.53382H14.8381C14.8959 2.53382 14.9435 2.58105 14.9435 2.63926V7.24753H16.2766V2.63926C16.2766 1.84611 15.6315 1.20068 14.8381 1.20068H1.43853C0.64501 1.20073 0 1.84611 0 2.63926V11.7328C0 12.526 0.64501 13.1714 1.43853 13.1714H5.93064V14.9335H5.2224C4.85397 14.9335 4.55587 15.2319 4.55587 15.6C4.55587 15.9681 4.85402 16.2666 5.2224 16.2666H6.73001C6.67009 16.0675 6.62843 15.8607 6.62843 15.6424V14.9335Z" fill="#C5C7C6"/>
<path d="M7.62793 9.44052V15.6423C7.62793 16.3001 8.16294 16.8354 8.82106 16.8354H17.9595C18.6176 16.8354 19.1527 16.3001 19.1527 15.6423V9.44052C19.1527 8.7827 18.6176 8.24731 17.9595 8.24731H8.8211C8.16299 8.24731 7.62793 8.78274 7.62793 9.44052ZM8.96107 9.58045H17.8196V15.5023H8.96107V9.58045Z" fill="#C5C7C6"/>
<path d="M19.6434 17.5081H19.0979H7.68372H7.13892C6.94169 17.5081 6.78223 17.6678 6.78223 17.8647C6.78223 18.381 7.20078 18.7995 7.71693 18.7995H19.0654C19.5815 18.7995 20.0001 18.381 20.0001 17.8647C20.0001 17.6678 19.8406 17.5081 19.6434 17.5081Z" fill="#C5C7C6"/>
</g>
<defs>
<clipPath id="clip0_80_19417">
<rect width="20" height="20" fill="white"/>
</clipPath>
</defs>
</svg>
