<svg width="20" height="20" viewBox="0 0 20 20" fill="none" xmlns="http://www.w3.org/2000/svg">
<path d="M19.1667 2.49989H16.6667V1.66657C16.6667 1.20634 16.2936 0.833252 15.8334 0.833252C15.3731 0.833252 15 1.20634 15 1.66657V2.49989H14.1667V1.66657C14.1667 1.20634 13.7936 0.833252 13.3334 0.833252C12.8732 0.833252 12.5001 1.20634 12.5001 1.66657V2.49989H11.6668V1.66657C11.6668 1.20634 11.2937 0.833252 10.8334 0.833252C10.3732 0.833252 10.0001 1.20634 10.0001 1.66657V2.49989H0.83332C0.373086 2.49989 0 2.87298 0 3.33321V18.3332C0 18.7934 0.373086 19.1665 0.83332 19.1665H19.1666C19.6269 19.1665 20 18.7934 20 18.3332V3.33321C20 2.87298 19.6269 2.49989 19.1667 2.49989ZM18.3333 17.4999H1.66668V4.16657H3.33336V8.33325C3.33336 8.79349 3.70645 9.16657 4.16668 9.16657C4.62691 9.16657 5 8.79349 5 8.33325V4.16657H6.66668V9.99989C6.66668 10.4601 7.03977 10.8332 7.5 10.8332C7.96023 10.8332 8.33332 10.4601 8.33332 9.99989V4.16657H18.3333V17.4999Z" fill="#C5C7C6"/>
<path d="M10.8333 5.83325C10.3731 5.83325 10 6.20634 10 6.66657V11.6666C10 12.1268 10.3731 12.4999 10.8333 12.4999H15.8333C16.2936 12.4999 16.6666 12.1268 16.6666 11.6666V6.66657C16.6666 6.20634 16.2936 5.83325 15.8333 5.83325H10.8333ZM15 10.8333H11.6667V7.49993H15V10.8333Z" fill="#C5C7C6"/>
<path d="M4.99969 14.1665H3.33301V15.8332H4.99969V14.1665Z" fill="#C5C7C6"/>
<path d="M8.33367 12.5H6.66699V14.1667H8.33367V12.5Z" fill="#C5C7C6"/>
<path d="M14.9996 14.1665H11.6663C11.2061 14.1665 10.833 14.5396 10.833 14.9998C10.833 15.4601 11.2061 15.8331 11.6663 15.8331H14.9996C15.4599 15.8331 15.833 15.4601 15.833 14.9998C15.833 14.5396 15.4599 14.1665 14.9996 14.1665Z" fill="#C5C7C6"/>
</svg>
