<svg width="20" height="20" viewBox="0 0 20 20" fill="none" xmlns="http://www.w3.org/2000/svg">
<g clip-path="url(#clip0_80_21245)">
<path d="M18.3333 2.66675C18.149 2.66675 18 2.81608 18 3.00007C18 3.18405 18.149 3.33339 18.3333 3.33339C18.5177 3.33339 18.6666 3.18405 18.6666 3.00007C18.6667 2.81608 18.5177 2.66675 18.3333 2.66675Z" fill="#C5C7C6"/>
<path d="M18.3333 16.6667C18.149 16.6667 18 16.8161 18 17.0001C18 17.1841 18.149 17.3334 18.3333 17.3334C18.5177 17.3334 18.6666 17.1841 18.6666 17.0001C18.6666 16.8161 18.5177 16.6667 18.3333 16.6667Z" fill="#C5C7C6"/>
<path d="M1.66633 2.66675C1.48199 2.66675 1.33301 2.81608 1.33301 3.00007C1.33301 3.18405 1.48199 3.33339 1.66633 3.33339C1.85066 3.33339 1.99965 3.18405 1.99965 3.00007C1.99965 2.81608 1.85066 2.66675 1.66633 2.66675Z" fill="#C5C7C6"/>
<path d="M1.66633 16.6667C1.48199 16.6667 1.33301 16.8161 1.33301 17.0001C1.33301 17.1841 1.48199 17.3334 1.66633 17.3334C1.85066 17.3334 1.99965 17.1841 1.99965 17.0001C1.99965 16.8161 1.85066 16.6667 1.66633 16.6667Z" fill="#C5C7C6"/>
<path d="M18.3333 0H1.66668C0 0 0 1.31691 0 2.94119V17.0588C0 20 0.746249 20 1.66668 20H18.3333C19.2538 20 20 19.5 20 17.0588V2.94119C20 1.31691 20 0 18.3333 0ZM19 17.0588C19 18.0333 18.8855 18.8235 18.3333 18.8235H1.66668C1.11445 18.8235 1 18.0333 1 17.0588V2.94119C1 1.96668 1.11445 1.17649 1.66668 1.17649H18.3333C18.8855 1.17649 19 1.96668 19 2.94119V17.0588Z" fill="#C5C7C6"/>
<path d="M16.2223 3H3.77775C3.34818 3 3 3.19185 3 3.42856V8.57144C3 8.80815 3.34818 9 3.77775 9H16.2222C16.6518 9 17 8.80815 17 8.57144V3.42856C17.0001 3.1919 16.6519 3 16.2223 3ZM16 8.14289H4V3.85716H16V8.14289Z" fill="#C5C7C6"/>
<path d="M5 7.93416L5.14077 7.06722L6.46959 5.91495C6.62725 5.77595 6.73986 5.66255 6.80743 5.57476C6.87875 5.48331 6.92192 5.39735 6.93694 5.31687C6.9557 5.19616 6.92755 5.10654 6.85248 5.04801C6.7774 4.98948 6.66854 4.96022 6.5259 4.96022C6.39076 4.96022 6.24437 4.984 6.08671 5.03155C5.92905 5.07545 5.76577 5.15409 5.59685 5.26749L5.25901 4.41152C5.45796 4.28349 5.69069 4.1829 5.95721 4.10974C6.22372 4.03658 6.48836 4 6.75112 4C7.10773 4 7.39489 4.05487 7.61261 4.16461C7.83408 4.27069 7.98799 4.41884 8.07432 4.60905C8.16066 4.79927 8.18318 5.01875 8.14189 5.26749C8.10435 5.5016 8.00863 5.71559 7.85473 5.90946C7.70458 6.10334 7.50375 6.3027 7.25225 6.50754L6.30067 7.27572L6.31194 6.97942H7.98986L7.8322 7.93416H5Z" fill="#C5C7C6"/>
<path d="M8.37618 7.93416L8.51694 7.06722L9.84577 5.91495C10.0034 5.77595 10.116 5.66255 10.1836 5.57476C10.2549 5.48331 10.2981 5.39735 10.3131 5.31687C10.3319 5.19616 10.3037 5.10654 10.2287 5.04801C10.1536 4.98948 10.0447 4.96022 9.90208 4.96022C9.76694 4.96022 9.62054 4.984 9.46289 5.03155C9.30523 5.07545 9.14194 5.15409 8.97302 5.26749L8.63518 4.41152C8.83413 4.28349 9.06687 4.1829 9.33338 4.10974C9.5999 4.03658 9.86454 4 10.1273 4C10.4839 4 10.7711 4.05487 10.9888 4.16461C11.2103 4.27069 11.3642 4.41884 11.4505 4.60905C11.5368 4.79927 11.5594 5.01875 11.5181 5.26749C11.4805 5.5016 11.3848 5.71559 11.2309 5.90946C11.0808 6.10334 10.8799 6.3027 10.6284 6.50754L9.67685 7.27572L9.68811 6.97942H11.366L11.2084 7.93416H8.37618Z" fill="#C5C7C6"/>
<path d="M13.1713 8C12.627 8 12.2478 7.81344 12.0339 7.44033C11.8199 7.06356 11.7655 6.54047 11.8706 5.87106C11.9757 5.22725 12.1765 4.75537 12.4731 4.45542C12.7696 4.15181 13.1581 4 13.6386 4C14.1604 4 14.5358 4.17375 14.7647 4.52126C14.9975 4.86877 15.0575 5.39186 14.9449 6.09053C14.8398 6.73068 14.6315 7.20988 14.3199 7.52812C14.0121 7.84271 13.6292 8 13.1713 8ZM13.2557 7.06722C13.3871 7.06722 13.4978 6.98491 13.5879 6.8203C13.678 6.65203 13.7531 6.39049 13.8132 6.03567C13.862 5.74303 13.8826 5.51806 13.8751 5.36077C13.8713 5.19982 13.8413 5.08825 13.785 5.02606C13.7325 4.96388 13.6574 4.93278 13.5598 4.93278C13.4284 4.93278 13.3177 5.0096 13.2276 5.16324C13.1412 5.31321 13.068 5.56744 13.008 5.92593C12.9592 6.21856 12.9367 6.44902 12.9404 6.61728C12.9479 6.78189 12.978 6.89895 13.0305 6.96845C13.0868 7.03429 13.1619 7.06722 13.2557 7.06722Z" fill="#C5C7C6"/>
<path d="M9.33332 11H3.33332C3.14922 11 3 11.1492 3 11.3333V17.3333C3 17.5174 3.14922 17.6666 3.33332 17.6666H9.33332C9.51742 17.6666 9.66664 17.5174 9.66664 17.3333V11.3333C9.66668 11.1493 9.51742 11 9.33332 11ZM9 17H3.66668V11.6667H9V17Z" fill="#C5C7C6"/>
<path d="M6.33332 14.3332C6.51742 14.3332 6.66664 14.184 6.66664 13.9999V12.6666C6.66664 12.4825 6.51742 12.3333 6.33332 12.3333C6.14922 12.3333 6 12.4825 6 12.6666V13.9999C6 14.184 6.14926 14.3332 6.33332 14.3332Z" fill="#C5C7C6"/>
<path d="M4.66633 16.3334H5.66633C5.85043 16.3334 5.99965 16.1842 5.99965 16.0001C5.99965 15.816 5.85043 15.6667 5.66633 15.6667H4.66633C4.48223 15.6667 4.33301 15.816 4.33301 16.0001C4.33301 16.1842 4.48223 16.3334 4.66633 16.3334Z" fill="#C5C7C6"/>
<path d="M7.00031 16.3334H8.00031C8.18441 16.3334 8.33363 16.1842 8.33363 16.0001C8.33363 15.816 8.18441 15.6667 8.00031 15.6667H7.00031C6.81621 15.6667 6.66699 15.816 6.66699 16.0001C6.66699 16.1842 6.81621 16.3334 7.00031 16.3334Z" fill="#C5C7C6"/>
</g>
<defs>
<clipPath id="clip0_80_21245">
<rect width="20" height="20" fill="white"/>
</clipPath>
</defs>
</svg>
