<svg width="20" height="20" viewBox="0 0 20 20" fill="none" xmlns="http://www.w3.org/2000/svg">
<path d="M18.7806 1.25H1.21938C0.546875 1.25 0 1.79687 0 2.47V13.7806C0 14.4531 0.546875 15 1.21938 15H18.7806C19.4531 15 20 14.4531 20 13.7806V2.47C20 1.79687 19.4531 1.25 18.7806 1.25ZM18.75 13.75L1.25 13.7806L1.21938 2.5L18.75 2.47V13.75Z" fill="#C5C7C6"/>
<path d="M6.875 13.75C6.52938 13.75 6.25 14.03 6.25 14.375V18.125C6.25 18.47 6.52938 18.75 6.875 18.75C7.22062 18.75 7.5 18.47 7.5 18.125V14.375C7.5 14.03 7.22062 13.75 6.875 13.75Z" fill="#C5C7C6"/>
<path d="M13.125 13.75C12.7794 13.75 12.5 14.03 12.5 14.375V18.125C12.5 18.47 12.7794 18.75 13.125 18.75C13.4706 18.75 13.75 18.47 13.75 18.125V14.375C13.75 14.03 13.4706 13.75 13.125 13.75Z" fill="#C5C7C6"/>
<path d="M14.375 17.5H5.625C5.27938 17.5 5 17.78 5 18.125C5 18.47 5.27938 18.75 5.625 18.75H14.375C14.7206 18.75 15 18.47 15 18.125C15 17.78 14.7206 17.5 14.375 17.5Z" fill="#C5C7C6"/>
<path d="M10 13.75C9.65438 13.75 9.375 14.03 9.375 14.375V16.25C9.375 16.595 9.65438 16.875 10 16.875C10.3456 16.875 10.625 16.595 10.625 16.25V14.375C10.625 14.03 10.3456 13.75 10 13.75Z" fill="#C5C7C6"/>
</svg>
