<svg width="20" height="20" viewBox="0 0 20 20" fill="none" xmlns="http://www.w3.org/2000/svg">
<path fill-rule="evenodd" clip-rule="evenodd" d="M1.87533 10C1.87533 5.51268 5.51301 1.875 10.0003 1.875C14.4877 1.875 18.1253 5.51268 18.1253 10V12.3272C18.1905 12.3042 18.2606 12.2917 18.3337 12.2917C18.6788 12.2917 18.9587 12.5715 18.9587 12.9167V14.5833C18.9587 14.9285 18.6788 15.2083 18.3337 15.2083C18.2582 15.2083 18.1857 15.1949 18.1187 15.1704C18.1141 15.3374 18.1063 15.4912 18.0933 15.6322C18.0597 15.995 17.9871 16.3295 17.8077 16.6427C17.6884 16.8511 17.5382 17.04 17.3621 17.2024C17.0951 17.4485 16.7856 17.5883 16.443 17.6922C16.1192 17.7903 15.717 17.8697 15.2407 17.9636L15.1788 17.9757C14.8536 18.0399 14.5582 18.0982 14.3124 18.1176C14.0479 18.1384 13.7497 18.1238 13.4641 17.9631C13.295 17.8679 13.1472 17.74 13.0282 17.5877C12.8304 17.3347 12.7642 17.046 12.7357 16.7802C12.7086 16.5295 12.7087 16.2203 12.7087 15.8732V11.5097C12.7087 11.2148 12.7087 10.9498 12.7298 10.7323C12.7524 10.5002 12.8042 10.2492 12.9571 10.0168C13.0829 9.82542 13.2517 9.66483 13.4512 9.54975C13.6972 9.408 13.9535 9.37667 14.1849 9.37508C14.3988 9.37358 14.6556 9.39892 14.9356 9.42658L14.9939 9.43233C15.482 9.48042 15.8926 9.52092 16.2253 9.58683C16.4534 9.632 16.6696 9.69333 16.8722 9.79042C16.7614 6.09044 13.7272 3.125 10.0003 3.125C6.27347 3.125 3.23923 6.09044 3.12846 9.79042C3.3311 9.69333 3.54725 9.632 3.77529 9.58683C4.10804 9.52092 4.51867 9.48042 5.00671 9.43233L5.06511 9.42658C5.34509 9.39892 5.60183 9.37358 5.81571 9.37508C6.04715 9.37667 6.30346 9.408 6.54938 9.54975C6.74903 9.66483 6.91772 9.82542 7.04361 10.0168C7.19642 10.2492 7.24824 10.5002 7.27085 10.7323C7.29203 10.9498 7.29202 11.2148 7.29199 11.5097V15.8732C7.29202 16.2203 7.29204 16.5295 7.26503 16.7802C7.23639 17.046 7.17025 17.3347 6.97251 17.5877C6.85353 17.74 6.7057 17.8679 6.53655 17.9631C6.25088 18.1238 5.95275 18.1384 5.68823 18.1176C5.44245 18.0982 5.14709 18.0399 4.82186 17.9757L4.75997 17.9636C4.28364 17.8697 3.88153 17.7903 3.5577 17.6922C3.21507 17.5883 2.90561 17.4485 2.63858 17.2024C2.46239 17.04 2.31226 16.8511 2.19293 16.6427C2.01357 16.3295 1.94098 15.995 1.90737 15.6322C1.8943 15.4912 1.88656 15.3374 1.88198 15.1704C1.81494 15.1949 1.74253 15.2083 1.66699 15.2083C1.32182 15.2083 1.04199 14.9285 1.04199 14.5833V12.9167C1.04199 12.5715 1.32182 12.2917 1.66699 12.2917C1.74004 12.2917 1.81017 12.3042 1.87533 12.3272V10ZM3.12533 14.3277C3.12533 14.8707 3.12595 15.2354 3.15203 15.5169C3.17716 15.788 3.22207 15.9244 3.27768 16.0216C3.33426 16.1203 3.40461 16.2085 3.48568 16.2832C3.56228 16.3537 3.67543 16.4217 3.92031 16.4959C4.17728 16.5738 4.5176 16.6417 5.03148 16.743C5.39948 16.8156 5.6222 16.8585 5.78644 16.8714C5.875 16.8784 5.91536 16.8734 5.92884 16.8707C5.94962 16.8581 5.96943 16.841 5.98668 16.8192C5.99183 16.8091 6.00936 16.7657 6.02223 16.6462C6.04113 16.4707 6.04199 16.23 6.04199 15.842V11.5372C6.04199 11.2062 6.0413 11.003 6.02673 10.8534C6.01656 10.749 6.00249 10.7112 5.99868 10.7028C5.97917 10.6734 5.95508 10.6509 5.92948 10.6352C5.91851 10.6323 5.88414 10.6256 5.8072 10.625C5.66731 10.6241 5.4773 10.642 5.15911 10.6733C4.63351 10.7252 4.28401 10.7603 4.01816 10.813C3.7634 10.8635 3.64526 10.9197 3.56585 10.9796C3.44933 11.0673 3.34977 11.1806 3.27472 11.3132C3.221 11.4082 3.17645 11.5451 3.15159 11.8207C3.12592 12.1053 3.12533 12.4749 3.12533 13.023V14.3277ZM16.8753 13.023C16.8753 12.4749 16.8747 12.1053 16.8491 11.8207C16.8242 11.5451 16.7797 11.4082 16.7259 11.3132C16.6509 11.1806 16.5513 11.0673 16.4348 10.9796C16.3554 10.9197 16.2372 10.8635 15.9825 10.813C15.7167 10.7603 15.3672 10.7252 14.8416 10.6733C14.5233 10.642 14.3333 10.6241 14.1935 10.625C14.1165 10.6256 14.0822 10.6323 14.0712 10.6352C14.0456 10.6509 14.0215 10.6734 14.002 10.7028C13.9982 10.7112 13.9841 10.749 13.9739 10.8534C13.9593 11.003 13.9587 11.2062 13.9587 11.5372V15.842C13.9587 16.23 13.9595 16.4707 13.9784 16.6462C13.9913 16.7657 14.0088 16.8091 14.014 16.8192C14.0312 16.841 14.0511 16.8581 14.0718 16.8707C14.0853 16.8734 14.1257 16.8784 14.2142 16.8714C14.3785 16.8585 14.6012 16.8156 14.9692 16.743C15.4831 16.6417 15.8233 16.5738 16.0803 16.4959C16.3252 16.4217 16.4384 16.3537 16.515 16.2832C16.5961 16.2085 16.6664 16.1203 16.723 16.0216C16.7786 15.9244 16.8235 15.788 16.8487 15.5169C16.8747 15.2354 16.8753 14.8707 16.8753 14.3277V13.023Z" fill="#C5C7C6"/>
</svg>
