<svg width="30" height="30" viewBox="0 0 30 30" fill="none" xmlns="http://www.w3.org/2000/svg">
<rect width="30" height="30" rx="6" fill="#9604CF"/>
<path d="M16.3826 8.00007C17.8138 8.15095 19.1507 8.78605 20.1721 9.80034C21.1936 10.8146 21.8384 12.1473 22 13.5781M16.3826 10.8102C17.0732 10.9464 17.7069 11.2872 18.2015 11.7883C18.6961 12.2894 19.0287 12.9276 19.1562 13.6202M21.9649 18.4817V20.5893C21.9657 20.7849 21.9256 20.9786 21.8473 21.1578C21.7689 21.3371 21.654 21.498 21.5099 21.6303C21.3658 21.7626 21.1957 21.8633 21.0105 21.9259C20.8252 21.9886 20.6289 22.0119 20.4342 21.9943C18.2735 21.7594 16.1979 21.0207 14.3744 19.8376C12.6778 18.7589 11.2394 17.3198 10.1614 15.6224C8.97468 13.7897 8.23618 11.7031 8.0057 9.53156C7.98815 9.33729 8.01123 9.1415 8.07346 8.95664C8.13569 8.77178 8.23571 8.60191 8.36715 8.45785C8.4986 8.31378 8.65858 8.19868 8.83692 8.11986C9.01527 8.04105 9.20806 8.00025 9.40302 8.00007H11.5095C11.8503 7.99671 12.1807 8.11744 12.4391 8.33976C12.6974 8.56208 12.8662 8.87081 12.9139 9.20841C13.0028 9.88287 13.1677 10.5451 13.4054 11.1825C13.4999 11.4339 13.5203 11.7072 13.4643 11.9699C13.4083 12.2327 13.2782 12.4738 13.0894 12.6648L12.1977 13.557C13.1973 15.3158 14.6528 16.7721 16.4107 17.7721L17.3025 16.8799C17.4934 16.6911 17.7344 16.5609 17.997 16.5049C18.2596 16.4488 18.5327 16.4693 18.784 16.5638C19.4211 16.8016 20.083 16.9666 20.7572 17.0556C21.0982 17.1037 21.4098 17.2756 21.6324 17.5386C21.8551 17.8015 21.9734 18.1372 21.9649 18.4817Z" stroke="white" stroke-width="2" stroke-linecap="round" stroke-linejoin="round"/>
</svg>
