<svg width="18" height="19" viewBox="0 0 18 19" fill="none" xmlns="http://www.w3.org/2000/svg">
<path fill-rule="evenodd" clip-rule="evenodd" d="M9.00144 0.5C11.4075 0.5 13.6686 1.43545 15.367 3.13467C18.8777 6.64532 18.8777 12.3568 15.367 15.8675C13.646 17.5893 11.3288 18.5005 8.98134 18.5005C7.70169 18.5005 6.41367 18.23 5.20856 17.6722C4.85348 17.5299 4.521 17.3959 4.28232 17.3959C4.00764 17.3975 3.63831 17.5248 3.28155 17.6479C2.54961 17.8992 1.63845 18.2124 0.964288 17.5407C0.292641 16.8683 0.602503 15.9596 0.852068 15.2285C0.975175 14.8684 1.10163 14.4966 1.10163 14.2152C1.10163 13.984 0.99025 13.6892 0.819407 13.2646C-0.749165 9.8771 -0.0239203 5.79445 2.63671 3.1355C4.33508 1.43629 6.5954 0.5 9.00144 0.5ZM9.00228 1.7562C6.93123 1.7562 4.98579 2.56184 3.52442 4.02405C1.23479 6.31201 0.611716 9.82517 1.9726 12.7672C2.16856 13.2521 2.35783 13.7244 2.35783 14.2152C2.35783 14.7051 2.1895 15.1983 2.04127 15.6338C1.919 15.9923 1.73392 16.5333 1.85284 16.6522C1.96925 16.7728 2.5136 16.5827 2.87287 16.4596C3.30417 16.3122 3.79324 16.143 4.27814 16.1397C4.76387 16.1397 5.22196 16.3239 5.70685 16.519C8.67734 17.8925 12.1905 17.2677 14.4793 14.9798C17.4992 11.9582 17.4992 7.04311 14.4793 4.02322C13.0171 2.561 11.0725 1.7562 9.00228 1.7562ZM12.3077 9.01091C12.7699 9.01091 13.1451 9.38525 13.1451 9.84837C13.1451 10.3115 12.7699 10.6858 12.3077 10.6858C11.8454 10.6858 11.4669 10.3115 11.4669 9.84837C11.4669 9.38525 11.8378 9.01091 12.3001 9.01091H12.3077ZM8.95044 9.01091C9.41272 9.01091 9.7879 9.38525 9.7879 9.84837C9.7879 10.3115 9.41272 10.6858 8.95044 10.6858C8.48816 10.6858 8.10962 10.3115 8.10962 9.84837C8.10962 9.38525 8.47978 9.01091 8.9429 9.01091H8.95044ZM5.59287 9.01091C6.05515 9.01091 6.43034 9.38525 6.43034 9.84837C6.43034 10.3115 6.05515 10.6858 5.59287 10.6858C5.13059 10.6858 4.75206 10.3115 4.75206 9.84837C4.75206 9.38525 5.12306 9.01091 5.58534 9.01091H5.59287Z" fill="#45CC2E"/>
</svg>
