<svg width="28" height="29" viewBox="0 0 28 29" fill="none" xmlns="http://www.w3.org/2000/svg">
<path d="M20.0114 18.491H18.7467L18.2985 18.0588C19.8674 16.2338 20.8119 13.8644 20.8119 11.2869C20.8119 5.53964 16.1532 0.880981 10.4059 0.880981C4.65866 0.880981 0 5.53964 0 11.2869C0 17.0342 4.65866 21.6929 10.4059 21.6929C12.9834 21.6929 15.3528 20.7483 17.1778 19.1794L17.6101 19.6277V20.8924L25.6146 28.881L28 26.4956L20.0114 18.491ZM10.4059 18.491C6.41967 18.491 3.20183 15.2732 3.20183 11.2869C3.20183 7.30065 6.41967 4.08281 10.4059 4.08281C14.3922 4.08281 17.6101 7.30065 17.6101 11.2869C17.6101 15.2732 14.3922 18.491 10.4059 18.491Z" fill="#282828"/>
</svg>
