<svg width="30" height="31" viewBox="0 0 30 31" fill="none" xmlns="http://www.w3.org/2000/svg">
<path d="M18.1498 17.6918H17.3819L17.1098 17.4294C18.0623 16.3213 18.6358 14.8828 18.6358 13.3179C18.6358 9.82847 15.8073 7 12.3179 7C8.82847 7 6 9.82847 6 13.3179C6 16.8073 8.82847 19.6358 12.3179 19.6358C13.8828 19.6358 15.3213 19.0623 16.4294 18.1098L16.6918 18.3819V19.1498L21.5517 24L23 22.5517L18.1498 17.6918ZM12.3179 17.6918C9.89766 17.6918 7.94397 15.7381 7.94397 13.3179C7.94397 10.8977 9.89766 8.94397 12.3179 8.94397C14.7381 8.94397 16.6918 10.8977 16.6918 13.3179C16.6918 15.7381 14.7381 17.6918 12.3179 17.6918Z" fill="white"/>
</svg>
