<svg width="30" height="31" viewBox="0 0 30 31" fill="none" xmlns="http://www.w3.org/2000/svg">
<path d="M11.1047 25.381C10.6368 25.381 10.2363 25.2049 9.90341 24.8527C9.57047 24.5005 9.40371 24.0766 9.40314 23.581C9.40314 23.086 9.5699 22.6624 9.90341 22.3102C10.2369 21.958 10.6374 21.7816 11.1047 21.781C11.5726 21.781 11.9734 21.9574 12.3069 22.3102C12.6404 22.663 12.8069 23.0866 12.8063 23.581C12.8063 24.076 12.6398 24.4999 12.3069 24.8527C11.9739 25.2055 11.5732 25.3816 11.1047 25.381ZM19.6126 25.381C19.1446 25.381 18.7442 25.2049 18.4113 24.8527C18.0783 24.5005 17.9116 24.0766 17.911 23.581C17.911 23.086 18.0778 22.6624 18.4113 22.3102C18.7448 21.958 19.1452 21.7816 19.6126 21.781C20.0805 21.781 20.4812 21.9574 20.8147 22.3102C21.1482 22.663 21.3147 23.0866 21.3141 23.581C21.3141 24.076 21.1477 24.4999 20.8147 24.8527C20.4818 25.2055 20.0811 25.3816 19.6126 25.381ZM10.3815 10.981L12.4234 15.481H18.3789L20.7186 10.981H10.3815ZM9.5733 9.18098H22.1224C22.4485 9.18098 22.6967 9.33488 22.8668 9.64268C23.037 9.95048 23.0441 10.2616 22.8881 10.576L19.8678 16.336C19.7118 16.636 19.5028 16.8685 19.2408 17.0335C18.9787 17.1985 18.6915 17.281 18.3789 17.281H12.0406L11.1047 19.081H21.3141V20.881H11.1047C10.4666 20.881 9.98451 20.5849 9.65838 19.9927C9.33225 19.4005 9.31807 18.8116 9.61584 18.226L10.7644 16.021L7.70157 9.18098H6V7.38098H8.76505L9.5733 9.18098Z" fill="#F8F8F8"/>
</svg>
