<svg width="24" height="24" viewBox="0 0 24 24" fill="none" xmlns="http://www.w3.org/2000/svg">
<path d="M11.2825 15.9045C11.3319 15.9539 11.3712 16.0125 11.398 16.077C11.4247 16.1416 11.4385 16.2107 11.4385 16.2806C11.4385 16.3505 11.4247 16.4197 11.398 16.4842C11.3712 16.5487 11.3319 16.6074 11.2825 16.6567L8.09522 19.8439C8.0454 19.8932 7.98662 19.9325 7.92205 19.9597C7.7921 20.0134 7.64615 20.0134 7.51621 19.9597C7.45163 19.9325 7.39286 19.8932 7.34303 19.8439L4.15578 16.6567C4.05604 16.557 4 16.4217 4 16.2806C4 16.1395 4.05604 16.0043 4.15578 15.9045C4.25553 15.8048 4.39082 15.7487 4.53188 15.7487C4.67294 15.7487 4.80823 15.8048 4.90797 15.9045L7.18792 18.1855V3.53175C7.18792 3.39086 7.24389 3.25575 7.34351 3.15613C7.44313 3.05651 7.57824 3.00055 7.71913 3.00055C7.86001 3.00055 7.99513 3.05651 8.09475 3.15613C8.19437 3.25575 8.25034 3.39086 8.25034 3.53175V18.1855L10.5303 15.9045C10.5796 15.855 10.6382 15.8158 10.7028 15.789C10.7673 15.7622 10.8365 15.7485 10.9064 15.7485C10.9762 15.7485 11.0454 15.7622 11.11 15.789C11.1745 15.8158 11.2331 15.855 11.2825 15.9045ZM20.8442 6.34287L17.657 3.15566C17.6071 3.10638 17.5484 3.06708 17.4838 3.03985C17.3537 2.98672 17.208 2.98672 17.0779 3.03985C17.0134 3.06708 16.9546 3.10638 16.9048 3.15566L13.7175 6.34287C13.6178 6.44262 13.5617 6.5779 13.5617 6.71896C13.5617 6.86002 13.6178 6.99531 13.7175 7.09505C13.8173 7.1948 13.9526 7.25084 14.0936 7.25084C14.2347 7.25084 14.37 7.1948 14.4697 7.09505L16.7497 4.81407V19.4678C16.7497 19.6087 16.8056 19.7438 16.9053 19.8434C17.0049 19.9431 17.14 19.999 17.2809 19.999C17.4218 19.999 17.5569 19.9431 17.6565 19.8434C17.7561 19.7438 17.8121 19.6087 17.8121 19.4678V4.81407L20.092 7.09505C20.1414 7.14444 20.2001 7.18362 20.2646 7.21035C20.3291 7.23708 20.3983 7.25084 20.4681 7.25084C20.538 7.25084 20.6071 7.23708 20.6717 7.21035C20.7362 7.18362 20.7948 7.14444 20.8442 7.09505C20.8936 7.04566 20.9328 6.98703 20.9595 6.9225C20.9862 6.85797 21 6.78881 21 6.71896C21 6.64912 20.9862 6.57995 20.9595 6.51542C20.9328 6.45089 20.8936 6.39226 20.8442 6.34287Z" fill="#9604CF"/>
</svg>
