<svg width="30" height="31" viewBox="0 0 30 31" fill="none" xmlns="http://www.w3.org/2000/svg">
<path fill-rule="evenodd" clip-rule="evenodd" d="M14.6954 17.6975L14.7967 17.6975L15.0211 17.6982C16.9267 17.7085 21.3909 17.8835 21.3909 20.8588C21.3909 23.6175 17.7245 23.9861 14.8726 24L14.3698 23.9998C12.4642 23.9895 8 23.8145 8 20.84C8 18.023 11.8207 17.6975 14.6954 17.6975ZM14.6954 18.9858C11.0991 18.9858 9.275 19.6101 9.275 20.84C9.275 22.0818 11.0991 22.7122 14.6954 22.7122C18.2918 22.7122 20.1159 22.0878 20.1159 20.8588C20.1159 19.6153 18.2918 18.9858 14.6954 18.9858ZM22.6235 12.0831C22.9754 12.0831 23.261 12.3717 23.261 12.7272L23.2609 13.8045L24.3625 13.8052C24.7144 13.8052 25 14.0937 25 14.4493C25 14.8048 24.7144 15.0934 24.3625 15.0934L23.2609 15.0927L23.261 16.172C23.261 16.5275 22.9754 16.8161 22.6235 16.8161C22.2716 16.8161 21.986 16.5275 21.986 16.172L21.9859 15.0927L20.886 15.0934C20.5341 15.0934 20.2485 14.8048 20.2485 14.4493C20.2485 14.0937 20.5341 13.8052 20.886 13.8052L21.9859 13.8045L21.986 12.7272C21.986 12.3717 22.2716 12.0831 22.6235 12.0831ZM14.6954 7C17.1885 7 19.2157 9.04915 19.2157 11.5672C19.2157 14.0853 17.1885 16.1345 14.6954 16.1345H14.6691C13.463 16.1302 12.3324 15.6518 11.485 14.7895C10.6367 13.9264 10.1718 12.7807 10.176 11.5647C10.176 9.04915 12.2032 7 14.6954 7ZM14.6954 8.28824C12.9071 8.28824 11.451 9.7594 11.451 11.5672C11.4476 12.4424 11.7808 13.2625 12.3886 13.8818C12.9972 14.5001 13.8081 14.8428 14.6716 14.8462L14.6954 15.4826V14.8462C16.4847 14.8462 17.9408 13.3751 17.9408 11.5672C17.9408 9.7594 16.4847 8.28824 14.6954 8.28824Z" fill="white"/>
</svg>
