<svg width="30" height="30" viewBox="0 0 30 30" fill="none" xmlns="http://www.w3.org/2000/svg">
<path fill-rule="evenodd" clip-rule="evenodd" d="M6 0H24C27.3137 0 30 2.68629 30 6V24C30 27.3137 27.3137 30 24 30H6C2.68629 30 0 27.3137 0 24V6C0 2.68629 2.68629 0 6 0ZM24 10.4729V10.1688C23.8567 9.80888 23.5551 9.78142 23.2707 9.77612C22.8727 9.77087 22.4745 9.78005 22.0763 9.78923C21.8528 9.79439 21.6293 9.79954 21.4058 9.80214C21.0462 9.80638 20.6863 9.80569 20.3264 9.80499C20.2362 9.80482 20.1461 9.80465 20.0559 9.80455C19.7793 9.80406 19.6092 9.94284 19.4854 10.2652C19.4472 10.3648 19.4094 10.4647 19.3716 10.5645C19.2505 10.8844 19.1294 11.2044 18.9955 11.5176C18.5471 12.5662 18.0226 13.5651 17.3669 14.4715C17.2929 14.5737 17.2047 14.663 17.1164 14.7525C17.0585 14.8111 17.0006 14.8697 16.9466 14.9321C16.664 15.2589 16.323 15.1177 16.207 14.7177C16.1265 14.4387 16.0849 14.1332 16.0867 13.8397C16.09 13.2665 16.1033 12.6934 16.1166 12.1203C16.1272 11.6635 16.1378 11.2067 16.1433 10.75C16.1461 10.5313 16.1137 10.3109 16.0817 10.0929C16.078 10.0674 16.0743 10.042 16.0706 10.0166C16.0135 9.61854 15.7612 9.42242 15.434 9.37713C14.954 9.31063 14.4697 9.26919 13.9863 9.25377C13.5626 9.24027 13.1362 9.26003 12.7134 9.29665C12.4386 9.32026 12.1546 9.36122 11.8989 9.46724C11.7163 9.54286 11.5565 9.70352 11.4053 9.85554C11.3928 9.86817 11.3803 9.88075 11.3678 9.89321C11.2579 10.0036 11.2964 10.0619 11.4375 10.1163C11.4517 10.1218 11.4659 10.1272 11.4801 10.1327C11.6649 10.2038 11.8534 10.2764 12.0162 10.3905C12.2942 10.5855 12.3457 10.9269 12.3947 11.2513C12.3976 11.2708 12.4005 11.2901 12.4035 11.3094C12.5377 12.1816 12.5286 13.0577 12.4251 13.9337C12.422 13.9601 12.419 13.9865 12.416 14.0129C12.3793 14.3325 12.3428 14.6506 12.1845 14.9355C12.0889 15.1075 11.9266 15.2121 11.7547 15.1302C11.5777 15.0463 11.4042 14.9288 11.2618 14.7857C10.8736 14.3968 10.6087 13.899 10.3693 13.3911C10.0612 12.7373 9.76623 12.0759 9.47128 11.4146C9.38669 11.225 9.30211 11.0353 9.21722 10.8459C9.14538 10.6849 9.08435 10.5177 9.02592 10.3505C8.88872 9.96067 8.60957 9.77804 8.259 9.77467C7.608 9.76868 6.95699 9.77816 6.30581 9.78764C6.06691 9.79112 5.82799 9.7946 5.58904 9.79732C5.35187 9.79973 5.1385 9.86092 5 10.1014V10.4054C5.05176 10.5307 5.10242 10.6566 5.15308 10.7825C5.26082 11.0504 5.36856 11.3182 5.4869 11.5798C5.57662 11.7781 5.66566 11.9769 5.75471 12.1757C6.08019 12.9024 6.40577 13.6292 6.76497 14.3341C7.20253 15.1933 7.67558 16.0332 8.18066 16.8452C8.60524 17.5275 9.07656 18.1776 9.56563 18.8045C10.0729 19.455 10.7225 19.9205 11.3834 20.3595C12.2663 20.9459 13.2137 21.2683 14.2498 21.2418C14.4319 21.2371 14.6141 21.2385 14.7963 21.24C14.9883 21.2416 15.1803 21.2431 15.3721 21.2374C15.8668 21.223 16.0849 20.9907 16.1113 20.4322C16.1273 20.0968 16.1546 19.7591 16.2113 19.4295C16.268 19.0994 16.41 18.8112 16.6554 18.5905C16.8159 18.4464 16.9752 18.4387 17.1483 18.5288C17.4687 18.6958 17.7023 18.9793 17.9356 19.2626L17.9429 19.2714C18.0471 19.3979 18.1502 19.5256 18.2533 19.6534C18.4978 19.9566 18.7424 20.2597 19.0024 20.5455C19.4002 20.983 19.881 21.1994 20.4532 21.2148C20.5048 21.2162 20.5569 21.2176 20.6094 21.219C21.0954 21.2321 21.6141 21.2462 22.0926 21.2331C22.2901 21.2277 22.4876 21.234 22.6851 21.2403C22.9121 21.2475 23.1391 21.2547 23.3659 21.2442C23.7485 21.2268 23.8745 21.049 24 20.6447V20.5773C23.8628 19.8009 23.3987 19.2466 22.9418 18.7008L22.9249 18.6806C22.579 18.2674 22.2174 17.8705 21.8558 17.4736C21.6423 17.2393 21.4287 17.0049 21.2184 16.7671C20.8271 16.3252 20.7899 15.9253 21.1102 15.4246C21.4649 14.8703 21.8307 14.3243 22.1963 13.7786C22.2772 13.6578 22.3581 13.537 22.4389 13.4162L22.4402 13.4143C22.9219 12.693 23.4035 11.9718 23.7572 11.1591C23.823 11.0081 23.8749 10.8497 23.9268 10.6913C23.9508 10.6182 23.9747 10.5452 24 10.4729Z" fill="#467AE1"/>
</svg>
