<svg width="159" height="37" viewBox="0 0 159 37" fill="none" xmlns="http://www.w3.org/2000/svg">
<path d="M132.824 1.59949L130.905 6.96644C138.511 5.47365 146.01 5.47365 146.01 5.47365L147.965 0.106689C147.93 0.106689 140.359 0.106689 132.824 1.59949ZM134.566 37.0001L144.66 9.13455C144.66 9.13455 137.089 9.13455 129.554 10.6629L119.993 37.0001H134.566Z" fill="#C5C7C6"/>
<path d="M78.3015 35.4716C83.4197 36.4668 88.7155 37 94.1536 37C102.755 37 106.309 36.1469 110.752 33.8722C114.555 31.9174 117.043 29.8559 118.145 26.3016C119.069 23.2449 117.896 20.366 115.159 18.5533C112.423 16.7406 109.792 15.852 106.629 14.1104C103.892 12.5821 102.399 11.4447 102.577 9.88085C102.968 6.53983 106.522 5.47354 111.427 5.47354C116.226 5.47354 120.882 5.90006 125.431 6.71754L127.279 1.59938C122.161 0.604186 116.865 0.0710449 111.427 0.0710449C102.826 0.0710449 99.3073 0.924071 94.8289 3.19881C91.0258 5.15366 88.5378 7.21514 87.4715 10.7694C86.5474 13.8261 87.7203 16.7051 90.4571 18.5177C93.1939 20.3304 95.8241 21.219 98.9518 22.9606C101.689 24.4889 103.217 25.6263 103.004 27.1902C102.648 30.5312 99.0585 31.633 94.1536 31.633C89.3553 31.633 84.6992 31.2065 80.1497 30.3535L78.3015 35.4716Z" fill="#C5C7C6"/>
<path d="M72.7568 37.0001L82.1401 11.1605C82.8865 9.06347 82.9576 5.29593 80.8606 3.23445C78.7636 1.17297 76.24 0.106689 71.6195 0.106689C66.9989 0.106689 63.2314 1.31514 60.2102 2.48805C58.5753 3.12782 56.1584 4.37182 53.4571 6.00679C53.2083 4.97605 52.7107 3.98085 51.9288 3.23445C49.8317 1.17297 47.3082 0.106689 42.6876 0.106689C37.996 0.106689 34.264 1.31514 31.2429 2.48805C29.6079 3.12782 27.2265 4.37182 24.4898 6.00679C24.241 4.97605 23.7434 3.98085 22.997 3.23445C20.8999 1.17297 18.3764 0.106689 13.7558 0.106689L0.320679 37.0001H14.8577L21.5397 18.5534C22.7482 15.2124 26.0536 12.0135 27.8663 10.6273C30.1766 8.85021 40.484 6.00679 37.6761 13.7551L29.2525 37.0001H43.7895L50.4715 18.5534C51.68 15.2124 54.9854 12.0135 56.7981 10.6273C59.1084 8.85021 69.4158 6.00679 66.6079 13.7551L58.1843 37.0001H72.7568Z" fill="#C5C7C6"/>
<path d="M155.465 1.7416H154.861V2.87896H155.465C155.82 2.87896 156.069 2.63016 156.069 2.31028C156.069 1.99039 155.82 1.7416 155.465 1.7416ZM156.105 4.62056L155.358 3.30548H154.861V4.62056H154.399V1.35062H155.5C156.069 1.35062 156.531 1.77714 156.531 2.34582C156.531 2.80788 156.247 3.12776 155.856 3.23439L156.638 4.62056H156.105ZM155.394 0.426513C154.008 0.426513 152.87 1.56388 152.87 2.98559C152.87 4.37176 153.972 5.54467 155.394 5.54467C156.78 5.54467 157.917 4.4073 157.917 2.98559C157.882 1.59942 156.744 0.426513 155.394 0.426513ZM155.394 5.97118C153.723 5.97118 152.408 4.6561 152.408 2.98559C152.408 1.35062 153.723 0 155.394 0C157.029 0 158.379 1.31508 158.379 2.98559C158.344 4.62056 157.029 5.97118 155.394 5.97118Z" fill="#C5C7C6"/>
</svg>
