<svg width="17" height="18" viewBox="0 0 17 18" fill="none" xmlns="http://www.w3.org/2000/svg">
<path fill-rule="evenodd" clip-rule="evenodd" d="M11.1976 1.22004L1.11964 11.298C0.968987 11.4483 0.870199 11.6428 0.837644 11.853L0.132644 16.447C0.108855 16.6022 0.121927 16.7608 0.170804 16.91C0.219681 17.0591 0.302989 17.1947 0.413987 17.3057C0.524985 17.4167 0.660555 17.5 0.809727 17.5489C0.958899 17.5978 1.11748 17.6108 1.27264 17.587L5.86764 16.882C6.07781 16.8498 6.27222 16.7513 6.42264 16.601L16.5006 6.52304C16.6881 6.33552 16.7934 6.08121 16.7934 5.81604C16.7934 5.55088 16.6881 5.29657 16.5006 5.10905L12.6106 1.21904C12.4232 1.03188 12.1691 0.926758 11.9041 0.926758C11.6392 0.926758 11.3851 1.03188 11.1976 1.21904V1.22004ZM2.31664 15.404L2.76464 12.48L11.9046 3.34004L14.3796 5.81604L5.23964 14.956L2.31664 15.404Z" fill="#9604CF"/>
<path d="M9.44141 5.24752L10.5014 4.18652L13.7434 7.42652L12.6824 8.48752L9.44141 5.24752Z" fill="#9604CF"/>
</svg>
