<svg width="30" height="31" viewBox="0 0 30 31" fill="none" xmlns="http://www.w3.org/2000/svg">
<path d="M23 14.1989L23 14.1978C22.9985 12.8233 22.458 11.5034 21.4937 10.5281C20.529 9.55245 19.2186 9.00156 17.8494 9H17.8482C16.5828 9 15.4099 9.41762 14.5 10.1736C13.5901 9.41762 12.4172 9 11.1518 9L11.1506 9C9.78142 9.00156 8.47103 9.55245 7.50631 10.5281C6.54198 11.5034 6.00153 12.8233 6 14.1978V14.1989C6 17.0325 8.04359 19.4349 9.84908 21.0341C11.6972 22.6709 13.5755 23.7103 13.7717 23.8156C13.9951 23.9364 14.2453 24 14.5 24C14.7546 24 15.0048 23.9364 15.2282 23.8157C15.4235 23.7108 17.3023 22.6713 19.1509 21.0341C20.9564 19.4349 23 17.0325 23 14.1989Z" stroke="white" stroke-width="2"/>
</svg>
