<svg width="60" height="73" viewBox="0 0 60 73" fill="none" xmlns="http://www.w3.org/2000/svg">
<rect width="60" height="60" rx="30" fill="#45CC2E"/>
<path fill-rule="evenodd" clip-rule="evenodd" d="M14.7242 23.9616L25.7244 13.8675C25.808 13.7912 25.8935 13.7397 26.0017 13.7034L27.9142 13.0435C28.0662 12.992 28.2086 12.9862 28.3643 13.0263L41.8735 16.4577C42.0406 16.4997 42.1736 16.5836 42.2856 16.7191L43.6227 18.3289C43.6853 18.4014 43.7271 18.4739 43.7594 18.5655L47.9909 30.2351C48.0915 30.5136 48.0383 30.8035 47.8446 31.0286L35.3934 45.4087C35.3136 45.5002 35.23 45.5632 35.1199 45.6127L32.5521 46.7725C32.3546 46.8621 32.1514 46.8678 31.9482 46.7896L12.5116 39.4155C12.1621 39.282 11.9551 38.9349 12.0083 38.5629L13.6815 26.6186C13.6891 26.5614 13.7024 26.5137 13.7214 26.4584L14.5152 24.2744C14.5608 24.1504 14.6254 24.0512 14.7242 23.9616Z" fill="#2B2A29"/>
<path fill-rule="evenodd" clip-rule="evenodd" d="M15.2579 24.549L26.2581 14.4549L28.1706 13.7969L41.6779 17.2283L43.0168 18.8382L47.2464 30.5078L34.797 44.8898L32.2293 46.0495L12.7908 38.6754L14.464 26.7311L15.2579 24.549Z" fill="#9604CF"/>
<path fill-rule="evenodd" clip-rule="evenodd" d="M28.5998 17.1663L33.2947 18.6331C33.3897 18.6617 33.4542 18.7323 33.4789 18.8276C33.5036 18.923 33.4789 19.0184 33.4125 19.0889L31.8817 20.6893C31.8076 20.7675 31.7013 20.7942 31.5987 20.7618L30.6548 20.4547C30.5541 20.4222 30.4497 20.447 30.3737 20.5233L29.6368 21.2749C29.5684 21.3454 29.5418 21.4389 29.5665 21.5343C29.5893 21.6296 29.6539 21.7002 29.747 21.7307L30.5978 22.0168C30.6909 22.0474 30.7554 22.1198 30.7782 22.2152C30.801 22.3106 30.7763 22.404 30.7061 22.4727L29.1829 24.0311C29.1069 24.1093 29.0025 24.1341 28.8999 24.0998L23.4757 22.3125C23.3808 22.2801 23.3124 22.2057 23.2915 22.1065C23.2725 22.0054 23.3029 21.91 23.3789 21.8414C25.0996 20.3021 26.712 18.8658 28.3225 17.2349C28.3966 17.1586 28.4992 17.1338 28.5998 17.1663Z" fill="#2B2A29"/>
<path fill-rule="evenodd" clip-rule="evenodd" d="M25.4529 20.7707L29.785 22.2223C29.8724 22.2509 29.935 22.3195 29.9578 22.4111C29.9787 22.5026 29.954 22.5904 29.8894 22.6571L29.0519 23.5136C28.9797 23.588 28.8791 23.6128 28.7822 23.5803L24.3437 22.1173C24.2526 22.0868 24.188 22.0143 24.169 21.919C24.1481 21.8236 24.1785 21.732 24.2507 21.6672L25.1927 20.8241C25.2649 20.7593 25.3598 20.7402 25.4529 20.7707ZM26.8431 19.3058L26.015 20.1489C25.9486 20.2156 25.9239 20.3053 25.9467 20.3968C25.9676 20.4884 26.0302 20.5552 26.1195 20.5857L28.6398 21.4288C28.7366 21.4631 28.8392 21.4383 28.9114 21.3639L29.7394 20.5208C29.8059 20.4541 29.8306 20.3644 29.8078 20.2729C29.785 20.1813 29.7242 20.1126 29.635 20.084L27.1128 19.239C27.0159 19.2066 26.9153 19.2314 26.8431 19.3058ZM28.7214 17.6769L32.48 18.8518C32.5692 18.8804 32.6319 18.9472 32.6566 19.0388C32.6794 19.1303 32.6566 19.22 32.592 19.2886L31.7469 20.1718C31.6747 20.2462 31.5741 20.2729 31.4753 20.2404L27.7357 19.0254C27.6465 18.9968 27.5819 18.9281 27.561 18.8366C27.5382 18.745 27.5629 18.6554 27.6275 18.5886L28.4555 17.7436C28.5258 17.6711 28.6246 17.6463 28.7214 17.6769Z" fill="#52F536"/>
<path fill-rule="evenodd" clip-rule="evenodd" d="M41.3455 18.1953L29.8248 30.4849L15.6301 25.2585L15.2047 26.5804L28.974 31.9364L32.9566 43.7682V43.772L31.443 31.2917L42.2001 19.2921L41.3455 18.1953Z" fill="#FEFEFE"/>
<circle cx="30" cy="68.5" r="4.5" fill="#45CC2E"/>
</svg>
