<svg width="21" height="21" viewBox="0 0 21 21" fill="none" xmlns="http://www.w3.org/2000/svg">
<mask id="mask0_80_19817" style="mask-type:luminance" maskUnits="userSpaceOnUse" x="0" y="0" width="21" height="21">
<path d="M20.125 0.949951H0.125V20.95H20.125V0.949951Z" fill="white"/>
</mask>
<g mask="url(#mask0_80_19817)">
<path d="M7.62461 10.3833H3.45794C3.03206 10.3811 2.62425 10.211 2.3231 9.90984C2.02195 9.6087 1.8518 9.20088 1.84961 8.775V4.60833C1.8518 4.18245 2.02195 3.77464 2.3231 3.47349C2.62425 3.17234 3.03206 3.00219 3.45794 3H7.62461C8.05049 3.00219 8.45831 3.17234 8.75945 3.47349C9.0606 3.77464 9.23075 4.18245 9.23294 4.60833V8.775C9.23075 9.20088 9.0606 9.6087 8.75945 9.90984C8.45831 10.211 8.05049 10.3811 7.62461 10.3833ZM3.45794 4.25C3.36357 4.25212 3.27366 4.29056 3.20691 4.3573C3.14016 4.42405 3.10173 4.51396 3.09961 4.60833V8.775C3.09961 8.87004 3.13736 8.96118 3.20456 9.02838C3.27176 9.09558 3.36291 9.13333 3.45794 9.13333H7.62461C7.71964 9.13333 7.81079 9.09558 7.87799 9.02838C7.94519 8.96118 7.98294 8.87004 7.98294 8.775V4.60833C7.98294 4.5133 7.94519 4.42215 7.87799 4.35495C7.81079 4.28775 7.71964 4.25 7.62461 4.25H3.45794Z" fill="#C5C7C6"/>
<path d="M16.5416 10.3833H12.3749C11.9491 10.3811 11.5412 10.211 11.2401 9.90984C10.9389 9.6087 10.7688 9.20088 10.7666 8.775V4.60833C10.7688 4.18245 10.9389 3.77464 11.2401 3.47349C11.5412 3.17234 11.9491 3.00219 12.3749 3H16.5416C16.9675 3.00219 17.3753 3.17234 17.6764 3.47349C17.9776 3.77464 18.1477 4.18245 18.1499 4.60833V8.775C18.1477 9.20088 17.9776 9.6087 17.6764 9.90984C17.3753 10.211 16.9675 10.3811 16.5416 10.3833ZM12.3749 4.25C12.2799 4.25 12.1888 4.28775 12.1216 4.35495C12.0544 4.42215 12.0166 4.5133 12.0166 4.60833V8.775C12.0166 8.87004 12.0544 8.96118 12.1216 9.02838C12.1888 9.09558 12.2799 9.13333 12.3749 9.13333H16.5416C16.6366 9.13333 16.7278 9.09558 16.795 9.02838C16.8622 8.96118 16.8999 8.87004 16.8999 8.775V4.60833C16.8978 4.51396 16.8594 4.42405 16.7926 4.3573C16.7259 4.29056 16.636 4.25212 16.5416 4.25H12.3749Z" fill="#C5C7C6"/>
<path d="M7.62461 19H3.45794C3.03206 18.9978 2.62425 18.8277 2.3231 18.5265C2.02195 18.2254 1.8518 17.8176 1.84961 17.3917V13.225C1.8518 12.7992 2.02195 12.3913 2.3231 12.0902C2.62425 11.789 3.03206 11.6189 3.45794 11.6167H7.62461C8.05049 11.6189 8.45831 11.789 8.75945 12.0902C9.0606 12.3913 9.23075 12.7992 9.23294 13.225V17.3917C9.23075 17.8176 9.0606 18.2254 8.75945 18.5265C8.45831 18.8277 8.05049 18.9978 7.62461 19ZM3.45794 12.8667C3.36291 12.8667 3.27176 12.9045 3.20456 12.9717C3.13736 13.0389 3.09961 13.13 3.09961 13.225V17.3917C3.10173 17.4861 3.14016 17.576 3.20691 17.6427C3.27366 17.7095 3.36357 17.7479 3.45794 17.75H7.62461C7.71964 17.75 7.81079 17.7123 7.87799 17.6451C7.94519 17.5779 7.98294 17.4867 7.98294 17.3917V13.225C7.98294 13.13 7.94519 13.0389 7.87799 12.9717C7.81079 12.9045 7.71964 12.8667 7.62461 12.8667H3.45794Z" fill="#C5C7C6"/>
<path d="M16.5416 19H12.3749C11.9491 18.9978 11.5412 18.8277 11.2401 18.5265C10.9389 18.2254 10.7688 17.8176 10.7666 17.3917V13.225C10.7688 12.7992 10.9389 12.3913 11.2401 12.0902C11.5412 11.789 11.9491 11.6189 12.3749 11.6167H16.5416C16.9675 11.6189 17.3753 11.789 17.6764 12.0902C17.9776 12.3913 18.1477 12.7992 18.1499 13.225V17.3917C18.1477 17.8176 17.9776 18.2254 17.6764 18.5265C17.3753 18.8277 16.9675 18.9978 16.5416 19ZM12.3749 12.8667C12.2799 12.8667 12.1888 12.9045 12.1216 12.9717C12.0544 13.0389 12.0166 13.13 12.0166 13.225V17.3917C12.0166 17.4867 12.0544 17.5779 12.1216 17.6451C12.1888 17.7123 12.2799 17.75 12.3749 17.75H16.5416C16.636 17.7479 16.7259 17.7095 16.7926 17.6427C16.8594 17.576 16.8978 17.4861 16.8999 17.3917V13.225C16.8999 13.13 16.8622 13.0389 16.795 12.9717C16.7278 12.9045 16.6366 12.8667 16.5416 12.8667H12.3749Z" fill="#C5C7C6"/>
</g>
</svg>
