<svg width="20" height="20" viewBox="0 0 20 20" fill="none" xmlns="http://www.w3.org/2000/svg">
<g clip-path="url(#clip0_80_21985)">
<path d="M18.125 0H1.875C1.37772 0 0.900806 0.197544 0.549176 0.549175C0.197545 0.900805 0 1.37772 0 1.875V18.125C0 18.6223 0.197545 19.0992 0.549176 19.4508C0.900806 19.8025 1.37772 20 1.875 20H18.125C18.6223 20 19.0992 19.8025 19.4508 19.4508C19.8025 19.0992 20 18.6223 20 18.125V1.875C20 1.37772 19.8025 0.900805 19.4508 0.549175C19.0992 0.197544 18.6223 0 18.125 0ZM18.125 18.75H6.25V18.125C6.25 17.9592 6.18415 17.8003 6.06694 17.6831C5.94973 17.5658 5.79076 17.5 5.625 17.5C5.45924 17.5 5.30027 17.5658 5.18306 17.6831C5.06585 17.8003 5 17.9592 5 18.125V18.75H3.75V15.625C3.75 15.4592 3.68415 15.3003 3.56694 15.1831C3.44973 15.0658 3.29076 15 3.125 15C2.95924 15 2.80027 15.0658 2.68306 15.1831C2.56585 15.3003 2.5 15.4592 2.5 15.625V18.75H1.875C1.70924 18.75 1.55027 18.6842 1.43306 18.5669C1.31585 18.4497 1.25 18.2908 1.25 18.125V1.875C1.25 1.70924 1.31585 1.55027 1.43306 1.43306C1.55027 1.31585 1.70924 1.25 1.875 1.25H7.5V11.875C7.5 12.0408 7.56585 12.1997 7.68306 12.3169C7.80027 12.4342 7.95924 12.5 8.125 12.5H10.115C10.2624 12.917 10.5525 13.2685 10.934 13.4923C11.3156 13.7161 11.7639 13.7978 12.1998 13.723C12.6358 13.6482 13.0312 13.4217 13.3163 13.0835C13.6014 12.7454 13.7578 12.3173 13.7578 11.875C13.7578 11.4327 13.6014 11.0046 13.3163 10.6665C13.0312 10.3283 12.6358 10.1018 12.1998 10.027C11.7639 9.95221 11.3156 10.0339 10.934 10.2577C10.5525 10.4815 10.2624 10.833 10.115 11.25H8.75V1.25H18.125C18.2908 1.25 18.4497 1.31585 18.5669 1.43306C18.6842 1.55027 18.75 1.70924 18.75 1.875V2.5H15.625C15.4592 2.5 15.3003 2.56585 15.1831 2.68306C15.0658 2.80027 15 2.95924 15 3.125C15 3.29076 15.0658 3.44973 15.1831 3.56694C15.3003 3.68415 15.4592 3.75 15.625 3.75H18.75V5H16.875C16.7092 5 16.5503 5.06585 16.4331 5.18306C16.3158 5.30027 16.25 5.45924 16.25 5.625C16.25 5.79076 16.3158 5.94973 16.4331 6.06694C16.5503 6.18415 16.7092 6.25 16.875 6.25H18.75V7.5H12.5V6.135C12.917 5.98757 13.2685 5.69746 13.4923 5.31595C13.7161 4.93444 13.7978 4.4861 13.723 4.05017C13.6482 3.61423 13.4217 3.21877 13.0835 2.93368C12.7454 2.6486 12.3173 2.49223 11.875 2.49223C11.4327 2.49223 11.0046 2.6486 10.6665 2.93368C10.3283 3.21877 10.1018 3.61423 10.027 4.05017C9.95221 4.4861 10.0339 4.93444 10.2577 5.31595C10.4815 5.69746 10.833 5.98757 11.25 6.135V8.125C11.25 8.29076 11.3158 8.44973 11.4331 8.56694C11.5503 8.68415 11.7092 8.75 11.875 8.75H18.75V18.125C18.75 18.2908 18.6842 18.4497 18.5669 18.5669C18.4497 18.6842 18.2908 18.75 18.125 18.75ZM11.25 11.875C11.25 11.7514 11.2867 11.6305 11.3553 11.5278C11.424 11.425 11.5216 11.3449 11.6358 11.2976C11.75 11.2503 11.8757 11.2379 11.9969 11.262C12.1182 11.2861 12.2295 11.3456 12.3169 11.4331C12.4044 11.5205 12.4639 11.6318 12.488 11.7531C12.5121 11.8743 12.4997 12 12.4524 12.1142C12.4051 12.2284 12.325 12.326 12.2222 12.3947C12.1195 12.4633 11.9986 12.5 11.875 12.5C11.7092 12.5 11.5503 12.4342 11.4331 12.3169C11.3158 12.1997 11.25 12.0408 11.25 11.875ZM11.25 4.375C11.25 4.25139 11.2867 4.13055 11.3553 4.02777C11.424 3.92499 11.5216 3.84488 11.6358 3.79758C11.75 3.75027 11.8757 3.73789 11.9969 3.76201C12.1182 3.78612 12.2295 3.84565 12.3169 3.93306C12.4044 4.02047 12.4639 4.13183 12.488 4.25307C12.5121 4.37431 12.4997 4.49997 12.4524 4.61418C12.4051 4.72838 12.325 4.82599 12.2222 4.89467C12.1195 4.96334 11.9986 5 11.875 5C11.7092 5 11.5503 4.93415 11.4331 4.81694C11.3158 4.69973 11.25 4.54076 11.25 4.375ZM15.625 13.75C15.2386 13.7516 14.8621 13.8726 14.5471 14.0963C14.232 14.3201 13.9938 14.6357 13.865 15H7.13375L5 12.8663V6.135C5.41701 5.98757 5.76847 5.69746 5.99227 5.31595C6.21607 4.93444 6.29779 4.4861 6.223 4.05017C6.1482 3.61423 5.9217 3.21877 5.58354 2.93368C5.24537 2.6486 4.8173 2.49223 4.375 2.49223C3.9327 2.49223 3.50463 2.6486 3.16646 2.93368C2.8283 3.21877 2.6018 3.61423 2.527 4.05017C2.45221 4.4861 2.53393 4.93444 2.75773 5.31595C2.98153 5.69746 3.33299 5.98757 3.75 6.135V13.125C3.74985 13.2071 3.7659 13.2885 3.79721 13.3644C3.82853 13.4403 3.8745 13.5094 3.9325 13.5675L6.4325 16.0675C6.49065 16.1255 6.55966 16.1715 6.63559 16.2028C6.71151 16.2341 6.79287 16.2501 6.875 16.25H13.865C13.9797 16.5744 14.1814 16.861 14.4481 17.0784C14.7149 17.2957 15.0362 17.4356 15.3771 17.4825C15.718 17.5294 16.0652 17.4816 16.3807 17.3444C16.6962 17.2071 16.9679 16.9857 17.1659 16.7043C17.364 16.423 17.4808 16.0926 17.5036 15.7492C17.5264 15.4059 17.4543 15.0629 17.2952 14.7579C17.1361 14.4528 16.8961 14.1974 16.6015 14.0196C16.3069 13.8419 15.9691 13.7486 15.625 13.75ZM4.375 3.75C4.49861 3.75 4.61945 3.78666 4.72223 3.85533C4.82501 3.92401 4.90512 4.02162 4.95242 4.13582C4.99973 4.25003 5.01211 4.37569 4.98799 4.49693C4.96388 4.61817 4.90435 4.72953 4.81694 4.81694C4.72953 4.90435 4.61817 4.96388 4.49693 4.98799C4.37569 5.01211 4.25003 4.99973 4.13582 4.95243C4.02162 4.90512 3.92401 4.82501 3.85533 4.72223C3.78665 4.61945 3.75 4.49861 3.75 4.375C3.75 4.20924 3.81585 4.05027 3.93306 3.93306C4.05027 3.81585 4.20924 3.75 4.375 3.75ZM15.625 16.25C15.5014 16.25 15.3805 16.2133 15.2778 16.1447C15.175 16.076 15.0949 15.9784 15.0476 15.8642C15.0003 15.75 14.9879 15.6243 15.012 15.5031C15.0361 15.3818 15.0956 15.2705 15.1831 15.1831C15.2705 15.0956 15.3818 15.0361 15.5031 15.012C15.6243 14.9879 15.75 15.0003 15.8642 15.0476C15.9784 15.0949 16.076 15.175 16.1447 15.2778C16.2133 15.3805 16.25 15.5014 16.25 15.625C16.25 15.7908 16.1842 15.9497 16.0669 16.0669C15.9497 16.1842 15.7908 16.25 15.625 16.25Z" fill="#C5C7C6"/>
</g>
<defs>
<clipPath id="clip0_80_21985">
<rect width="20" height="20" fill="white"/>
</clipPath>
</defs>
</svg>
