<svg width="20" height="20" viewBox="0 0 20 20" fill="none" xmlns="http://www.w3.org/2000/svg">
<g clip-path="url(#clip0_80_21300)">
<path d="M1.25 4.43335H6.025V6.81668C6.025 7.23882 5.85731 7.64367 5.55881 7.94216C5.26032 8.24066 4.85547 8.40835 4.43333 8.40835H2.84167C2.41953 8.40835 2.01468 8.24066 1.71619 7.94216C1.41769 7.64367 1.25 7.23882 1.25 6.81668V4.43335Z" stroke="#C5C7C6" stroke-width="1.3" stroke-miterlimit="10"/>
<path d="M5.22533 1.25H2.04199V4.43333H5.22533V1.25Z" stroke="#C5C7C6" stroke-width="1.3" stroke-miterlimit="10"/>
<path d="M18.75 15.5667H13.975V13.1833C13.975 12.7612 14.1427 12.3563 14.4412 12.0578C14.7397 11.7593 15.1445 11.5917 15.5667 11.5917H17.1583C17.5805 11.5917 17.9853 11.7593 18.2838 12.0578C18.5823 12.3563 18.75 12.7612 18.75 13.1833V15.5667Z" stroke="#C5C7C6" stroke-width="1.3" stroke-miterlimit="10"/>
<path d="M14.7669 18.75H17.9502V15.5667H14.7669V18.75Z" stroke="#C5C7C6" stroke-width="1.3" stroke-miterlimit="10"/>
<path d="M3.63379 8.40833V15.5667C3.63379 16.4109 3.96918 17.2206 4.56617 17.8176C5.16316 18.4146 5.97285 18.75 6.81712 18.75C7.23516 18.75 7.64911 18.6677 8.03533 18.5077C8.42155 18.3477 8.77248 18.1132 9.06808 17.8176C9.36368 17.522 9.59816 17.1711 9.75814 16.7849C9.91812 16.3987 10.0005 15.9847 10.0005 15.5667V4.43333C10.0005 3.58906 10.3358 2.77937 10.9328 2.18238C11.5298 1.58539 12.3395 1.25 13.1838 1.25C14.0281 1.25 14.8378 1.58539 15.4347 2.18238C16.0317 2.77937 16.3671 3.58906 16.3671 4.43333V11.5917" stroke="#C5C7C6" stroke-width="1.3" stroke-miterlimit="10"/>
</g>
<defs>
<clipPath id="clip0_80_21300">
<rect width="20" height="20" fill="white"/>
</clipPath>
</defs>
</svg>
