<svg width="20" height="20" viewBox="0 0 20 20" fill="none" xmlns="http://www.w3.org/2000/svg">
<path d="M19 11.3334H16.6667V2.16675C16.6667 1.89073 16.443 1.66675 16.1667 1.66675C15.8904 1.66675 15.6667 1.89073 15.6667 2.16675V11.3334H4.33332V2.16675C4.33332 1.89073 4.10965 1.66675 3.83332 1.66675C3.55699 1.66675 3.33332 1.89073 3.33332 2.16675V11.3334H1C0.447656 11.3334 0 11.7811 0 12.3334V17.3334C0 17.8858 0.447656 18.3334 1 18.3334H19C19.5523 18.3334 20 17.8858 20 17.3334V12.3334C20 11.7811 19.5523 11.3334 19 11.3334ZM19 17.3334H1V12.3334H19V17.3334Z" fill="#C5C7C6"/>
<path d="M12.167 15.3333C12.4431 15.3333 12.667 15.1094 12.667 14.8333C12.667 14.5571 12.4431 14.3333 12.167 14.3333C11.8909 14.3333 11.667 14.5571 11.667 14.8333C11.667 15.1094 11.8909 15.3333 12.167 15.3333Z" fill="#C5C7C6"/>
<path d="M14.167 15.3333C14.4431 15.3333 14.667 15.1094 14.667 14.8333C14.667 14.5571 14.4431 14.3333 14.167 14.3333C13.8908 14.3333 13.667 14.5571 13.667 14.8333C13.667 15.1094 13.8908 15.3333 14.167 15.3333Z" fill="#C5C7C6"/>
<path d="M16.167 15.3333C16.4431 15.3333 16.667 15.1094 16.667 14.8333C16.667 14.5571 16.4431 14.3333 16.167 14.3333C15.8909 14.3333 15.667 14.5571 15.667 14.8333C15.667 15.1094 15.8909 15.3333 16.167 15.3333Z" fill="#C5C7C6"/>
</svg>
