<svg width="182" height="50" viewBox="0 0 182 50" fill="none" xmlns="http://www.w3.org/2000/svg">
<g clip-path="url(#clip0_215_4422)">
<path fill-rule="evenodd" clip-rule="evenodd" d="M65.1637 32.1848L87.3819 32.4326C87.6012 32.4353 87.7903 32.5317 87.9219 32.7079C88.0535 32.884 88.0946 33.0905 88.0343 33.3025L86.4829 38.9953C86.3979 39.3036 86.1293 39.5073 85.8141 39.5018L63.5958 39.254C63.3766 39.2513 63.1874 39.1577 63.0559 38.9815C62.9243 38.8053 62.8832 38.5989 62.9408 38.3842L64.4949 32.6913C64.5798 32.3858 64.8485 32.1821 65.1637 32.1848ZM170.03 23.9126L175.764 29.5008C175.967 29.699 176.027 29.9826 175.923 30.2469C175.819 30.5111 175.581 30.6763 175.298 30.6818L167.541 30.7974C167.358 30.7974 167.199 30.7369 167.064 30.6102L160.917 24.8486C160.705 24.6504 160.64 24.3586 160.747 24.0916C160.853 23.8218 161.1 23.6539 161.388 23.6566L169.559 23.7199C169.742 23.7199 169.899 23.786 170.03 23.9126ZM155.298 31.9563L177.066 32.0087C177.288 32.0114 177.477 32.105 177.612 32.2812C177.743 32.4574 177.784 32.6666 177.727 32.8813L176.126 38.6952C176.044 38.998 175.781 39.199 175.468 39.2017L153.768 39.2761C153.549 39.2761 153.36 39.1852 153.225 39.009C153.088 38.8356 153.047 38.6292 153.102 38.4144L154.631 32.4711C154.711 32.1628 154.98 31.9536 155.298 31.9563ZM160.311 15.434L181.265 15.5028C181.485 15.5028 181.674 15.5964 181.808 15.7726C181.942 15.9488 181.981 16.158 181.923 16.3727L180.372 22.0628C180.287 22.3656 180.021 22.5693 179.709 22.5693L158.754 22.5004C158.532 22.5004 158.343 22.4041 158.211 22.2279C158.077 22.0517 158.036 21.8425 158.096 21.6306L159.647 15.9405C159.73 15.6349 159.996 15.4312 160.311 15.434ZM146.844 26.2525L149.435 16.0616C149.514 15.7533 149.785 15.5441 150.103 15.5441L156.249 15.5881C156.465 15.5909 156.654 15.6845 156.786 15.8579C156.92 16.0313 156.961 16.2378 156.906 16.4525L151.044 38.7998C150.961 39.1081 150.693 39.3174 150.375 39.3146L144.317 39.2678C144.021 39.2651 143.769 39.0806 143.673 38.7971L140.041 27.9868L137.139 39.0503C137.059 39.3586 136.791 39.5679 136.473 39.5651L130.508 39.5183C130.292 39.5156 130.105 39.422 129.971 39.2485C129.839 39.0779 129.796 38.8714 129.85 38.6594L135.532 16.3121C135.612 16.0038 135.883 15.7919 136.201 15.7946L142.9 15.8414C143.199 15.8442 143.451 16.0286 143.544 16.3121L146.844 26.2525ZM108.265 23.9897L124.377 24.1687C124.596 24.1714 124.785 24.2678 124.917 24.4439C125.048 24.6201 125.089 24.8266 125.029 25.0385L123.478 30.7313C123.393 31.0369 123.124 31.2406 122.809 31.2379L106.695 31.0589C106.475 31.0562 106.289 30.9598 106.155 30.7864C106.023 30.6102 105.985 30.401 106.042 30.189L107.597 24.4962C107.679 24.1907 107.947 23.987 108.265 23.9897ZM110.395 15.7258L132.537 15.7698C132.753 15.7698 132.942 15.8607 133.077 16.0341C133.208 16.2075 133.252 16.414 133.197 16.626L131.712 22.528C131.635 22.839 131.361 23.0483 131.04 23.0455L108.83 22.7978C108.611 22.795 108.424 22.7014 108.293 22.5252C108.158 22.349 108.12 22.1398 108.178 21.9279L109.732 16.2323C109.814 15.9267 110.08 15.7258 110.395 15.7258ZM106.042 32.2041L128.261 32.4519C128.48 32.4546 128.669 32.5482 128.801 32.7244C128.932 32.9006 128.971 33.107 128.913 33.3217L127.362 39.0145C127.277 39.3201 127.008 39.5238 126.693 39.5211L104.472 39.2733C104.253 39.2706 104.066 39.1742 103.935 38.998C103.8 38.8219 103.762 38.6154 103.819 38.4034L105.374 32.7106C105.456 32.4023 105.724 32.1986 106.042 32.2041ZM97.5701 39.411C97.5153 39.4247 97.4577 39.433 97.3974 39.433L91.4413 39.4495C91.1233 39.4522 90.8575 39.2458 90.7752 38.9375L86.6008 22.9932L67.9512 22.7812C67.732 22.7785 67.5456 22.6821 67.4113 22.506C67.2797 22.3325 67.2413 22.1233 67.2989 21.9113L68.853 16.213C68.9352 15.9102 69.2011 15.7065 69.5163 15.7093L91.7373 15.7506C92.0553 15.7506 92.3211 15.9598 92.4006 16.2681L96.2791 31.5489L100.185 16.1883C100.264 15.8772 100.536 15.668 100.854 15.6707L106.999 15.7148C107.216 15.7148 107.405 15.8084 107.536 15.9845C107.671 16.158 107.712 16.3644 107.657 16.5764L101.794 38.9265C101.712 39.2348 101.443 39.4412 101.125 39.4385L97.5701 39.411ZM67.3866 23.9732L83.498 24.1521C83.7173 24.1549 83.9064 24.2485 84.038 24.4247C84.1695 24.6008 84.2106 24.8101 84.1531 25.022L82.5989 30.7148C82.5167 31.0204 82.2454 31.2241 81.9301 31.2213L65.8188 31.0424C65.5967 31.0397 65.4104 30.9433 65.2788 30.7671C65.1445 30.591 65.1061 30.3845 65.1637 30.1725L66.7178 24.477C66.8 24.1714 67.0686 23.9677 67.3866 23.9732Z" fill="#1F1B20"/>
<path fill-rule="evenodd" clip-rule="evenodd" d="M65.1555 32.873L63.6013 38.5658L85.8223 38.8136L87.3737 33.1208L65.1555 32.873ZM169.553 24.4081L161.382 24.3448L167.53 30.1092L175.287 29.9936L169.553 24.4081ZM155.295 32.6446L153.765 38.5879L175.466 38.5135L177.066 32.6969L155.295 32.6446ZM160.308 16.1222L158.757 21.8122L179.711 21.8811L181.263 16.191L160.308 16.1222ZM136.478 38.8769L139.962 25.5946L144.323 38.5796L150.38 38.6264L156.243 16.2763L150.098 16.2323L146.932 28.6915L142.895 16.5296L136.196 16.4828L130.514 38.8301L136.478 38.8769ZM108.257 24.6779L106.703 30.3707L122.817 30.5497L124.368 24.8569L108.257 24.6779ZM110.392 16.414L108.838 22.1096L131.048 22.3573L132.534 16.458L110.392 16.414ZM106.034 32.8923L104.48 38.5851L126.701 38.8329L128.252 33.1401L106.034 32.8923ZM101.131 38.7503L106.994 16.403L100.848 16.3589L96.2791 34.3293L91.7373 16.4388L69.5136 16.3947L67.9595 22.093L87.1298 22.3133L91.4386 38.7613L97.3974 38.7448L97.3919 38.7228L101.131 38.7503ZM67.3784 24.6587L65.8243 30.3542L81.9384 30.5331L83.4925 24.8403L67.3784 24.6587Z" fill="#9604CF"/>
<path fill-rule="evenodd" clip-rule="evenodd" d="M3.98536 16.4443L19.861 1.87641C19.9816 1.76629 20.105 1.69197 20.2612 1.63967L23.0214 0.687194C23.2406 0.612868 23.4462 0.604609 23.671 0.662418L43.1674 5.61472C43.4086 5.67528 43.6005 5.79641 43.7622 5.99186L45.6919 8.31523C45.7823 8.41983 45.8426 8.52444 45.8892 8.65658L51.9961 25.4983C52.1414 25.9002 52.0646 26.3186 51.785 26.6434L33.8153 47.3969C33.7001 47.529 33.5795 47.6198 33.4206 47.6914L29.7148 49.3651C29.4297 49.4945 29.1364 49.5028 28.8432 49.3899L0.79214 38.7475C0.287803 38.5548 -0.0109619 38.0538 0.0657851 37.517L2.48057 20.2789C2.49154 20.1964 2.51072 20.1275 2.53813 20.0477L3.68386 16.8957C3.74964 16.7168 3.84283 16.5737 3.98536 16.4443Z" fill="#2B2A29"/>
<path fill-rule="evenodd" clip-rule="evenodd" d="M4.75558 17.2894L20.6312 2.72152L23.3914 1.7718L42.8851 6.7241L44.8175 9.04747L50.9216 25.8892L32.9546 46.6453L29.2488 48.319L1.19507 37.6767L3.60986 20.4386L4.75558 17.2894Z" fill="#9604CF"/>
<path fill-rule="evenodd" clip-rule="evenodd" d="M24.0108 6.63602L30.7865 8.75293C30.9236 8.79422 31.0167 8.89607 31.0524 9.03371C31.088 9.17135 31.0524 9.30899 30.9564 9.41085L28.7472 11.7205C28.6403 11.8333 28.4868 11.8719 28.3388 11.8251L26.9766 11.3819C26.8313 11.3351 26.6805 11.3708 26.5709 11.481L25.5074 12.5656C25.4087 12.6674 25.3704 12.8023 25.406 12.9399C25.4389 13.0776 25.5321 13.1794 25.6664 13.2235L26.8943 13.6364C27.0286 13.6805 27.1218 13.7851 27.1547 13.9227C27.1876 14.0603 27.152 14.1952 27.0506 14.2943L24.8523 16.5434C24.7427 16.6562 24.5919 16.692 24.4439 16.6425L16.6157 14.0631C16.4787 14.0163 16.38 13.9089 16.3498 13.7658C16.3224 13.6199 16.3663 13.4823 16.4759 13.3832C18.9592 11.1616 21.2863 9.08877 23.6107 6.73512C23.7176 6.62501 23.8656 6.58922 24.0108 6.63602Z" fill="#2B2A29"/>
<path fill-rule="evenodd" clip-rule="evenodd" d="M19.4691 11.8416L25.7212 13.9365C25.8473 13.9778 25.9377 14.0769 25.9706 14.209C26.0008 14.3411 25.9652 14.4678 25.872 14.5641L24.6632 15.8001C24.559 15.9075 24.4138 15.9433 24.274 15.8965L17.8683 13.7851C17.7368 13.741 17.6436 13.6364 17.6162 13.4988C17.586 13.3611 17.6299 13.229 17.734 13.1354L19.0936 11.9187C19.1977 11.8251 19.3348 11.7975 19.4691 11.8416ZM21.4755 9.72742L20.2804 10.9442C20.1845 11.0405 20.1488 11.1699 20.1817 11.302C20.2119 11.4342 20.3023 11.5305 20.4311 11.5746L24.0684 12.7913C24.2082 12.8408 24.3562 12.8051 24.4604 12.6977L25.6554 11.481C25.7514 11.3846 25.787 11.2552 25.7541 11.1231C25.7212 10.991 25.6335 10.8919 25.5047 10.8506L21.8647 9.63107C21.7249 9.58427 21.5796 9.62006 21.4755 9.72742ZM24.1863 7.37652L29.6106 9.07225C29.7395 9.11354 29.8299 9.20989 29.8655 9.34202C29.8984 9.47416 29.8655 9.60354 29.7723 9.70264L28.5526 10.9772C28.4485 11.0846 28.3032 11.1231 28.1607 11.0763L22.7637 9.32275C22.6349 9.28146 22.5417 9.18236 22.5115 9.05023C22.4786 8.91809 22.5143 8.78871 22.6075 8.69236L23.8025 7.47287C23.9039 7.36826 24.0465 7.33247 24.1863 7.37652Z" fill="#52F536"/>
<path fill-rule="evenodd" clip-rule="evenodd" d="M42.4055 8.11978L25.7788 25.8561L5.29281 18.3134L4.67883 20.2211L24.5508 27.951L30.2986 45.0267V45.0322L28.1141 27.0206L43.6389 9.70265L42.4055 8.11978Z" fill="#FEFEFE"/>
<path fill-rule="evenodd" clip-rule="evenodd" d="M101.131 38.7558L106.994 16.403L100.848 16.3589L95.1608 38.753L101.131 38.7558Z" fill="#52F536"/>
<path fill-rule="evenodd" clip-rule="evenodd" d="M150.38 38.6264L156.243 16.2763L150.101 16.2323L144.512 38.5796L150.38 38.6264Z" fill="#52F536"/>
</g>
<defs>
<clipPath id="clip0_215_4422">
<rect width="182" height="49" fill="white" transform="translate(0 0.5)"/>
</clipPath>
</defs>
</svg>
