<svg width="30" height="30" viewBox="0 0 30 30" fill="none" xmlns="http://www.w3.org/2000/svg">
<path d="M4 15.5C4 15.0398 4.3731 14.6667 4.83333 14.6667H18.9167C19.3769 14.6667 19.75 15.0398 19.75 15.5C19.75 15.9602 19.3769 16.3333 18.9167 16.3333H4.83333C4.3731 16.3333 4 15.9602 4 15.5ZM4 8.83333C4 8.3731 4.3731 8 4.83333 8H24.1667C24.6269 8 25 8.3731 25 8.83333C25 9.29357 24.6269 9.66667 24.1667 9.66667H4.83333C4.3731 9.66667 4 9.29357 4 8.83333ZM4 22.1667C4 22.6269 4.3731 23 4.83333 23H12.6626C13.1228 23 13.4959 22.6269 13.4959 22.1667C13.4959 21.7064 13.1228 21.3333 12.6626 21.3333H4.83333C4.3731 21.3333 4 21.7064 4 22.1667Z" fill="#C5C7C6"/>
</svg>
