<svg width="30" height="22" viewBox="0 0 30 22" fill="none" xmlns="http://www.w3.org/2000/svg">
<path d="M0 11C0 9.98748 0.820811 9.16667 1.83333 9.16667H20.0023C21.0148 9.16667 21.8356 9.98748 21.8356 11C21.8356 12.0125 21.0148 12.8333 20.0023 12.8333H1.83333C0.820811 12.8333 0 12.0125 0 11ZM0 1.83333C0 0.820812 0.820811 0 1.83333 0H27.2808C28.2934 0 29.1142 0.820812 29.1142 1.83333C29.1142 2.84586 28.2934 3.66667 27.2808 3.66667H1.83333C0.820809 3.66667 0 2.84586 0 1.83333ZM0 20.1667C0 21.1792 0.820811 22 1.83333 22H11.3317C12.3443 22 13.1651 21.1792 13.1651 20.1667C13.1651 19.1541 12.3443 18.3333 11.3317 18.3333H1.83333C0.820811 18.3333 0 19.1541 0 20.1667Z" fill="#45CC2E"/>
</svg>
