<svg width="17" height="17" viewBox="0 0 17 17" fill="none" xmlns="http://www.w3.org/2000/svg">
<path fill-rule="evenodd" clip-rule="evenodd" d="M6.53921 1C7.22844 1.00073 7.88506 1.3302 8.29671 1.88103L8.95695 2.76061C9.1664 3.03929 9.49906 3.20548 9.84693 3.2062H11.8972C14.6962 3.2062 16 4.64241 16 7.72601L15.9797 11.3307C15.979 14.2104 14.1918 16 11.3145 16H5.67459C2.79156 16 1 14.2096 1 11.3285V5.66859C1 2.57047 2.37629 1 5.08972 1H6.53921ZM6.53848 2.08859H5.08972C2.98507 2.08859 2.08711 3.15976 2.08711 5.66859V11.3285C2.08711 13.6392 3.36121 14.9114 5.67459 14.9114H11.3145C13.6221 14.9114 14.8926 13.6392 14.8926 11.3285V11.3263L14.9129 7.72311C14.9129 5.25637 14.0678 4.29479 11.8972 4.29479H9.84621C9.15843 4.29406 8.50181 3.96531 8.08871 3.41521L7.42702 2.53418C7.21902 2.25478 6.88636 2.08931 6.53848 2.08859ZM11.6655 9.86313C11.9655 9.86313 12.209 10.107 12.209 10.4074C12.209 10.7079 11.9655 10.9517 11.6655 10.9517H5.33483C5.03479 10.9517 4.79127 10.7079 4.79127 10.4074C4.79127 10.107 5.03479 9.86313 5.33483 9.86313H11.6655Z" fill="#9604CF" stroke="#9604CF" stroke-width="0.5"/>
</svg>
