<svg width="17" height="17" viewBox="0 0 17 17" fill="none" xmlns="http://www.w3.org/2000/svg">
<path fill-rule="evenodd" clip-rule="evenodd" d="M9.57341 10.9682C10.4544 10.9682 11.1715 11.6469 11.1715 12.4811V14.6266C11.1715 14.8059 11.3222 14.9496 11.5154 14.9537H12.91C14.009 14.9537 14.9024 14.1126 14.9024 13.0789V6.99383C14.8973 6.6381 14.7195 6.3033 14.4144 6.08079L9.59024 2.41332C8.94268 1.92437 8.03683 1.92437 7.38707 2.41471L2.59585 6.0794C2.27902 6.30888 2.10122 6.64368 2.09756 7.00568V13.0789C2.09756 14.1126 2.99098 14.9537 4.09 14.9537H5.4978C5.6961 14.9537 5.85707 14.8038 5.85707 14.6196C5.85707 14.5792 5.8622 14.5387 5.87098 14.5004V12.4811C5.87098 11.6518 6.58366 10.9738 7.45805 10.9682H9.57341ZM12.91 16H11.5022C10.6959 15.9819 10.0739 15.3785 10.0739 14.6266V12.4811C10.0739 12.2237 9.84927 12.0145 9.57341 12.0145H7.46171C7.19171 12.0159 6.96854 12.2258 6.96854 12.4811V14.6196C6.96854 14.672 6.96122 14.7222 6.94585 14.7696C6.86683 15.4601 6.2478 16 5.4978 16H4.09C2.38585 16 1 14.6894 1 13.0789V7.0008C1.00732 6.30748 1.34244 5.67275 1.92122 5.25495L6.70293 1.59654C7.75585 0.801386 9.22293 0.801386 10.2737 1.59515L15.0898 5.25704C15.6554 5.66787 15.9905 6.30121 16 6.98615V13.0789C16 14.6894 14.6141 16 12.91 16Z" fill="#9604CF" stroke="#9604CF" stroke-width="0.5"/>
</svg>
