<svg width="34" height="38" viewBox="0 0 34 38" fill="none" xmlns="http://www.w3.org/2000/svg">
<path d="M18.2944 0.202474L31.0444 4.28877C31.9026 4.5636 32.6513 5.10445 33.1826 5.83325C33.7138 6.56205 34.0001 7.44108 34 8.34344V16.9052C34 20.7142 33.2229 24.6448 30.8356 28.2933C28.4483 31.9369 24.5577 35.1354 18.615 37.6699C18.1044 37.8877 17.555 38 17 38C16.445 38 15.8956 37.8877 15.385 37.6699C9.44229 35.1354 5.55171 31.9369 3.16443 28.2933C0.777143 24.6448 1.42724e-08 20.7142 1.42724e-08 16.9052V8.34344C-7.38007e-05 7.44108 0.286175 6.56205 0.817419 5.83325C1.34866 5.10445 2.09741 4.5636 2.95557 4.28877L15.7056 0.202474C16.5475 -0.0674913 17.4525 -0.0674913 18.2944 0.202474ZM16.813 3.67825L16.8154 3.68069L4.06543 7.76698C3.94342 7.80636 3.83691 7.88326 3.76105 7.98675C3.68518 8.09024 3.64383 8.21505 3.64286 8.34344V16.9052C3.64286 20.2131 4.31071 23.3897 6.20986 26.2915C8.11386 29.1957 11.3609 31.988 16.813 34.3133C16.8721 34.3386 16.9357 34.3516 17 34.3516C17.0643 34.3516 17.1279 34.3386 17.187 34.3133C22.6391 31.9856 25.8861 29.1981 27.7901 26.2939C29.6893 23.3897 30.3571 20.2083 30.3571 16.9052V8.34344C30.3571 8.21455 30.3161 8.08902 30.2401 7.98497C30.1642 7.88092 30.0572 7.80373 29.9346 7.76455L17.1846 3.67825C17.0638 3.63936 16.9338 3.63936 16.813 3.67825ZM24.9657 15.1539L16.4657 23.667C16.1242 24.0086 15.6613 24.2005 15.1786 24.2005C14.6959 24.2005 14.2329 24.0086 13.8914 23.667L10.2486 20.0186C10.0088 19.7956 9.83354 19.512 9.74122 19.1976C9.6489 18.8832 9.64295 18.5497 9.724 18.2323C9.80505 17.9148 9.97009 17.6251 10.2017 17.3937C10.4334 17.1623 10.7231 16.9977 11.0403 16.9174C11.3569 16.8361 11.6896 16.8417 12.0032 16.9338C12.3169 17.0258 12.6001 17.2008 12.8229 17.4403L15.1786 19.7996L22.3914 12.5757C22.7369 12.2536 23.1936 12.0782 23.6655 12.0864C24.1374 12.0946 24.5878 12.2856 24.922 12.6195C25.2553 12.9541 25.4461 13.4052 25.4542 13.8779C25.4624 14.3505 25.2873 14.8079 24.9657 15.1539Z" fill="#45CC2E"/>
</svg>
