<svg width="28" height="38" viewBox="0 0 28 38" fill="none" xmlns="http://www.w3.org/2000/svg">
<path d="M14 29.8564C13.0219 29.8566 12.0745 29.5259 11.321 28.9213C10.5676 28.3168 10.0554 27.4762 9.8728 26.5447C7.12516 25.7242 4.70588 24.1011 2.9456 21.8974C1.61528 20.2366 0.70119 18.2988 0.275432 16.2369C-0.150325 14.1751 -0.0761043 12.0455 0.492241 10.0162C1.06059 7.98688 2.10751 6.11336 3.55043 4.54339C4.99336 2.97343 6.79281 1.74996 8.80686 0.9695C10.8209 0.189039 12.9945 -0.127069 15.1561 0.0461107C17.3177 0.21929 19.4082 0.87702 21.2628 1.96742C23.1174 3.05782 24.6853 4.55106 25.8428 6.32936C27.0003 8.10767 27.7158 10.1224 27.9328 12.2146C28.0084 12.9611 27.3728 13.5692 26.6 13.5692C25.8272 13.5692 25.2084 12.9584 25.116 12.2146C24.8661 10.295 24.0917 8.47495 22.8728 6.94284C21.6539 5.41073 20.0349 4.22221 18.1833 3.50024C16.3316 2.77828 14.3146 2.5491 12.341 2.83642C10.3673 3.12374 8.50871 3.91713 6.95746 5.13448C5.4062 6.35184 4.21865 7.94894 3.51768 9.76053C2.81672 11.5721 2.6278 13.5324 2.97048 15.4385C3.31315 17.3447 4.17498 19.1274 5.46677 20.6023C6.75857 22.0772 8.43341 23.1906 10.318 23.8274C10.6743 23.1972 11.1963 22.6697 11.8309 22.2984C12.4655 21.9271 13.1902 21.7253 13.9314 21.7133C14.6725 21.7014 15.4037 21.8799 16.0507 22.2306C16.6977 22.5813 17.2374 23.0917 17.615 23.7101C17.9927 24.3285 18.1948 25.0327 18.2009 25.7513C18.2069 26.4699 18.0167 27.1773 17.6495 27.8015C17.2824 28.4258 16.7513 28.9447 16.1103 29.3056C15.4693 29.6665 14.7412 29.8566 14 29.8564ZM2.8 25.7846V25.7113C2.03477 25.0462 1.33373 24.3147 0.705604 23.5261C0.244531 24.1944 -0.00108355 24.9806 3.59338e-06 25.7846V27.1419C3.59338e-06 32.4922 5.208 38 14 38C22.792 38 28 32.4922 28 27.1419V25.7846C28 24.7047 27.5575 23.669 26.7698 22.9054C25.9822 22.1418 24.9139 21.7128 23.8 21.7128H19.6C20.2132 22.5 20.65 23.4229 20.86 24.4273H23.8C24.1713 24.4273 24.5274 24.5703 24.79 24.8248C25.0525 25.0794 25.2 25.4246 25.2 25.7846V27.1419C25.2 31.0454 21.1904 35.2855 14 35.2855C6.8096 35.2855 2.8 31.0454 2.8 27.1419V25.7846ZM14 18.9982C12.3975 18.996 10.8431 19.529 9.5984 20.5075C8.37404 19.7806 7.36315 18.7606 6.66291 17.5455C5.96268 16.3304 5.59664 14.961 5.6 13.5692C5.60042 12.1494 5.98368 10.7544 6.71179 9.52257C7.4399 8.29072 8.48755 7.26482 9.75082 6.54663C11.0141 5.82844 12.4491 5.44291 13.9135 5.42828C15.3778 5.41366 16.8207 5.77044 18.099 6.46325C19.3773 7.15606 20.4465 8.16081 21.2006 9.37786C21.9548 10.5949 22.3676 11.9819 22.3982 13.4014C22.4288 14.8208 22.076 16.2234 21.375 17.4699C20.6739 18.7164 19.6489 19.7636 18.4016 20.5075C17.1569 19.529 15.6025 18.996 14 18.9982ZM8.4 13.5692C8.4 15.009 8.99 16.39 10.0402 17.4081C11.0904 18.4263 12.5148 18.9982 14 18.9982C15.4852 18.9982 16.9096 18.4263 17.9598 17.4081C19.01 16.39 19.6 15.009 19.6 13.5692C19.6 12.1293 19.01 10.7484 17.9598 9.73023C16.9096 8.71208 15.4852 8.14009 14 8.14009C12.5148 8.14009 11.0904 8.71208 10.0402 9.73023C8.99 10.7484 8.4 12.1293 8.4 13.5692Z" fill="#45CC2E"/>
</svg>
